<?xml version="1.0" encoding="UTF-8" standalone="no"?>
<!DOCTYPE svg PUBLIC "-//W3C//DTD SVG 1.1//EN"
 "http://www.w3.org/Graphics/SVG/1.1/DTD/svg11.dtd">
<!-- Generated by graphviz version 2.43.0 (0)
 -->
<!-- Title: %3 Pages: 1 -->
<svg width="850pt" height="503pt"
 viewBox="14.40 14.40 835.40 488.40" xmlns="http://www.w3.org/2000/svg" xmlns:xlink="http://www.w3.org/1999/xlink">
<g id="graph0" class="graph" transform="scale(1 1) rotate(0) translate(50.4 452.4)">
<title>%3</title>
<polygon fill="white" stroke="transparent" points="-36,36 -36,-438 785,-438 785,36 -36,36"/>
<text text-anchor="middle" x="374.5" y="-383.6" font-family="Helvetica,sans-Serif" font-weight="bold" font-size="18.00">Algebraic Loop System</text>
<g id="clust1" class="cluster">
<title>cluster_legend</title>
<path fill="#f9fafb" stroke="#d1d5db" stroke-width="1.5" d="M27,-8C27,-8 131,-8 131,-8 137,-8 143,-14 143,-20 143,-20 143,-133 143,-133 143,-139 137,-145 131,-145 131,-145 27,-145 27,-145 21,-145 15,-139 15,-133 15,-133 15,-20 15,-20 15,-14 21,-8 27,-8"/>
<text text-anchor="middle" x="79" y="-133" font-family="Helvetica,sans-Serif" font-weight="bold" font-size="10.00">Legend</text>
</g>
<g id="clust2" class="cluster">
<title>cluster_Input</title>
<path fill="#d0e3e3" stroke="#d1d5db" stroke-width="2" d="M20,-164C20,-164 138,-164 138,-164 144,-164 150,-170 150,-176 150,-176 150,-254 150,-254 150,-260 144,-266 138,-266 138,-266 20,-266 20,-266 14,-266 8,-260 8,-254 8,-254 8,-176 8,-176 8,-170 14,-164 20,-164"/>
<text text-anchor="middle" x="79" y="-253.2" font-family="Helvetica,sans-Serif" font-weight="bold" font-size="11.00">Input</text>
</g>
<g id="clust3" class="cluster">
<title>cluster_Feedback</title>
<path fill="#d0e4d7" stroke="#d1d5db" stroke-width="2" d="M196,-165C196,-165 335,-165 335,-165 341,-165 347,-171 347,-177 347,-177 347,-271 347,-271 347,-277 341,-283 335,-283 335,-283 196,-283 196,-283 190,-283 184,-277 184,-271 184,-271 184,-177 184,-177 184,-171 190,-165 196,-165"/>
<text text-anchor="middle" x="265.5" y="-270.2" font-family="Helvetica,sans-Serif" font-weight="bold" font-size="11.00">Feedback</text>
</g>
<g id="clust4" class="cluster">
<title>cluster_Algebraic Loop</title>
<path fill="#bccce0" stroke="#d1d5db" stroke-width="2" d="M393,-230C393,-230 531,-230 531,-230 537,-230 543,-236 543,-242 543,-242 543,-354 543,-354 543,-360 537,-366 531,-366 531,-366 393,-366 393,-366 387,-366 381,-360 381,-354 381,-354 381,-242 381,-242 381,-236 387,-230 393,-230"/>
<text text-anchor="middle" x="462" y="-353.2" font-family="Helvetica,sans-Serif" font-weight="bold" font-size="11.00">Algebraic Loop</text>
</g>
<g id="clust5" class="cluster">
<title>cluster_State</title>
<path fill="#e6d2d0" stroke="#d1d5db" stroke-width="2" d="M589,-181C589,-181 729,-181 729,-181 735,-181 741,-187 741,-193 741,-193 741,-271 741,-271 741,-277 735,-283 729,-283 729,-283 589,-283 589,-283 583,-283 577,-277 577,-271 577,-271 577,-193 577,-193 577,-187 583,-181 589,-181"/>
<text text-anchor="middle" x="659" y="-270.2" font-family="Helvetica,sans-Serif" font-weight="bold" font-size="11.00">State</text>
</g>
<!-- legend_node -->
<g id="node1" class="node">
<title>legend_node</title>
<text text-anchor="start" x="31" y="-103.8" font-family="Helvetica,sans-Serif" font-weight="bold" font-size="9.00">Edges:</text>
<text text-anchor="start" x="31" y="-87.6" font-family="Helvetica,sans-Serif" font-size="8.00">───&gt; Data flow</text>
<text text-anchor="start" x="31" y="-72.6" font-family="Helvetica,sans-Serif" font-size="8.00" fill="#0b84ff">┄┄┄o Event connection</text>
<text text-anchor="start" x="31" y="-57.8" font-family="Helvetica,sans-Serif" font-weight="bold" font-size="9.00">Ports:</text>
<text text-anchor="start" x="31" y="-42.6" font-family="Helvetica,sans-Serif" font-weight="bold" font-size="8.00" fill="#ef4444">red</text>
<text text-anchor="start" x="47" y="-42.6" font-family="Helvetica,sans-Serif" font-size="8.00"> Direct feedthrough</text>
<text text-anchor="start" x="31" y="-27.6" font-family="Helvetica,sans-Serif" font-weight="bold" font-size="8.00" fill="#0b84ff">blue</text>
<text text-anchor="start" x="52" y="-27.6" font-family="Helvetica,sans-Serif" font-size="8.00"> Event port</text>
</g>
<!-- source -->
<g id="node2" class="node">
<title>source</title>
<polygon fill="none" stroke="black" points="24,-208 24,-229 44,-229 44,-208 24,-208"/>
<text text-anchor="start" x="29" y="-216" font-family="Helvetica,sans-Serif" font-size="10.00">in</text>
<polygon fill="none" stroke="black" points="44,-208 44,-229 92,-229 92,-208 44,-208"/>
<text text-anchor="start" x="54" y="-216" font-family="Helvetica,sans-Serif" font-size="10.00">name</text>
<polygon fill="none" stroke="black" points="92,-208 92,-229 134,-229 134,-208 92,-208"/>
<text text-anchor="start" x="105" y="-216" font-family="Helvetica,sans-Serif" font-size="10.00">out</text>
<polygon fill="none" stroke="black" points="24,-180 24,-208 44,-208 44,-180 24,-180"/>
<polygon fill="none" stroke="black" points="44,-180 44,-208 92,-208 92,-180 44,-180"/>
<text text-anchor="start" x="49" y="-196" font-family="Helvetica,sans-Serif" font-weight="bold" font-size="10.00">source</text>
<text text-anchor="start" x="61.5" y="-187.6" font-family="Helvetica,sans-Serif" font-size="8.00">#0</text>
<polygon fill="none" stroke="black" points="92,-180 92,-208 134,-208 134,-180 92,-180"/>
<text text-anchor="start" x="97" y="-191.5" font-family="Helvetica,sans-Serif" font-size="10.00">u(t)=1</text>
</g>
<!-- outer_sub -->
<g id="node3" class="node">
<title>outer_sub</title>
<polygon fill="none" stroke="black" points="200.5,-225 200.5,-246 235.5,-246 235.5,-225 200.5,-225"/>
<text text-anchor="start" x="213" y="-233" font-family="Helvetica,sans-Serif" font-size="10.00">in</text>
<polygon fill="none" stroke="black" points="235.5,-225 235.5,-246 301.5,-246 301.5,-225 235.5,-225"/>
<text text-anchor="start" x="254.5" y="-233" font-family="Helvetica,sans-Serif" font-size="10.00">name</text>
<polygon fill="none" stroke="black" points="301.5,-225 301.5,-246 331.5,-246 331.5,-225 301.5,-225"/>
<text text-anchor="start" x="308.5" y="-233" font-family="Helvetica,sans-Serif" font-size="10.00">out</text>
<polygon fill="none" stroke="black" points="200.5,-181 200.5,-225 235.5,-225 235.5,-181 200.5,-181"/>
<polygon fill="none" stroke="black" points="205.5,-203 205.5,-220 230.5,-220 230.5,-203 205.5,-203"/>
<text text-anchor="start" x="208.5" y="-209" font-family="Helvetica,sans-Serif" font-size="10.00">neg</text>
<polygon fill="none" stroke="black" points="205.5,-186 205.5,-203 230.5,-203 230.5,-186 205.5,-186"/>
<text text-anchor="start" x="209" y="-192" font-family="Helvetica,sans-Serif" font-size="10.00">pos</text>
<polygon fill="none" stroke="black" points="235.5,-181 235.5,-225 301.5,-225 301.5,-181 235.5,-181"/>
<text text-anchor="start" x="240.5" y="-205" font-family="Helvetica,sans-Serif" font-weight="bold" font-size="10.00">outer_sub</text>
<text text-anchor="start" x="262" y="-196.6" font-family="Helvetica,sans-Serif" font-size="8.00">#1</text>
<polygon fill="none" stroke="black" points="301.5,-181 301.5,-225 331.5,-225 331.5,-181 301.5,-181"/>
<text text-anchor="start" x="306.5" y="-201.5" font-family="Helvetica,sans-Serif" font-weight="bold" font-size="10.00" fill="#ef4444">diff</text>
</g>
<!-- source&#45;&gt;outer_sub -->
<g id="edge1" class="edge">
<title>source:e&#45;&gt;outer_sub:w</title>
<path fill="none" stroke="#111827" stroke-width="1.2" d="M135,-194C163.36,-194 172.19,-194 197.34,-194"/>
<polygon fill="#111827" stroke="#111827" stroke-width="1.2" points="204.5,-194 197.5,-197.15 201,-194.1 197.5,-194.1 197.5,-194 197.5,-193.9 201,-193.9 197.5,-190.85 204.5,-194 204.5,-194"/>
</g>
<!-- inner_sub -->
<g id="node4" class="node">
<title>inner_sub</title>
<polygon fill="none" stroke="black" points="397,-290 397,-311 432,-311 432,-290 397,-290"/>
<text text-anchor="start" x="409.5" y="-298" font-family="Helvetica,sans-Serif" font-size="10.00">in</text>
<polygon fill="none" stroke="black" points="432,-290 432,-311 497,-311 497,-290 432,-290"/>
<text text-anchor="start" x="450.5" y="-298" font-family="Helvetica,sans-Serif" font-size="10.00">name</text>
<polygon fill="none" stroke="black" points="497,-290 497,-311 527,-311 527,-290 497,-290"/>
<text text-anchor="start" x="504" y="-298" font-family="Helvetica,sans-Serif" font-size="10.00">out</text>
<polygon fill="none" stroke="black" points="397,-246 397,-290 432,-290 432,-246 397,-246"/>
<polygon fill="none" stroke="black" points="402,-268 402,-285 427,-285 427,-268 402,-268"/>
<text text-anchor="start" x="405" y="-274" font-family="Helvetica,sans-Serif" font-size="10.00">neg</text>
<polygon fill="none" stroke="black" points="402,-251 402,-268 427,-268 427,-251 402,-251"/>
<text text-anchor="start" x="405.5" y="-257" font-family="Helvetica,sans-Serif" font-size="10.00">pos</text>
<polygon fill="none" stroke="black" points="432,-246 432,-290 497,-290 497,-246 432,-246"/>
<text text-anchor="start" x="437" y="-270" font-family="Helvetica,sans-Serif" font-weight="bold" font-size="10.00">inner_sub</text>
<text text-anchor="start" x="458" y="-261.6" font-family="Helvetica,sans-Serif" font-size="8.00">#2</text>
<polygon fill="none" stroke="black" points="497,-246 497,-290 527,-290 527,-246 497,-246"/>
<text text-anchor="start" x="502" y="-266.5" font-family="Helvetica,sans-Serif" font-weight="bold" font-size="10.00" fill="#ef4444">diff</text>
</g>
<!-- outer_sub&#45;&gt;inner_sub -->
<g id="edge2" class="edge">
<title>outer_sub:e&#45;&gt;inner_sub:w</title>
<path fill="none" stroke="#111827" stroke-width="1.2" d="M332.5,-203C369.21,-203 362.81,-251.81 393.79,-258.29"/>
<polygon fill="#111827" stroke="#111827" stroke-width="1.2" points="401,-259 393.73,-261.45 397.51,-258.76 394.02,-258.42 394.03,-258.32 394.04,-258.22 397.53,-258.56 394.34,-255.18 401,-259 401,-259"/>
</g>
<!-- inner_sub&#45;&gt;inner_sub -->
<g id="edge4" class="edge">
<title>inner_sub:e&#45;&gt;inner_sub:w</title>
<path fill="none" stroke="#111827" stroke-width="1.2" d="M527,-268C576,-299.5 576,-373.5 464.5,-373.5 357.57,-373.5 353.19,-312.8 396.22,-280.04"/>
<polygon fill="#111827" stroke="#111827" stroke-width="1.2" points="402,-276 398.07,-282.59 399.19,-278.09 396.32,-280.1 396.26,-280.01 396.21,-279.93 399.08,-277.92 394.46,-277.43 402,-276 402,-276"/>
</g>
<!-- integrator -->
<g id="node5" class="node">
<title>integrator</title>
<polygon fill="none" stroke="black" points="593,-225 593,-246 631,-246 631,-225 593,-225"/>
<text text-anchor="start" x="607" y="-233" font-family="Helvetica,sans-Serif" font-size="10.00">in</text>
<polygon fill="none" stroke="black" points="631,-225 631,-246 699,-246 699,-225 631,-225"/>
<text text-anchor="start" x="651" y="-233" font-family="Helvetica,sans-Serif" font-size="10.00">name</text>
<polygon fill="none" stroke="black" points="699,-225 699,-246 725,-246 725,-225 699,-225"/>
<text text-anchor="start" x="704" y="-233" font-family="Helvetica,sans-Serif" font-size="10.00">out</text>
<polygon fill="none" stroke="black" points="593,-197 593,-225 631,-225 631,-197 593,-197"/>
<text text-anchor="start" x="598" y="-208.5" font-family="Helvetica,sans-Serif" font-size="10.00">dx_dt</text>
<polygon fill="none" stroke="black" points="631,-197 631,-225 699,-225 699,-197 631,-197"/>
<text text-anchor="start" x="636" y="-213" font-family="Helvetica,sans-Serif" font-weight="bold" font-size="10.00">integrator</text>
<text text-anchor="start" x="658.5" y="-204.6" font-family="Helvetica,sans-Serif" font-size="8.00">#0</text>
<polygon fill="none" stroke="black" points="699,-197 699,-225 725,-225 725,-197 699,-197"/>
<text text-anchor="start" x="708.5" y="-208.5" font-family="Helvetica,sans-Serif" font-size="10.00">x</text>
</g>
<!-- inner_sub&#45;&gt;integrator -->
<g id="edge3" class="edge">
<title>inner_sub:e&#45;&gt;integrator:w</title>
<path fill="none" stroke="#111827" stroke-width="1.2" d="M528,-268C563.41,-268 555.37,-218.73 584.68,-211.81"/>
<polygon fill="#111827" stroke="#111827" stroke-width="1.2" points="592,-211 585.39,-214.9 588.53,-211.48 585.05,-211.86 585.04,-211.77 585.03,-211.67 588.51,-211.28 584.7,-208.63 592,-211 592,-211"/>
</g>
<!-- integrator&#45;&gt;outer_sub -->
<g id="edge5" class="edge">
<title>integrator:e&#45;&gt;outer_sub:w</title>
<path fill="none" stroke="#111827" stroke-width="1.2" d="M726,-211C733.79,-211 730.55,-198.96 725,-193.5 601.35,-71.82 508.44,-181.06 335,-177.5 277.46,-176.32 246.8,-137.41 205.5,-177.5 196.98,-185.77 191.95,-202.13 197.79,-208.44"/>
<polygon fill="#111827" stroke="#111827" stroke-width="1.2" points="204.5,-211 196.84,-211.45 201.19,-209.85 197.92,-208.6 197.96,-208.5 198,-208.41 201.27,-209.66 199.08,-205.56 204.5,-211 204.5,-211"/>
</g>
</g>
</svg>
