<?xml version="1.0" encoding="UTF-8" standalone="no"?><svg xmlns="http://www.w3.org/2000/svg" xmlns:xlink="http://www.w3.org/1999/xlink" contentScriptType="application/ecmascript" contentStyleType="text/css" height="1256px" preserveAspectRatio="none" style="width:992px;height:1256px;" version="1.1" viewBox="0 0 992 1256" width="992px" zoomAndPan="magnify"><defs><filter height="300%" id="f5i28hqq62v8a" width="300%" x="-1" y="-1"><feGaussianBlur result="blurOut" stdDeviation="2.0"/><feColorMatrix in="blurOut" result="blurOut2" type="matrix" values="0 0 0 0 0 0 0 0 0 0 0 0 0 0 0 0 0 0 .4 0"/><feOffset dx="4.0" dy="4.0" in="blurOut2" result="blurOut3"/><feBlend in="SourceGraphic" in2="blurOut3" mode="normal"/></filter></defs><g><text fill="#000000" font-family="sans-serif" font-size="18" lengthAdjust="spacingAndGlyphs" textLength="272" x="355.75" y="29.2419">Hybrid Co-Simulation Algorithm</text><rect fill="#ECF0F1" filter="url(#f5i28hqq62v8a)" height="31.706" style="stroke: #2C3E50; stroke-width: 1.0;" width="10" x="448.5" y="246.4757"/><rect fill="#ECF0F1" filter="url(#f5i28hqq62v8a)" height="76.412" style="stroke: #2C3E50; stroke-width: 1.0;" width="10" x="448.5" y="309.8878"/><rect fill="#ECF0F1" filter="url(#f5i28hqq62v8a)" height="30" style="stroke: #2C3E50; stroke-width: 1.0;" width="10" x="448.5" y="663.6358"/><rect fill="#ECF0F1" filter="url(#f5i28hqq62v8a)" height="30" style="stroke: #2C3E50; stroke-width: 1.0;" width="10" x="768.5" y="725.3419"/><rect fill="#ECF0F1" filter="url(#f5i28hqq62v8a)" height="76.412" style="stroke: #2C3E50; stroke-width: 1.0;" width="10" x="768.5" y="813.7539"/><rect fill="#FFFFFF" filter="url(#f5i28hqq62v8a)" height="974.3202" rx="2.5" ry="2.5" style="stroke: #27AE60; stroke-width: 2.0;" width="957.5" x="13" y="203.0637"/><rect fill="#FFFFFF" filter="url(#f5i28hqq62v8a)" height="769.0841" rx="2.5" ry="2.5" style="stroke: #27AE60; stroke-width: 2.0;" width="937.5" x="23" y="401.2998"/><rect fill="#FFFFFF" height="627.554" style="stroke: none; stroke-width: 1.0;" width="937.5" x="23" y="542.8299"/><rect fill="#FFFFFF" filter="url(#f5i28hqq62v8a)" height="306.63" rx="2.5" ry="2.5" style="stroke: #27AE60; stroke-width: 2.0;" width="917.5" x="33" y="770.3419"/><rect fill="#FFFFFF" filter="url(#f5i28hqq62v8a)" height="120.0999" rx="2.5" ry="2.5" style="stroke: #27AE60; stroke-width: 2.0;" width="160" x="95" y="949.8719"/><rect fill="#FFFFFF" height="58.6879" style="stroke: none; stroke-width: 1.0;" width="160" x="95" y="1011.284"/><line style="stroke: #2C3E50; stroke-width: 1.0; stroke-dasharray: 5.0,5.0;" x1="175" x2="175" y1="98.6517" y2="1194.3839"/><line style="stroke: #2C3E50; stroke-width: 1.0; stroke-dasharray: 5.0,5.0;" x1="453" x2="453" y1="98.6517" y2="1194.3839"/><line style="stroke: #2C3E50; stroke-width: 1.0; stroke-dasharray: 5.0,5.0;" x1="773" x2="773" y1="98.6517" y2="1194.3839"/><rect fill="#EBF5FB" filter="url(#f5i28hqq62v8a)" height="33.0679" rx="2.5" ry="2.5" style="stroke: #3498DB; stroke-width: 1.5;" width="61" x="143" y="60.5838"/><text fill="#000000" font-family="sans-serif" font-size="14" lengthAdjust="spacingAndGlyphs" textLength="47" x="150" y="82.5497">Master</text><rect fill="#EBF5FB" filter="url(#f5i28hqq62v8a)" height="33.0679" rx="2.5" ry="2.5" style="stroke: #3498DB; stroke-width: 1.5;" width="61" x="143" y="1193.3839"/><text fill="#000000" font-family="sans-serif" font-size="14" lengthAdjust="spacingAndGlyphs" textLength="47" x="150" y="1215.3499">Master</text><rect fill="#EBF5FB" filter="url(#f5i28hqq62v8a)" height="52.1358" rx="2.5" ry="2.5" style="stroke: #3498DB; stroke-width: 1.5;" width="67" x="418" y="41.5158"/><text fill="#000000" font-family="sans-serif" font-size="14" lengthAdjust="spacingAndGlyphs" textLength="37" x="433" y="63.4818">Event</text><text fill="#000000" font-family="sans-serif" font-size="14" lengthAdjust="spacingAndGlyphs" textLength="53" x="425" y="82.5497">Sources</text><rect fill="#EBF5FB" filter="url(#f5i28hqq62v8a)" height="52.1358" rx="2.5" ry="2.5" style="stroke: #3498DB; stroke-width: 1.5;" width="67" x="418" y="1193.3839"/><text fill="#000000" font-family="sans-serif" font-size="14" lengthAdjust="spacingAndGlyphs" textLength="37" x="433" y="1215.3499">Event</text><text fill="#000000" font-family="sans-serif" font-size="14" lengthAdjust="spacingAndGlyphs" textLength="53" x="425" y="1234.4178">Sources</text><rect fill="#EBF5FB" filter="url(#f5i28hqq62v8a)" height="33.0679" rx="2.5" ry="2.5" style="stroke: #3498DB; stroke-width: 1.5;" width="75" x="734" y="60.5838"/><text fill="#000000" font-family="sans-serif" font-size="14" lengthAdjust="spacingAndGlyphs" textLength="61" x="741" y="82.5497">Listeners</text><rect fill="#EBF5FB" filter="url(#f5i28hqq62v8a)" height="33.0679" rx="2.5" ry="2.5" style="stroke: #3498DB; stroke-width: 1.5;" width="75" x="734" y="1193.3839"/><text fill="#000000" font-family="sans-serif" font-size="14" lengthAdjust="spacingAndGlyphs" textLength="61" x="741" y="1215.3499">Listeners</text><rect fill="#ECF0F1" filter="url(#f5i28hqq62v8a)" height="31.706" style="stroke: #2C3E50; stroke-width: 1.0;" width="10" x="448.5" y="246.4757"/><rect fill="#ECF0F1" filter="url(#f5i28hqq62v8a)" height="76.412" style="stroke: #2C3E50; stroke-width: 1.0;" width="10" x="448.5" y="309.8878"/><rect fill="#ECF0F1" filter="url(#f5i28hqq62v8a)" height="30" style="stroke: #2C3E50; stroke-width: 1.0;" width="10" x="448.5" y="663.6358"/><rect fill="#ECF0F1" filter="url(#f5i28hqq62v8a)" height="30" style="stroke: #2C3E50; stroke-width: 1.0;" width="10" x="768.5" y="725.3419"/><rect fill="#ECF0F1" filter="url(#f5i28hqq62v8a)" height="76.412" style="stroke: #2C3E50; stroke-width: 1.0;" width="10" x="768.5" y="813.7539"/><rect fill="#EEEEEE" filter="url(#f5i28hqq62v8a)" height="3" style="stroke: #EEEEEE; stroke-width: 1.0;" width="977.5" x="3" y="130.5047"/><line style="stroke: #000000; stroke-width: 1.0;" x1="3" x2="980.5" y1="130.5047" y2="130.5047"/><line style="stroke: #000000; stroke-width: 1.0;" x1="3" x2="980.5" y1="133.5047" y2="133.5047"/><rect fill="#EEEEEE" filter="url(#f5i28hqq62v8a)" height="25.706" style="stroke: #000000; stroke-width: 2.0;" width="142" x="420.75" y="118.6517"/><text fill="#000000" font-family="sans-serif" font-size="13" font-weight="bold" lengthAdjust="spacingAndGlyphs" textLength="125" x="426.75" y="136.5487">Macro-Step [t, t+dt]</text><path d="M97,161.8577 L97,183.8577 A2.5,2.5 0 0 0 99.5,186.3577 L247.5,186.3577 A2.5,2.5 0 0 0 250,183.8577 L250,169.3577 L240,159.3577 L99.5,159.3577 A2.5,2.5 0 0 0 97,161.8577 " fill="#FEF5E7" filter="url(#f5i28hqq62v8a)" style="stroke: #E67E22; stroke-width: 1.0;"/><path d="M240,159.3577 L240,168.1077 A1.25,1.25 0 0 0 241.25,169.3577 L250,169.3577 L240,159.3577 " fill="#FEF5E7" style="stroke: #E67E22; stroke-width: 1.0;"/><text fill="#000000" font-family="sans-serif" font-size="13" lengthAdjust="spacingAndGlyphs" textLength="132" x="103" y="178.2547">t_left = t, t_right = t+dt</text><path d="M15.5,203.0637 L86,203.0637 L86,212.0637 L76,222.0637 L13,222.0637 L13,205.5637 " fill="#E8F8F5" style="stroke: #27AE60; stroke-width: 1.0;"/><rect fill="none" height="974.3202" rx="2.5" ry="2.5" style="stroke: #27AE60; stroke-width: 2.0;" width="957.5" x="13" y="203.0637"/><text fill="#000000" font-family="sans-serif" font-size="13" font-weight="bold" lengthAdjust="spacingAndGlyphs" textLength="28" x="28" y="217.9607">loop</text><text fill="#000000" font-family="sans-serif" font-size="11" font-weight="bold" lengthAdjust="spacingAndGlyphs" textLength="118" x="101" y="216.8226">[while t_left &lt; t_right]</text><polygon fill="#2C3E50" points="436.5,242.4757,446.5,246.4757,436.5,250.4757,440.5,246.4757" style="stroke: #2C3E50; stroke-width: 1.0;"/><line style="stroke: #2C3E50; stroke-width: 2.0;" x1="175.5" x2="442.5" y1="246.4757" y2="246.4757"/><text fill="#000000" font-family="sans-serif" font-size="13" font-weight="bold" lengthAdjust="spacingAndGlyphs" textLength="111" x="182.5" y="240.6667">1. Prepare inputs</text><text fill="#000000" font-family="sans-serif" font-size="13" lengthAdjust="spacingAndGlyphs" textLength="45" x="296.5" y="240.6667">at t_left</text><polygon fill="#2C3E50" points="186.5,274.1818,176.5,278.1818,186.5,282.1818,182.5,278.1818" style="stroke: #2C3E50; stroke-width: 1.0;"/><line style="stroke: #2C3E50; stroke-width: 2.0; stroke-dasharray: 2.0,2.0;" x1="180.5" x2="452.5" y1="278.1818" y2="278.1818"/><text fill="#000000" font-family="sans-serif" font-size="13" lengthAdjust="spacingAndGlyphs" textLength="34" x="192.5" y="272.3728">ready</text><polygon fill="#2C3E50" points="436.5,305.8878,446.5,309.8878,436.5,313.8878,440.5,309.8878" style="stroke: #2C3E50; stroke-width: 1.0;"/><line style="stroke: #2C3E50; stroke-width: 2.0;" x1="175.5" x2="442.5" y1="309.8878" y2="309.8878"/><text fill="#000000" font-family="sans-serif" font-size="13" font-weight="bold" lengthAdjust="spacingAndGlyphs" textLength="106" x="182.5" y="304.0788">2. Detect events</text><text fill="#000000" font-family="sans-serif" font-size="13" lengthAdjust="spacingAndGlyphs" textLength="84" x="291.5" y="304.0788">[t_left, t_right]</text><line style="stroke: #2C3E50; stroke-width: 2.0;" x1="458.5" x2="500.5" y1="341.5938" y2="341.5938"/><line style="stroke: #2C3E50; stroke-width: 2.0;" x1="500.5" x2="500.5" y1="341.5938" y2="354.5938"/><line style="stroke: #2C3E50; stroke-width: 2.0;" x1="459.5" x2="500.5" y1="354.5938" y2="354.5938"/><polygon fill="#2C3E50" points="469.5,350.5938,459.5,354.5938,469.5,358.5938,465.5,354.5938" style="stroke: #2C3E50; stroke-width: 1.0;"/><text fill="#000000" font-family="sans-serif" font-size="13" lengthAdjust="spacingAndGlyphs" textLength="296" x="465.5" y="335.7848">snapshot → trial step → detect crossings → restore</text><polygon fill="#2C3E50" points="186.5,382.2998,176.5,386.2998,186.5,390.2998,182.5,386.2998" style="stroke: #2C3E50; stroke-width: 1.0;"/><line style="stroke: #2C3E50; stroke-width: 2.0; stroke-dasharray: 2.0,2.0;" x1="180.5" x2="452.5" y1="386.2998" y2="386.2998"/><text fill="#000000" font-family="sans-serif" font-size="13" lengthAdjust="spacingAndGlyphs" textLength="101" x="192.5" y="380.4908">crossings found?</text><path d="M25.5,401.2998 L86,401.2998 L86,410.2998 L76,420.2998 L23,420.2998 L23,403.7998 " fill="#E8F8F5" style="stroke: #27AE60; stroke-width: 1.0;"/><rect fill="none" height="769.0841" rx="2.5" ry="2.5" style="stroke: #27AE60; stroke-width: 2.0;" width="937.5" x="23" y="401.2998"/><text fill="#000000" font-family="sans-serif" font-size="13" font-weight="bold" lengthAdjust="spacingAndGlyphs" textLength="18" x="38" y="416.1968">alt</text><text fill="#000000" font-family="sans-serif" font-size="11" font-weight="bold" lengthAdjust="spacingAndGlyphs" textLength="64" x="101" y="415.0587">[No events]</text><line style="stroke: #2C3E50; stroke-width: 2.0;" x1="175.5" x2="217.5" y1="462.4179" y2="462.4179"/><line style="stroke: #2C3E50; stroke-width: 2.0;" x1="217.5" x2="217.5" y1="462.4179" y2="475.4179"/><line style="stroke: #2C3E50; stroke-width: 2.0;" x1="176.5" x2="217.5" y1="475.4179" y2="475.4179"/><polygon fill="#2C3E50" points="186.5,471.4179,176.5,475.4179,186.5,479.4179,182.5,475.4179" style="stroke: #2C3E50; stroke-width: 1.0;"/><text fill="#000000" font-family="sans-serif" font-size="13" font-weight="bold" lengthAdjust="spacingAndGlyphs" textLength="112" x="182.5" y="438.9028">Gauss-Seidel step</text><text fill="#000000" font-family="sans-serif" font-size="13" lengthAdjust="spacingAndGlyphs" textLength="84" x="182.5" y="456.6089">[t_left, t_right]</text><path d="M121,490.9179 L121,530.9179 A2.5,2.5 0 0 0 123.5,533.4179 L222.5,533.4179 A2.5,2.5 0 0 0 225,530.9179 L225,498.4179 L215,488.4179 L123.5,488.4179 A2.5,2.5 0 0 0 121,490.9179 " fill="#FEF5E7" filter="url(#f5i28hqq62v8a)" style="stroke: #E67E22; stroke-width: 1.0;"/><path d="M215,488.4179 L215,497.1679 A1.25,1.25 0 0 0 216.25,498.4179 L225,498.4179 L215,488.4179 " fill="#FEF5E7" style="stroke: #E67E22; stroke-width: 1.0;"/><text fill="#000000" font-family="sans-serif" font-size="13" lengthAdjust="spacingAndGlyphs" textLength="83" x="127" y="507.3149">t_left = t_right</text><text fill="#000000" font-family="sans-serif" font-size="13" font-weight="bold" lengthAdjust="spacingAndGlyphs" textLength="67" x="127" y="525.0209">EXIT LOOP</text><line style="stroke: #27AE60; stroke-width: 1.0; stroke-dasharray: 2.0,2.0;" x1="23" x2="960.5" y1="543.8299" y2="543.8299"/><text fill="#000000" font-family="sans-serif" font-size="11" font-weight="bold" lengthAdjust="spacingAndGlyphs" textLength="98" x="28" y="555.5888">[Events detected]</text><line style="stroke: #2C3E50; stroke-width: 2.0;" x1="175.5" x2="217.5" y1="601.2238" y2="601.2238"/><line style="stroke: #2C3E50; stroke-width: 2.0;" x1="217.5" x2="217.5" y1="601.2238" y2="614.2238"/><line style="stroke: #2C3E50; stroke-width: 2.0;" x1="176.5" x2="217.5" y1="614.2238" y2="614.2238"/><polygon fill="#2C3E50" points="186.5,610.2238,176.5,614.2238,186.5,618.2238,182.5,614.2238" style="stroke: #2C3E50; stroke-width: 1.0;"/><text fill="#000000" font-family="sans-serif" font-size="13" font-weight="bold" lengthAdjust="spacingAndGlyphs" textLength="79" x="182.5" y="577.7088">3. Bisection:</text><text fill="#000000" font-family="sans-serif" font-size="13" lengthAdjust="spacingAndGlyphs" textLength="88" x="182.5" y="595.4148">Locate t_event</text><polygon fill="#2C3E50" points="436.5,659.6358,446.5,663.6358,436.5,667.6358,440.5,663.6358" style="stroke: #2C3E50; stroke-width: 1.0;"/><line style="stroke: #2C3E50; stroke-width: 2.0;" x1="175.5" x2="442.5" y1="663.6358" y2="663.6358"/><text fill="#000000" font-family="sans-serif" font-size="13" font-weight="bold" lengthAdjust="spacingAndGlyphs" textLength="62" x="182.5" y="640.1208">4. Step all</text><text fill="#000000" font-family="sans-serif" font-size="13" lengthAdjust="spacingAndGlyphs" textLength="89" x="182.5" y="657.8268">[t_left, t_event]</text><polygon fill="#2C3E50" points="756.5,721.3419,766.5,725.3419,756.5,729.3419,760.5,725.3419" style="stroke: #2C3E50; stroke-width: 1.0;"/><line style="stroke: #2C3E50; stroke-width: 2.0;" x1="175.5" x2="762.5" y1="725.3419" y2="725.3419"/><text fill="#000000" font-family="sans-serif" font-size="13" lengthAdjust="spacingAndGlyphs" textLength="90" x="182.5" y="719.5329">step to t_event</text><path d="M35.5,770.3419 L106,770.3419 L106,779.3419 L96,789.3419 L33,789.3419 L33,772.8419 " fill="#E8F8F5" style="stroke: #27AE60; stroke-width: 1.0;"/><rect fill="none" height="306.63" rx="2.5" ry="2.5" style="stroke: #27AE60; stroke-width: 2.0;" width="917.5" x="33" y="770.3419"/><text fill="#000000" font-family="sans-serif" font-size="13" font-weight="bold" lengthAdjust="spacingAndGlyphs" textLength="28" x="48" y="785.2389">loop</text><text fill="#000000" font-family="sans-serif" font-size="11" font-weight="bold" lengthAdjust="spacingAndGlyphs" textLength="4" x="121" y="784.1008">[</text><text fill="#000000" font-family="sans-serif" font-size="11" font-weight="bold" lengthAdjust="spacingAndGlyphs" textLength="106" x="125" y="784.1008">5. Superdense time</text><text fill="#000000" font-family="sans-serif" font-size="11" font-weight="bold" lengthAdjust="spacingAndGlyphs" textLength="67" x="234" y="784.1008">(t_event, n)]</text><polygon fill="#2C3E50" points="756.5,809.7539,766.5,813.7539,756.5,817.7539,760.5,813.7539" style="stroke: #2C3E50; stroke-width: 1.0;"/><line style="stroke: #2C3E50; stroke-width: 2.0;" x1="175.5" x2="762.5" y1="813.7539" y2="813.7539"/><text fill="#000000" font-family="sans-serif" font-size="13" font-weight="bold" lengthAdjust="spacingAndGlyphs" textLength="94" x="182.5" y="807.9449">Handle events</text><line style="stroke: #2C3E50; stroke-width: 2.0;" x1="778.5" x2="820.5" y1="845.4599" y2="845.4599"/><line style="stroke: #2C3E50; stroke-width: 2.0;" x1="820.5" x2="820.5" y1="845.4599" y2="858.4599"/><line style="stroke: #2C3E50; stroke-width: 2.0;" x1="779.5" x2="820.5" y1="858.4599" y2="858.4599"/><polygon fill="#2C3E50" points="789.5,854.4599,779.5,858.4599,789.5,862.4599,785.5,858.4599" style="stroke: #2C3E50; stroke-width: 1.0;"/><text fill="#000000" font-family="sans-serif" font-size="13" lengthAdjust="spacingAndGlyphs" textLength="153" x="785.5" y="839.6509">_handle_events_internal()</text><polygon fill="#2C3E50" points="186.5,886.1659,176.5,890.1659,186.5,894.1659,182.5,890.1659" style="stroke: #2C3E50; stroke-width: 1.0;"/><line style="stroke: #2C3E50; stroke-width: 2.0; stroke-dasharray: 2.0,2.0;" x1="180.5" x2="772.5" y1="890.1659" y2="890.1659"/><text fill="#000000" font-family="sans-serif" font-size="13" lengthAdjust="spacingAndGlyphs" textLength="31" x="192.5" y="884.3569">done</text><line style="stroke: #2C3E50; stroke-width: 2.0;" x1="175.5" x2="217.5" y1="921.8719" y2="921.8719"/><line style="stroke: #2C3E50; stroke-width: 2.0;" x1="217.5" x2="217.5" y1="921.8719" y2="934.8719"/><line style="stroke: #2C3E50; stroke-width: 2.0;" x1="176.5" x2="217.5" y1="934.8719" y2="934.8719"/><polygon fill="#2C3E50" points="186.5,930.8719,176.5,934.8719,186.5,938.8719,182.5,934.8719" style="stroke: #2C3E50; stroke-width: 1.0;"/><text fill="#000000" font-family="sans-serif" font-size="13" lengthAdjust="spacingAndGlyphs" textLength="116" x="182.5" y="916.0629">Detect new events?</text><path d="M97.5,949.8719 L158,949.8719 L158,958.8719 L148,968.8719 L95,968.8719 L95,952.3719 " fill="#E8F8F5" style="stroke: #27AE60; stroke-width: 1.0;"/><rect fill="none" height="120.0999" rx="2.5" ry="2.5" style="stroke: #27AE60; stroke-width: 2.0;" width="160" x="95" y="949.8719"/><text fill="#000000" font-family="sans-serif" font-size="13" font-weight="bold" lengthAdjust="spacingAndGlyphs" textLength="18" x="110" y="964.769">alt</text><text fill="#000000" font-family="sans-serif" font-size="11" font-weight="bold" lengthAdjust="spacingAndGlyphs" textLength="73" x="173" y="963.6309">[New events]</text><path d="M140,977.078 L140,999.078 A2.5,2.5 0 0 0 142.5,1001.578 L204.5,1001.578 A2.5,2.5 0 0 0 207,999.078 L207,984.578 L197,974.578 L142.5,974.578 A2.5,2.5 0 0 0 140,977.078 " fill="#FEF5E7" filter="url(#f5i28hqq62v8a)" style="stroke: #E67E22; stroke-width: 1.0;"/><path d="M197,974.578 L197,983.328 A1.25,1.25 0 0 0 198.25,984.578 L207,984.578 L197,974.578 " fill="#FEF5E7" style="stroke: #E67E22; stroke-width: 1.0;"/><text fill="#000000" font-family="sans-serif" font-size="13" lengthAdjust="spacingAndGlyphs" textLength="46" x="146" y="993.475">n ← n+1</text><line style="stroke: #27AE60; stroke-width: 1.0; stroke-dasharray: 2.0,2.0;" x1="95" x2="255" y1="1012.284" y2="1012.284"/><text fill="#000000" font-family="sans-serif" font-size="11" font-weight="bold" lengthAdjust="spacingAndGlyphs" textLength="90" x="100" y="1024.0429">[No new events]</text><path d="M105,1035.7659 L105,1057.7659 A2.5,2.5 0 0 0 107.5,1060.2659 L238.5,1060.2659 A2.5,2.5 0 0 0 241,1057.7659 L241,1043.2659 L231,1033.2659 L107.5,1033.2659 A2.5,2.5 0 0 0 105,1035.7659 " fill="#FEF5E7" filter="url(#f5i28hqq62v8a)" style="stroke: #E67E22; stroke-width: 1.0;"/><path d="M231,1033.2659 L231,1042.0159 A1.25,1.25 0 0 0 232.25,1043.2659 L241,1043.2659 L231,1033.2659 " fill="#FEF5E7" style="stroke: #E67E22; stroke-width: 1.0;"/><text fill="#000000" font-family="sans-serif" font-size="13" lengthAdjust="spacingAndGlyphs" textLength="115" x="111" y="1052.1629">Exit microstep loop</text><line style="stroke: #2C3E50; stroke-width: 2.0;" x1="175.5" x2="217.5" y1="1107.6779" y2="1107.6779"/><line style="stroke: #2C3E50; stroke-width: 2.0;" x1="217.5" x2="217.5" y1="1107.6779" y2="1120.6779"/><line style="stroke: #2C3E50; stroke-width: 2.0;" x1="176.5" x2="217.5" y1="1120.6779" y2="1120.6779"/><polygon fill="#2C3E50" points="186.5,1116.6779,176.5,1120.6779,186.5,1124.6779,182.5,1120.6779" style="stroke: #2C3E50; stroke-width: 1.0;"/><text fill="#000000" font-family="sans-serif" font-size="13" lengthAdjust="spacingAndGlyphs" textLength="91" x="182.5" y="1101.8689">t_left ← t_event</text><path d="M117,1136.1779 L117,1158.1779 A2.5,2.5 0 0 0 119.5,1160.6779 L227.5,1160.6779 A2.5,2.5 0 0 0 230,1158.1779 L230,1143.6779 L220,1133.6779 L119.5,1133.6779 A2.5,2.5 0 0 0 117,1136.1779 " fill="#FEF5E7" filter="url(#f5i28hqq62v8a)" style="stroke: #E67E22; stroke-width: 1.0;"/><path d="M220,1133.6779 L220,1142.4279 A1.25,1.25 0 0 0 221.25,1143.6779 L230,1143.6779 L220,1133.6779 " fill="#FEF5E7" style="stroke: #E67E22; stroke-width: 1.0;"/><text fill="#000000" font-family="sans-serif" font-size="13" font-weight="bold" lengthAdjust="spacingAndGlyphs" textLength="92" x="123" y="1152.5749">Continue loop</text><!--MD5=[a6cff858c07ef16047b75bfaab51ecc0]
@startuml Hybrid_CoSim_Compact


skinparam backgroundColor white
skinparam sequenceArrowThickness 2
skinparam roundcorner 5
skinparam participantPadding 100
skinparam wrapWidth 0
skinparam maxMessageSize 500

skinparam sequence {
    ArrowColor #2C3E50
    ActorBorderColor #2C3E50
    LifeLineBorderColor #2C3E50
    LifeLineBackgroundColor #ECF0F1
    
    ParticipantBorderColor #3498DB
    ParticipantBackgroundColor #EBF5FB
    
    BoxBorderColor #95A5A6
    BoxBackgroundColor #F8F9F9
}

skinparam note {
    BorderColor #E67E22
    BackgroundColor #FEF5E7
}

skinparam sequenceGroup {
    BorderColor #27AE60
    BackgroundColor #E8F8F5
}


title Hybrid Co-Simulation Algorithm

participant "Master" as M
participant "Event\nSources" as ES
participant "Listeners" as L

== Macro-Step [t, t+dt] ==

note over M: t_left = t, t_right = t+dt

loop while t_left < t_right

    M -> ES: **1. Prepare inputs** at t_left
    activate ES
    ES - -> M: ready
    deactivate ES
    
    M -> ES: **2. Detect events** [t_left, t_right]
    activate ES
    ES -> ES: snapshot → trial step → detect crossings → restore
    ES - -> M: crossings found?
    deactivate ES
    
    alt No events
        M -> M: **Gauss-Seidel step**\n[t_left, t_right]
        note over M: t_left = t_right\n**EXIT LOOP**
        
    else Events detected
        M -> M: **3. Bisection:**\nLocate t_event
        
        M -> ES: **4. Step all**\n[t_left, t_event]
        activate ES
        deactivate ES
        M -> L: step to t_event
        activate L
        deactivate L
        
        loop **5. Superdense time** (t_event, n)
            M -> L: **Handle events**
            activate L
            L -> L: _handle_events_internal()
            L - -> M: done
            deactivate L
            
            M -> M: Detect new events?
            
            alt New events
                note over M: n ← n+1
            else No new events
                note over M: Exit microstep loop
            end
        end
        
        M -> M: t_left ← t_event
        note over M: **Continue loop**
    end
end

@enduml

PlantUML version 1.2020.02(Sun Mar 01 11:22:07 CET 2020)
(GPL source distribution)
Java Runtime: OpenJDK Runtime Environment
JVM: OpenJDK 64-Bit Server VM
Java Version: 21.0.9+10-Ubuntu-124.04
Operating System: Linux
Default Encoding: UTF-8
Language: en
Country: US
--></g></svg>