<?xml version="1.0" encoding="UTF-8" standalone="no"?>
<!DOCTYPE svg PUBLIC "-//W3C//DTD SVG 1.1//EN"
 "http://www.w3.org/Graphics/SVG/1.1/DTD/svg11.dtd">
<!-- Generated by graphviz version 2.43.0 (0)
 -->
<!-- Title: SystemBlockDiagram Pages: 1 -->
<svg width="1570pt" height="365pt"
 viewBox="0.00 0.00 1570.40 365.40" xmlns="http://www.w3.org/2000/svg" xmlns:xlink="http://www.w3.org/1999/xlink">
<g id="graph0" class="graph" transform="scale(1 1) rotate(0) translate(7.2 358.2)">
<title>SystemBlockDiagram</title>
<polygon fill="white" stroke="transparent" points="-7.2,7.2 -7.2,-358.2 1563.2,-358.2 1563.2,7.2 -7.2,7.2"/>
<g id="clust1" class="cluster">
<title>cluster_Reference</title>
<path fill="#dbeafe" stroke="#9ca3af" d="M377,-103C377,-103 1154,-103 1154,-103 1160,-103 1166,-109 1166,-115 1166,-115 1166,-175 1166,-175 1166,-181 1160,-187 1154,-187 1154,-187 377,-187 377,-187 371,-187 365,-181 365,-175 365,-175 365,-115 365,-115 365,-109 371,-103 377,-103"/>
<text text-anchor="middle" x="765.5" y="-173.4" font-family="Helvetica,sans-Serif" font-size="12.00">Reference</text>
</g>
<g id="clust2" class="cluster">
<title>cluster_Sensing</title>
<path fill="#dcfce7" stroke="#9ca3af" d="M996.5,-14C996.5,-14 1137.5,-14 1137.5,-14 1143.5,-14 1149.5,-20 1149.5,-26 1149.5,-26 1149.5,-77 1149.5,-77 1149.5,-83 1143.5,-89 1137.5,-89 1137.5,-89 996.5,-89 996.5,-89 990.5,-89 984.5,-83 984.5,-77 984.5,-77 984.5,-26 984.5,-26 984.5,-20 990.5,-14 996.5,-14"/>
<text text-anchor="middle" x="1067" y="-75.4" font-family="Helvetica,sans-Serif" font-size="12.00">Sensing</text>
</g>
<g id="clust3" class="cluster">
<title>cluster_Control</title>
<path fill="#fee2e2" stroke="#9ca3af" d="M1258,-101C1258,-101 1362,-101 1362,-101 1368,-101 1374,-107 1374,-113 1374,-113 1374,-164 1374,-164 1374,-170 1368,-176 1362,-176 1362,-176 1258,-176 1258,-176 1252,-176 1246,-170 1246,-164 1246,-164 1246,-113 1246,-113 1246,-107 1252,-101 1258,-101"/>
<text text-anchor="middle" x="1310" y="-162.4" font-family="Helvetica,sans-Serif" font-size="12.00">Control</text>
</g>
<g id="clust4" class="cluster">
<title>cluster_Actuation</title>
<path fill="#fef3c7" stroke="#9ca3af" d="M1488,-49C1488,-49 1538,-49 1538,-49 1544,-49 1550,-55 1550,-61 1550,-61 1550,-112 1550,-112 1550,-118 1544,-124 1538,-124 1538,-124 1488,-124 1488,-124 1482,-124 1476,-118 1476,-112 1476,-112 1476,-61 1476,-61 1476,-55 1482,-49 1488,-49"/>
<text text-anchor="middle" x="1513" y="-110.4" font-family="Helvetica,sans-Serif" font-size="12.00">Actuation</text>
</g>
<g id="clust5" class="cluster">
<title>cluster_Plant</title>
<path fill="#e5e7eb" stroke="#9ca3af" d="M1271,-8C1271,-8 1349,-8 1349,-8 1355,-8 1361,-14 1361,-20 1361,-20 1361,-71 1361,-71 1361,-77 1355,-83 1349,-83 1349,-83 1271,-83 1271,-83 1265,-83 1259,-77 1259,-71 1259,-71 1259,-20 1259,-20 1259,-14 1265,-8 1271,-8"/>
<text text-anchor="middle" x="1310" y="-69.4" font-family="Helvetica,sans-Serif" font-size="12.00">Plant</text>
</g>
<g id="clust6" class="cluster">
<title>cluster_Legend</title>
<path fill="#ffffff" stroke="#9ca3af" d="M20,-195C20,-195 884,-195 884,-195 890,-195 896,-201 896,-207 896,-207 896,-331 896,-331 896,-337 890,-343 884,-343 884,-343 20,-343 20,-343 14,-343 8,-337 8,-331 8,-331 8,-207 8,-207 8,-201 14,-195 20,-195"/>
<text text-anchor="middle" x="452" y="-329.4" font-family="Helvetica,sans-Serif" font-size="12.00">Legend</text>
</g>
<!-- Reference Trajectory -->
<g id="node1" class="node">
<title>Reference Trajectory</title>
<path fill="white" stroke="#3b82f6" stroke-width="1.5" d="M385,-121C385,-121 519,-121 519,-121 525,-121 531,-127 531,-133 531,-133 531,-145 531,-145 531,-151 525,-157 519,-157 519,-157 385,-157 385,-157 379,-157 373,-151 373,-145 373,-145 373,-133 373,-133 373,-127 379,-121 385,-121"/>
<text text-anchor="middle" x="452" y="-135.3" font-family="Helvetica,sans-Serif" font-size="14.00">Reference Trajectory</text>
</g>
<!-- Reference Angle Sensor -->
<g id="node2" class="node">
<title>Reference Angle Sensor</title>
<path fill="white" stroke="#3b82f6" stroke-width="1.5" d="M988,-121C988,-121 1146,-121 1146,-121 1152,-121 1158,-127 1158,-133 1158,-133 1158,-145 1158,-145 1158,-151 1152,-157 1146,-157 1146,-157 988,-157 988,-157 982,-157 976,-151 976,-145 976,-145 976,-133 976,-133 976,-127 982,-121 988,-121"/>
<text text-anchor="middle" x="1067" y="-135.3" font-family="Helvetica,sans-Serif" font-size="14.00">Reference Angle Sensor</text>
</g>
<!-- Reference Trajectory&#45;&gt;Reference Angle Sensor -->
<g id="edge1" class="edge">
<title>Reference Trajectory&#45;&gt;Reference Angle Sensor</title>
<path fill="none" stroke="#111827" stroke-width="1.2" d="M531.14,-139C531.14,-139 968.92,-139 968.92,-139"/>
<polygon fill="#111827" stroke="#111827" stroke-width="1.2" points="968.92,-141.45 975.92,-139 968.92,-136.55 968.92,-141.45"/>
<text text-anchor="middle" x="932" y="-150" font-family="Helvetica,sans-Serif" font-size="10.00">ref θ(t)</text>
</g>
<!-- PID Controller -->
<g id="node4" class="node">
<title>PID Controller</title>
<path fill="white" stroke="#3b82f6" stroke-width="1.5" d="M1266,-110C1266,-110 1354,-110 1354,-110 1360,-110 1366,-116 1366,-122 1366,-122 1366,-134 1366,-134 1366,-140 1360,-146 1354,-146 1354,-146 1266,-146 1266,-146 1260,-146 1254,-140 1254,-134 1254,-134 1254,-122 1254,-122 1254,-116 1260,-110 1266,-110"/>
<text text-anchor="middle" x="1310" y="-124.3" font-family="Helvetica,sans-Serif" font-size="14.00">PID Controller</text>
</g>
<!-- Reference Angle Sensor&#45;&gt;PID Controller -->
<g id="edge2" class="edge">
<title>Reference Angle Sensor&#45;&gt;PID Controller</title>
<path fill="none" stroke="#111827" stroke-width="1.2" d="M1158.18,-133.5C1158.18,-133.5 1246.99,-133.5 1246.99,-133.5"/>
<polygon fill="#111827" stroke="#111827" stroke-width="1.2" points="1246.99,-135.95 1253.99,-133.5 1246.99,-131.05 1246.99,-135.95"/>
<text text-anchor="middle" x="1206" y="-142" font-family="Helvetica,sans-Serif" font-size="10.00">θ_ref</text>
</g>
<!-- State Angle Sensor -->
<g id="node3" class="node">
<title>State Angle Sensor</title>
<path fill="white" stroke="#3b82f6" stroke-width="1.5" d="M1004.5,-23C1004.5,-23 1129.5,-23 1129.5,-23 1135.5,-23 1141.5,-29 1141.5,-35 1141.5,-35 1141.5,-47 1141.5,-47 1141.5,-53 1135.5,-59 1129.5,-59 1129.5,-59 1004.5,-59 1004.5,-59 998.5,-59 992.5,-53 992.5,-47 992.5,-47 992.5,-35 992.5,-35 992.5,-29 998.5,-23 1004.5,-23"/>
<text text-anchor="middle" x="1067" y="-37.3" font-family="Helvetica,sans-Serif" font-size="14.00">State Angle Sensor</text>
</g>
<!-- State Angle Sensor&#45;&gt;PID Controller -->
<g id="edge4" class="edge">
<title>State Angle Sensor&#45;&gt;PID Controller</title>
<path fill="none" stroke="#111827" stroke-width="1.2" d="M1141.73,-43.17C1196.38,-43.17 1261,-43.17 1261,-43.17 1261,-43.17 1261,-102.59 1261,-102.59"/>
<polygon fill="#111827" stroke="#111827" stroke-width="1.2" points="1258.55,-102.59 1261,-109.59 1263.45,-102.59 1258.55,-102.59"/>
<text text-anchor="middle" x="1206" y="-90" font-family="Helvetica,sans-Serif" font-size="10.00">θ_meas</text>
</g>
<!-- Drive -->
<g id="node5" class="node">
<title>Drive</title>
<path fill="white" stroke="#3b82f6" stroke-width="1.5" d="M1498,-58C1498,-58 1528,-58 1528,-58 1534,-58 1540,-64 1540,-70 1540,-70 1540,-82 1540,-82 1540,-88 1534,-94 1528,-94 1528,-94 1498,-94 1498,-94 1492,-94 1486,-88 1486,-82 1486,-82 1486,-70 1486,-70 1486,-64 1492,-58 1498,-58"/>
<text text-anchor="middle" x="1513" y="-72.3" font-family="Helvetica,sans-Serif" font-size="14.00">Drive</text>
</g>
<!-- PID Controller&#45;&gt;Drive -->
<g id="edge5" class="edge">
<title>PID Controller&#45;&gt;Drive</title>
<path fill="none" stroke="#111827" stroke-width="1.2" d="M1360,-109.88C1360,-95.22 1360,-77 1360,-77 1360,-77 1479,-77 1479,-77"/>
<polygon fill="#111827" stroke="#111827" stroke-width="1.2" points="1479,-79.45 1486,-77 1479,-74.55 1479,-79.45"/>
<text text-anchor="middle" x="1425" y="-131" font-family="Helvetica,sans-Serif" font-size="10.00">u (control)</text>
</g>
<!-- Pendulum -->
<g id="node6" class="node">
<title>Pendulum</title>
<path fill="white" stroke="#3b82f6" stroke-width="1.5" d="M1279,-17C1279,-17 1341,-17 1341,-17 1347,-17 1353,-23 1353,-29 1353,-29 1353,-41 1353,-41 1353,-47 1347,-53 1341,-53 1341,-53 1279,-53 1279,-53 1273,-53 1267,-47 1267,-41 1267,-41 1267,-29 1267,-29 1267,-23 1273,-17 1279,-17"/>
<text text-anchor="middle" x="1310" y="-31.3" font-family="Helvetica,sans-Serif" font-size="14.00">Pendulum</text>
</g>
<!-- Drive&#45;&gt;Pendulum -->
<g id="edge6" class="edge">
<title>Drive&#45;&gt;Pendulum</title>
<path fill="none" stroke="#111827" stroke-width="1.2" d="M1504,-57.77C1504,-49.34 1504,-41.17 1504,-41.17 1504,-41.17 1360.05,-41.17 1360.05,-41.17"/>
<polygon fill="#111827" stroke="#111827" stroke-width="1.2" points="1360.05,-38.72 1353.05,-41.17 1360.05,-43.62 1360.05,-38.72"/>
<text text-anchor="middle" x="1425" y="-79" font-family="Helvetica,sans-Serif" font-size="10.00">τ (torque)</text>
</g>
<!-- Pendulum&#45;&gt;State Angle Sensor -->
<g id="edge3" class="edge">
<title>Pendulum&#45;&gt;State Angle Sensor</title>
<path fill="none" stroke="#111827" stroke-width="1.2" d="M1266.84,-32.83C1266.84,-32.83 1148.7,-32.83 1148.7,-32.83"/>
<polygon fill="#111827" stroke="#111827" stroke-width="1.2" points="1148.7,-30.38 1141.7,-32.83 1148.7,-35.28 1148.7,-30.38"/>
<text text-anchor="middle" x="1206" y="-38" font-family="Helvetica,sans-Serif" font-size="10.00">θ (state)</text>
</g>
<!-- Pendulum&#45;&gt;Drive -->
<g id="edge7" class="edge">
<title>Pendulum&#45;&gt;Drive</title>
<path fill="none" stroke="#111827" stroke-width="1.2" stroke-dasharray="5,2" d="M1353.16,-28.83C1415.14,-28.83 1522,-28.83 1522,-28.83 1522,-28.83 1522,-50.9 1522,-50.9"/>
<polygon fill="#111827" stroke="#111827" stroke-width="1.2" points="1519.55,-50.9 1522,-57.9 1524.45,-50.9 1519.55,-50.9"/>
<text text-anchor="middle" x="1425" y="-27" font-family="Helvetica,sans-Serif" font-size="10.00">ω (feedback)</text>
</g>
<!-- LegendSignals -->
<g id="node7" class="node">
<title>LegendSignals</title>
<path fill="white" stroke="#6b7280" stroke-width="1.5" d="M28,-277C28,-277 876,-277 876,-277 882,-277 888,-283 888,-289 888,-289 888,-301 888,-301 888,-307 882,-313 876,-313 876,-313 28,-313 28,-313 22,-313 16,-307 16,-301 16,-301 16,-289 16,-289 16,-283 22,-277 28,-277"/>
<text text-anchor="middle" x="49.5" y="-291.3" font-family="Helvetica,sans-Serif" font-size="14.00">Signals</text>
<polyline fill="none" stroke="#6b7280" stroke-width="1.5" points="83,-277 83,-313 "/>
<text text-anchor="middle" x="152" y="-291.3" font-family="Helvetica,sans-Serif" font-size="14.00">ref θ(t): reference</text>
<polyline fill="none" stroke="#6b7280" stroke-width="1.5" points="221,-277 221,-313 "/>
<text text-anchor="middle" x="304.5" y="-291.3" font-family="Helvetica,sans-Serif" font-size="14.00">θ_ref: reference angle</text>
<polyline fill="none" stroke="#6b7280" stroke-width="1.5" points="388,-277 388,-313 "/>
<text text-anchor="middle" x="483" y="-291.3" font-family="Helvetica,sans-Serif" font-size="14.00">θ_meas: measured angle</text>
<polyline fill="none" stroke="#6b7280" stroke-width="1.5" points="578,-277 578,-313 "/>
<text text-anchor="middle" x="619" y="-291.3" font-family="Helvetica,sans-Serif" font-size="14.00">u: control</text>
<polyline fill="none" stroke="#6b7280" stroke-width="1.5" points="660,-277 660,-313 "/>
<text text-anchor="middle" x="699.5" y="-291.3" font-family="Helvetica,sans-Serif" font-size="14.00">τ: torque</text>
<polyline fill="none" stroke="#6b7280" stroke-width="1.5" points="739,-277 739,-313 "/>
<text text-anchor="middle" x="813.5" y="-291.3" font-family="Helvetica,sans-Serif" font-size="14.00">ω: angular velocity</text>
</g>
<!-- LegendStyles -->
<g id="node8" class="node">
<title>LegendStyles</title>
<path fill="white" stroke="#6b7280" stroke-width="1.5" d="M292.5,-204C292.5,-204 611.5,-204 611.5,-204 617.5,-204 623.5,-210 623.5,-216 623.5,-216 623.5,-228 623.5,-228 623.5,-234 617.5,-240 611.5,-240 611.5,-240 292.5,-240 292.5,-240 286.5,-240 280.5,-234 280.5,-228 280.5,-228 280.5,-216 280.5,-216 280.5,-210 286.5,-204 292.5,-204"/>
<text text-anchor="middle" x="310" y="-218.3" font-family="Helvetica,sans-Serif" font-size="14.00">Styles</text>
<polyline fill="none" stroke="#6b7280" stroke-width="1.5" points="339.5,-204 339.5,-240 "/>
<text text-anchor="middle" x="411.5" y="-218.3" font-family="Helvetica,sans-Serif" font-size="14.00">solid: forward flow</text>
<polyline fill="none" stroke="#6b7280" stroke-width="1.5" points="483.5,-204 483.5,-240 "/>
<text text-anchor="middle" x="553.5" y="-218.3" font-family="Helvetica,sans-Serif" font-size="14.00">dashed: feedback</text>
</g>
</g>
</svg>
