/COM, Cubit ANSYS CDB export                                            S      1
/NOPR                                                                   S      2
/PREP7                                                                  S      3
TITLE,                                                                  S      4
NUMOFF,NODE,5368                                                        S      5
NUMOFF,ELEM,21005                                                       S      6
NUMOFF,TYPE,1                                                           S      7
!set_flag_to_prevent_offset_when_importing_FE_model.                    S      8
_CDRDOFF=1                                                              S      9
/AUX15                                                                  S     10
IOPTN,YES,DEFA                                                          S     11
/GOPR                                                                   S     12
!_END_OF_START                                                          S     13
1H,,1H;,6HNoname,23HPendulumWallImpact.iges,13HSpatial Corp.,20H3D InterG      1
Op ACIS/IGES,32,38, 6,308,15,6HNoname,1.000,2,2HMM,1,1.000,15H20250910.1G      2
02659,1.0e-06,0.00,12HCubit 2024.3,6HNoname,11,0,15H20250910.102659;    G      3
     128       1       0       0       0       0       0       000010001D      1
     128       0       0       3       0       0       0               0D      2
     124       4       0       0       0       0       0       000010001D      3
     124       0       0       2       0       0       0               0D      4
     100       6       0       0       0       0       3       000010001D      5
     100       0       0       1       0       0       0               0D      6
     502       7       0       0       0       0       0       000010001D      7
     502       0       0       3       1       0       0               0D      8
     124      10       0       0       0       0       0       000010001D      9
     124       0       0       3       0       0       0               0D     10
     100      13       0       0       0       0       9       000010001D     11
     100       0       0       1       0       0       0               0D     12
     110      14       0       0       0       0       0       000010001D     13
     110       0       0       1       0       0       0               0D     14
     110      15       0       0       0       0       0       000010001D     15
     110       0       0       1       0       0       0               0D     16
     124      16       0       0       0       0       0       000010001D     17
     124       0       0       3       0       0       0               0D     18
     100      19       0       0       0       0      17       000010001D     19
     100       0       0       1       0       0       0               0D     20
     124      20       0       0       0       0       0       000010001D     21
     124       0       0       3       0       0       0               0D     22
     100      23       0       0       0       0      21       000010001D     23
     100       0       0       1       0       0       0               0D     24
     110      24       0       0       0       0       0       000010001D     25
     110       0       0       1       0       0       0               0D     26
     504      25       0       0       0       0       0       000010001D     27
     504       0       0       2       1       0       0               0D     28
     508      27       0       0       0       0       0       000010001D     29
     508       0       0       1       1       0       0               0D     30
     510      28       0       0       0       0       0       000010001D     31
     510       0       0       1       1       0       0               0D     32
     128      29       0       0       0       0       0       000010001D     33
     128       0       0       3       0       0       0               0D     34
     508      32       0       0       0       0       0       000010001D     35
     508       0       0       1       1       0       0               0D     36
     510      33       0       0       0       0       0       000010001D     37
     510       0       0       1       1       0       0               0D     38
     128      34       0       0       0       0       0       000010001D     39
     128       0       0      20       0       0       0               0D     40
     508      54       0       0       0       0       0       000010001D     41
     508       0       0       1       1       0       0               0D     42
     510      55       0       0       0       0       0       000010001D     43
     510       0       0       1       1       0       0               0D     44
     128      56       0       0       0       0       0       000010001D     45
     128       0       0      44       0       0       0               0D     46
     508     100       0       0       0       0       0       000010001D     47
     508       0       0       1       1       0       0               0D     48
     510     101       0       0       0       0       0       000010001D     49
     510       0       0       1       1       0       0               0D     50
     514     102       0       0       0       0       0       000010001D     51
     514       0       0       1       1       0       0               0D     52
     186     103       0       0       0       0       0       000000001D     53
     186       0       0       1       0       0       0               0D     54
     128     104       0       0       0       0       0       000010001D     55
     128       0       0      44       0       0       0               0D     56
     110     148       0       0       0       0       0       000010001D     57
     110       0       0       1       0       0       0               0D     58
     502     149       0       0       0       0       0       000010001D     59
     502       0       0       4       1       0       0               0D     60
     110     153       0       0       0       0       0       000010001D     61
     110       0       0       1       0       0       0               0D     62
     124     154       0       0       0       0       0       000010001D     63
     124       0       0       3       0       0       0               0D     64
     100     157       0       0       0       0      63       000010001D     65
     100       0       0       1       0       0       0               0D     66
     110     158       0       0       0       0       0       000010001D     67
     110       0       0       1       0       0       0               0D     68
     124     159       0       0       0       0       0       000010001D     69
     124       0       0       3       0       0       0               0D     70
     100     162       0       0       0       0      69       000010001D     71
     100       0       0       1       0       0       0               0D     72
     124     163       0       0       0       0       0       000010001D     73
     124       0       0       3       0       0       0               0D     74
     100     166       0       0       0       0      73       000010001D     75
     100       0       0       1       0       0       0               0D     76
     124     167       0       0       0       0       0       000010001D     77
     124       0       0       3       0       0       0               0D     78
     100     170       0       0       0       0      77       000010001D     79
     100       0       0       1       0       0       0               0D     80
     124     171       0       0       0       0       0       000010001D     81
     124       0       0       3       0       0       0               0D     82
     100     174       0       0       0       0      81       000010001D     83
     100       0       0       1       0       0       0               0D     84
     124     175       0       0       0       0       0       000010001D     85
     124       0       0       2       0       0       0               0D     86
     100     177       0       0       0       0      85       000010001D     87
     100       0       0       1       0       0       0               0D     88
     504     178       0       0       0       0       0       000010001D     89
     504       0       0       2       1       0       0               0D     90
     508     180       0       0       0       0       0       000010001D     91
     508       0       0       1       1       0       0               0D     92
     510     181       0       0       0       0       0       000010001D     93
     510       0       0       1       1       0       0               0D     94
     128     182       0       0       0       0       0       000010001D     95
     128       0       0       3       0       0       0               0D     96
     508     185       0       0       0       0       0       000010001D     97
     508       0       0       1       1       0       0               0D     98
     510     186       0       0       0       0       0       000010001D     99
     510       0       0       1       1       0       0               0D    100
     128     187       0       0       0       0       0       000010001D    101
     128       0       0      44       0       0       0               0D    102
     508     231       0       0       0       0       0       000010001D    103
     508       0       0       1       1       0       0               0D    104
     510     232       0       0       0       0       0       000010001D    105
     510       0       0       1       1       0       0               0D    106
     128     233       0       0       0       0       0       000010001D    107
     128       0       0      20       0       0       0               0D    108
     508     253       0       0       0       0       0       000010001D    109
     508       0       0       1       1       0       0               0D    110
     510     254       0       0       0       0       0       000010001D    111
     510       0       0       1       1       0       0               0D    112
     128     255       0       0       0       0       0       000010001D    113
     128       0       0       3       0       0       0               0D    114
     508     258       0       0       0       0       0       000010001D    115
     508       0       0       1       1       0       0               0D    116
     510     259       0       0       0       0       0       000010001D    117
     510       0       0       1       1       0       0               0D    118
     514     260       0       0       0       0       0       000010001D    119
     514       0       0       1       1       0       0               0D    120
     186     261       0       0       0       0       0       000000001D    121
     186       0       0       1       0       0       0               0D    122
     128     262       0       0       0       0       0       000010001D    123
     128       0       0       3       0       0       0               0D    124
     110     265       0       0       0       0       0       000010001D    125
     110       0       0       1       0       0       0               0D    126
     502     266       0       0       0       0       0       000010001D    127
     502       0       0       2       1       0       0               0D    128
     110     268       0       0       0       0       0       000010001D    129
     110       0       0       1       0       0       0               0D    130
     110     269       0       0       0       0       0       000010001D    131
     110       0       0       1       0       0       0               0D    132
     110     270       0       0       0       0       0       000010001D    133
     110       0       0       1       0       0       0               0D    134
     110     271       0       0       0       0       0       000010001D    135
     110       0       0       1       0       0       0               0D    136
     110     272       0       0       0       0       0       000010001D    137
     110       0       0       1       0       0       0               0D    138
     110     273       0       0       0       0       0       000010001D    139
     110       0       0       1       0       0       0               0D    140
     110     274       0       0       0       0       0       000010001D    141
     110       0       0       1       0       0       0               0D    142
     110     275       0       0       0       0       0       000010001D    143
     110       0       0       1       0       0       0               0D    144
     110     276       0       0       0       0       0       000010001D    145
     110       0       0       1       0       0       0               0D    146
     110     277       0       0       0       0       0       000010001D    147
     110       0       0       1       0       0       0               0D    148
     110     278       0       0       0       0       0       000010001D    149
     110       0       0       1       0       0       0               0D    150
     504     279       0       0       0       0       0       000010001D    151
     504       0       0       4       1       0       0               0D    152
     508     283       0       0       0       0       0       000010001D    153
     508       0       0       1       1       0       0               0D    154
     510     284       0       0       0       0       0       000010001D    155
     510       0       0       1       1       0       0               0D    156
     128     285       0       0       0       0       0       000010001D    157
     128       0       0       3       0       0       0               0D    158
     508     288       0       0       0       0       0       000010001D    159
     508       0       0       1       1       0       0               0D    160
     510     289       0       0       0       0       0       000010001D    161
     510       0       0       1       1       0       0               0D    162
     128     290       0       0       0       0       0       000010001D    163
     128       0       0       3       0       0       0               0D    164
     508     293       0       0       0       0       0       000010001D    165
     508       0       0       1       1       0       0               0D    166
     510     294       0       0       0       0       0       000010001D    167
     510       0       0       1       1       0       0               0D    168
     128     295       0       0       0       0       0       000010001D    169
     128       0       0       3       0       0       0               0D    170
     508     298       0       0       0       0       0       000010001D    171
     508       0       0       1       1       0       0               0D    172
     510     299       0       0       0       0       0       000010001D    173
     510       0       0       1       1       0       0               0D    174
     128     300       0       0       0       0       0       000010001D    175
     128       0       0       3       0       0       0               0D    176
     508     303       0       0       0       0       0       000010001D    177
     508       0       0       1       1       0       0               0D    178
     510     304       0       0       0       0       0       000010001D    179
     510       0       0       1       1       0       0               0D    180
     128     305       0       0       0       0       0       000010001D    181
     128       0       0       3       0       0       0               0D    182
     508     308       0       0       0       0       0       000010001D    183
     508       0       0       1       1       0       0               0D    184
     510     309       0       0       0       0       0       000010001D    185
     510       0       0       1       1       0       0               0D    186
     514     310       0       0       0       0       0       000010001D    187
     514       0       0       1       1       0       0               0D    188
     186     311       0       0       0       0       0       000000001D    189
     186       0       0       1       0       0       0               0D    190
128,1,1,1,1,0,0,1,0,0,0.,0.,0.44,0.44,0.,0.,0.08,0.08,1.,1.,1.,        1P      1
1.,0.04,0.31112698372208,-0.31112698372208,0.04,0.,0.,-0.04,           1P      2
0.31112698372208,-0.31112698372208,-0.04,0.,0.,0.,0.44,0.,0.08;        1P      3
124,0.,-1.,0.,0.,0.70710678118655,0.,-0.70710678118655,0.,             3P      4
0.70710678118655,0.,0.70710678118655,0.;                               3P      5
100,0.,0.,0.,0.,-0.01,0.,0.01;                                         5P      6
502,5,-0.01,0.25545658459936,-0.25545658459936,0.,                     7P      7
0.31112698372208,-0.31112698372208,0.01,-0.,-0.,0.01,                  7P      8
0.25545658459936,-0.25545658459936,-0.01,0.,0.;                        7P      9
124,0.,1.,0.,0.,0.70710678118655,-0.,0.70710678118655,                 9P     10
0.25545658459936,0.70710678118655,-0.,-0.70710678118655,               9P     11
-0.25545658459936;                                                     9P     12
100,0.,0.,0.,0.,-0.01,0.,0.01;                                        11P     13
110,-0.01,0.,0.,0.01,-0.,-0.;                                         13P     14
110,-0.01,0.25545658459936,-0.25545658459936,-0.01,-0.,0.;            15P     15
124,0.,1.,0.,0.,-0.70710678118655,-0.,0.70710678118655,               17P     16
0.28284271247462,0.70710678118655,-0.,0.70710678118655,               17P     17
-0.28284271247462;                                                    17P     18
100,0.,0.,0.,-0.04,0.,0.03872983346207,-0.01;                         19P     19
124,0.,1.,0.,0.,-0.70710678118655,-0.,0.70710678118655,               21P     20
0.28284271247462,0.70710678118655,-0.,0.70710678118655,               21P     21
-0.28284271247462;                                                    21P     22
100,0.,0.,0.,0.03872983346207,0.01,-0.04,0.;                          23P     23
110,0.01,-0.,0.,0.01,0.25545658459936,-0.25545658459936;              25P     24
504,7,5,7,3,7,5,11,7,1,7,4,13,7,5,7,3,15,7,1,7,5,19,7,2,7,1,23,       27P     25
7,4,7,2,25,7,3,7,4;                                                   27P     26
508,5,0,27,7,0,0,0,27,3,0,0,0,27,4,0,0,0,27,5,0,0,0,27,6,0,0;         29P     27
510,1,1,1,29;                                                         31P     28
128,1,1,1,1,0,0,1,0,0,0.,0.,0.01,0.01,0.,0.,0.02,0.02,1.,1.,1.,       33P     29
1.,0.01,-0.,-0.,0.01,0.00707106781187,0.00707106781187,-0.01,         33P     30
-0.,-0.,-0.01,0.00707106781187,0.00707106781187,0.,0.01,0.,0.02;      33P     31
508,2,0,27,3,1,0,0,27,1,1,0;                                          35P     32
510,33,1,1,35;                                                        37P     33
128,1,8,1,2,0,1,0,0,1,-20.5,-20.5,16.62701665379258,                  39P     34
16.62701665379258,0.,0.,0.,0.01570796326795,0.01570796326795,         39P     35
0.0314159265359,0.0314159265359,0.04712388980385,                     39P     36
0.04712388980385,0.0628318530718,0.0628318530718,                     39P     37
0.0628318530718,1.,1.,0.70710678118655,0.70710678118655,1.,1.,        39P     38
0.70710678118655,0.70710678118655,1.,1.,0.70710678118655,             39P     39
0.70710678118655,1.,1.,0.70710678118655,0.70710678118655,1.,1.,       39P     40
0.,-0.0106066017178,-0.00353553390593,0.,0.25192105069343,            39P     41
-0.26606318631716,0.01,-0.0106066017178,-0.00353553390593,0.01,       39P     42
0.25192105069343,-0.26606318631716,0.01,-0.00353553390593,            39P     43
0.00353553390593,0.01,0.25899211850529,-0.25899211850529,0.01,        39P     44
0.00353553390593,0.0106066017178,0.01,0.26606318631716,               39P     45
-0.25192105069343,-0.,0.00353553390593,0.0106066017178,-0.,           39P     46
0.26606318631716,-0.25192105069343,-0.01,0.00353553390593,            39P     47
0.0106066017178,-0.01,0.26606318631716,-0.25192105069343,-0.01,       39P     48
-0.00353553390593,0.00353553390593,-0.01,0.25899211850529,            39P     49
-0.25899211850529,-0.01,-0.0106066017178,-0.00353553390593,           39P     50
-0.01,0.25192105069343,-0.26606318631716,0.,-0.0106066017178,         39P     51
-0.00353553390593,0.,0.25192105069343,-0.26606318631716,-20.5,        39P     52
16.62701665379258,0.,0.0628318530718;                                 39P     53
508,4,0,27,4,1,0,0,27,1,0,0,0,27,7,1,0,0,27,2,0,0;                    41P     54
510,39,1,1,41;                                                        43P     55
128,4,8,2,2,0,1,0,0,1,-1.5707963267949,-1.5707963267949,              45P     56
-1.5707963267949,-0.,-0.,1.5707963267949,1.5707963267949,             45P     57
1.5707963267949,0.,0.,0.,1.5707963267949,1.5707963267949,             45P     58
3.14159265358979,3.14159265358979,4.71238898038469,                   45P     59
4.71238898038469,6.28318530717959,6.28318530717959,                   45P     60
6.28318530717959,1.,0.70710678118654,1.,0.70710678118655,1.,          45P     61
0.70710678118655,0.5,0.70710678118655,0.5,0.70710678118655,1.,        45P     62
0.70710678118654,1.,0.70710678118655,1.,0.70710678118655,0.5,         45P     63
0.70710678118655,0.5,0.70710678118655,1.,0.70710678118654,1.,         45P     64
0.70710678118655,1.,0.70710678118655,0.5,0.70710678118655,0.5,        45P     65
0.70710678118655,1.,0.70710678118654,1.,0.70710678118655,1.,          45P     66
0.70710678118655,0.5,0.70710678118655,0.5,0.70710678118655,1.,        45P     67
0.70710678118654,1.,0.70710678118655,1.,0.,0.31112698372208,          45P     68
-0.31112698372208,-0.,0.28284271247462,-0.33941125496954,-0.,         45P     69
0.25455844122716,-0.31112698372208,-0.,0.2262741699797,               45P     70
-0.28284271247462,0.,0.25455844122716,-0.25455844122716,0.,           45P     71
0.31112698372208,-0.31112698372208,-0.04,0.28284271247462,            45P     72
-0.33941125496954,-0.04,0.25455844122716,-0.31112698372208,           45P     73
-0.04,0.2262741699797,-0.28284271247462,0.,0.25455844122716,          45P     74
-0.25455844122716,0.,0.31112698372208,-0.31112698372208,-0.04,        45P     75
0.31112698372208,-0.31112698372208,-0.04,0.28284271247462,            45P     76
-0.28284271247462,-0.04,0.25455844122716,-0.25455844122716,0.,        45P     77
0.25455844122716,-0.25455844122716,0.,0.31112698372208,               45P     78
-0.31112698372208,-0.04,0.33941125496954,-0.28284271247462,           45P     79
-0.04,0.31112698372208,-0.25455844122716,-0.04,0.28284271247462,      45P     80
-0.2262741699797,0.,0.25455844122716,-0.25455844122716,0.,            45P     81
0.31112698372208,-0.31112698372208,0.,0.33941125496954,               45P     82
-0.28284271247462,0.,0.31112698372208,-0.25455844122716,0.,           45P     83
0.28284271247462,-0.2262741699797,0.,0.25455844122716,                45P     84
-0.25455844122716,0.,0.31112698372208,-0.31112698372208,0.04,         45P     85
0.33941125496954,-0.28284271247462,0.04,0.31112698372208,             45P     86
-0.25455844122716,0.04,0.28284271247462,-0.2262741699797,0.,          45P     87
0.25455844122716,-0.25455844122716,0.,0.31112698372208,               45P     88
-0.31112698372208,0.04,0.31112698372208,-0.31112698372208,0.04,       45P     89
0.28284271247462,-0.28284271247462,0.04,0.25455844122716,             45P     90
-0.25455844122716,0.,0.25455844122716,-0.25455844122716,0.,           45P     91
0.31112698372208,-0.31112698372208,0.04,0.28284271247462,             45P     92
-0.33941125496954,0.04,0.25455844122716,-0.31112698372208,0.04,       45P     93
0.2262741699797,-0.28284271247462,0.,0.25455844122716,                45P     94
-0.25455844122716,0.,0.31112698372208,-0.31112698372208,-0.,          45P     95
0.28284271247462,-0.33941125496954,-0.,0.25455844122716,              45P     96
-0.31112698372208,-0.,0.2262741699797,-0.28284271247462,0.,           45P     97
0.25455844122716,-0.25455844122716,-1.5707963267949,                  45P     98
1.5707963267949,0.,6.28318530717959;                                  45P     99
508,3,0,27,6,1,0,0,27,5,1,0,0,27,2,1,0;                               47P    100
510,45,1,1,47;                                                        49P    101
514,4,31,1,37,1,43,1,49,1;                                            51P    102
186,51,1,0;                                                           53P    103
128,4,8,2,2,0,1,0,0,1,-1.5707963267949,-1.5707963267949,              55P    104
-1.5707963267949,-0.,-0.,1.5707963267949,1.5707963267949,             55P    105
1.5707963267949,0.,0.,0.,1.5707963267949,1.5707963267949,             55P    106
3.14159265358979,3.14159265358979,4.71238898038469,                   55P    107
4.71238898038469,6.28318530717959,6.28318530717959,                   55P    108
6.28318530717959,1.,0.70710678118654,1.,0.70710678118655,1.,          55P    109
0.70710678118655,0.5,0.70710678118655,0.5,0.70710678118655,1.,        55P    110
0.70710678118654,1.,0.70710678118655,1.,0.70710678118655,0.5,         55P    111
0.70710678118655,0.5,0.70710678118655,1.,0.70710678118654,1.,         55P    112
0.70710678118655,1.,0.70710678118655,0.5,0.70710678118655,0.5,        55P    113
0.70710678118655,1.,0.70710678118654,1.,0.70710678118655,1.,          55P    114
0.70710678118655,0.5,0.70710678118655,0.5,0.70710678118655,1.,        55P    115
0.70710678118654,1.,0.70710678118655,1.,0.,0.31112698372208,          55P    116
-0.31112698372208,-0.,0.28284271247462,-0.33941125496954,-0.,         55P    117
0.25455844122716,-0.31112698372208,-0.,0.2262741699797,               55P    118
-0.28284271247462,0.,0.25455844122716,-0.25455844122716,0.,           55P    119
0.31112698372208,-0.31112698372208,-0.04,0.28284271247462,            55P    120
-0.33941125496954,-0.04,0.25455844122716,-0.31112698372208,           55P    121
-0.04,0.2262741699797,-0.28284271247462,0.,0.25455844122716,          55P    122
-0.25455844122716,0.,0.31112698372208,-0.31112698372208,-0.04,        55P    123
0.31112698372208,-0.31112698372208,-0.04,0.28284271247462,            55P    124
-0.28284271247462,-0.04,0.25455844122716,-0.25455844122716,0.,        55P    125
0.25455844122716,-0.25455844122716,0.,0.31112698372208,               55P    126
-0.31112698372208,-0.04,0.33941125496954,-0.28284271247462,           55P    127
-0.04,0.31112698372208,-0.25455844122716,-0.04,0.28284271247462,      55P    128
-0.2262741699797,0.,0.25455844122716,-0.25455844122716,0.,            55P    129
0.31112698372208,-0.31112698372208,0.,0.33941125496954,               55P    130
-0.28284271247462,0.,0.31112698372208,-0.25455844122716,0.,           55P    131
0.28284271247462,-0.2262741699797,0.,0.25455844122716,                55P    132
-0.25455844122716,0.,0.31112698372208,-0.31112698372208,0.04,         55P    133
0.33941125496954,-0.28284271247462,0.04,0.31112698372208,             55P    134
-0.25455844122716,0.04,0.28284271247462,-0.2262741699797,0.,          55P    135
0.25455844122716,-0.25455844122716,0.,0.31112698372208,               55P    136
-0.31112698372208,0.04,0.31112698372208,-0.31112698372208,0.04,       55P    137
0.28284271247462,-0.28284271247462,0.04,0.25455844122716,             55P    138
-0.25455844122716,0.,0.25455844122716,-0.25455844122716,0.,           55P    139
0.31112698372208,-0.31112698372208,0.04,0.28284271247462,             55P    140
-0.33941125496954,0.04,0.25455844122716,-0.31112698372208,0.04,       55P    141
0.2262741699797,-0.28284271247462,0.,0.25455844122716,                55P    142
-0.25455844122716,0.,0.31112698372208,-0.31112698372208,-0.,          55P    143
0.28284271247462,-0.33941125496954,-0.,0.25455844122716,              55P    144
-0.31112698372208,-0.,0.2262741699797,-0.28284271247462,0.,           55P    145
0.25455844122716,-0.25455844122716,-1.5707963267949,                  55P    146
1.5707963267949,0.,6.28318530717959;                                  55P    147
110,-0.01,0.25545658459936,-0.25545658459936,-0.01,-0.,0.;            57P    148
502,6,-0.01,0.,0.,0.,0.2483855167875,-0.26252765241123,0.01,-0.,      59P    149
-0.,0.01,0.25545658459936,-0.25545658459936,-0.01,                    59P    150
0.25545658459936,-0.25545658459936,0.,0.31112698372208,               59P    151
-0.31112698372208;                                                    59P    152
110,0.01,-0.,0.,0.01,0.25545658459936,-0.25545658459936;              61P    153
124,0.,1.,0.,0.,-0.70710678118655,-0.,0.70710678118655,               63P    154
0.28284271247462,0.70710678118655,-0.,0.70710678118655,               63P    155
-0.28284271247462;                                                    63P    156
100,0.,0.,0.,0.03872983346207,0.01,-0.04,0.;                          65P    157
110,-0.01,0.,0.,0.01,-0.,-0.;                                         67P    158
124,0.,0.,1.,0.,-0.70710678118655,0.70710678118655,0.,                69P    159
0.28284271247462,-0.70710678118655,-0.70710678118655,0.,              69P    160
-0.28284271247462;                                                    69P    161
100,0.,0.,0.,0.01,-0.03872983346207,0.,0.04;                          71P    162
124,0.,1.,0.,0.,0.70710678118655,-0.,0.70710678118655,                73P    163
0.25545658459936,0.70710678118655,-0.,-0.70710678118655,              73P    164
-0.25545658459936;                                                    73P    165
100,0.,0.,0.,-0.01,0.,-0.,-0.01;                                      75P    166
124,0.,1.,0.,0.,0.70710678118655,-0.,0.70710678118655,                77P    167
0.25545658459936,0.70710678118655,-0.,-0.70710678118655,              77P    168
-0.25545658459936;                                                    77P    169
100,0.,0.,0.,0.,0.01,-0.01,0.;                                        79P    170
124,0.,1.,0.,0.,-0.70710678118655,-0.,0.70710678118655,               81P    171
0.28284271247462,0.70710678118655,-0.,0.70710678118655,               81P    172
-0.28284271247462;                                                    81P    173
100,0.,0.,0.,-0.04,0.,0.03872983346207,-0.01;                         83P    174
124,0.,-1.,0.,0.,0.70710678118655,0.,-0.70710678118655,0.,            85P    175
0.70710678118655,0.,0.70710678118655,0.;                              85P    176
100,0.,0.,0.,0.,0.01,-0.,-0.01;                                       87P    177
504,9,57,59,5,59,1,61,59,3,59,4,65,59,4,59,6,67,59,1,59,3,71,59,      89P    178
2,59,6,75,59,2,59,5,79,59,4,59,2,83,59,6,59,5,87,59,1,59,3;           89P    179
508,3,0,89,5,0,0,0,89,6,1,0,0,89,8,0,0;                               91P    180
510,55,1,1,91;                                                        93P    181
128,1,1,1,1,0,0,1,0,0,0.,0.,0.44,0.44,0.,0.,0.08,0.08,1.,1.,1.,       95P    182
1.,0.04,0.31112698372208,-0.31112698372208,0.04,0.,0.,-0.04,          95P    183
0.31112698372208,-0.31112698372208,-0.04,0.,0.,0.,0.44,0.,0.08;       95P    184
508,5,0,89,2,1,0,0,89,3,1,0,0,89,8,1,0,0,89,1,1,0,0,89,4,1,0;         97P    185
510,95,1,1,97;                                                        99P    186
128,4,8,2,2,0,1,0,0,1,-1.5707963267949,-1.5707963267949,             101P    187
-1.5707963267949,-0.,-0.,1.5707963267949,1.5707963267949,            101P    188
1.5707963267949,0.,0.,0.,1.5707963267949,1.5707963267949,            101P    189
3.14159265358979,3.14159265358979,4.71238898038469,                  101P    190
4.71238898038469,6.28318530717959,6.28318530717959,                  101P    191
6.28318530717959,1.,0.70710678118654,1.,0.70710678118655,1.,         101P    192
0.70710678118655,0.5,0.70710678118655,0.5,0.70710678118655,1.,       101P    193
0.70710678118654,1.,0.70710678118655,1.,0.70710678118655,0.5,        101P    194
0.70710678118655,0.5,0.70710678118655,1.,0.70710678118654,1.,        101P    195
0.70710678118655,1.,0.70710678118655,0.5,0.70710678118655,0.5,       101P    196
0.70710678118655,1.,0.70710678118654,1.,0.70710678118655,1.,         101P    197
0.70710678118655,0.5,0.70710678118655,0.5,0.70710678118655,1.,       101P    198
0.70710678118654,1.,0.70710678118655,1.,0.,0.31112698372208,         101P    199
-0.31112698372208,-0.,0.28284271247462,-0.33941125496954,-0.,        101P    200
0.25455844122716,-0.31112698372208,-0.,0.2262741699797,              101P    201
-0.28284271247462,0.,0.25455844122716,-0.25455844122716,0.,          101P    202
0.31112698372208,-0.31112698372208,-0.04,0.28284271247462,           101P    203
-0.33941125496954,-0.04,0.25455844122716,-0.31112698372208,          101P    204
-0.04,0.2262741699797,-0.28284271247462,0.,0.25455844122716,         101P    205
-0.25455844122716,0.,0.31112698372208,-0.31112698372208,-0.04,       101P    206
0.31112698372208,-0.31112698372208,-0.04,0.28284271247462,           101P    207
-0.28284271247462,-0.04,0.25455844122716,-0.25455844122716,0.,       101P    208
0.25455844122716,-0.25455844122716,0.,0.31112698372208,              101P    209
-0.31112698372208,-0.04,0.33941125496954,-0.28284271247462,          101P    210
-0.04,0.31112698372208,-0.25455844122716,-0.04,0.28284271247462,     101P    211
-0.2262741699797,0.,0.25455844122716,-0.25455844122716,0.,           101P    212
0.31112698372208,-0.31112698372208,0.,0.33941125496954,              101P    213
-0.28284271247462,0.,0.31112698372208,-0.25455844122716,0.,          101P    214
0.28284271247462,-0.2262741699797,0.,0.25455844122716,               101P    215
-0.25455844122716,0.,0.31112698372208,-0.31112698372208,0.04,        101P    216
0.33941125496954,-0.28284271247462,0.04,0.31112698372208,            101P    217
-0.25455844122716,0.04,0.28284271247462,-0.2262741699797,0.,         101P    218
0.25455844122716,-0.25455844122716,0.,0.31112698372208,              101P    219
-0.31112698372208,0.04,0.31112698372208,-0.31112698372208,0.04,      101P    220
0.28284271247462,-0.28284271247462,0.04,0.25455844122716,            101P    221
-0.25455844122716,0.,0.25455844122716,-0.25455844122716,0.,          101P    222
0.31112698372208,-0.31112698372208,0.04,0.28284271247462,            101P    223
-0.33941125496954,0.04,0.25455844122716,-0.31112698372208,0.04,      101P    224
0.2262741699797,-0.28284271247462,0.,0.25455844122716,               101P    225
-0.25455844122716,0.,0.31112698372208,-0.31112698372208,-0.,         101P    226
0.28284271247462,-0.33941125496954,-0.,0.25455844122716,             101P    227
-0.31112698372208,-0.,0.2262741699797,-0.28284271247462,0.,          101P    228
0.25455844122716,-0.25455844122716,-1.5707963267949,                 101P    229
1.5707963267949,0.,6.28318530717959;                                 101P    230
508,3,0,89,5,1,0,0,89,3,0,0,0,89,7,1,0;                              103P    231
510,101,1,1,103;                                                     105P    232
128,1,8,1,2,0,1,0,0,1,-20.5,-20.5,16.62701665379258,                 107P    233
16.62701665379258,0.,0.,0.,0.01570796326795,0.01570796326795,        107P    234
0.0314159265359,0.0314159265359,0.04712388980385,                    107P    235
0.04712388980385,0.0628318530718,0.0628318530718,                    107P    236
0.0628318530718,1.,1.,0.70710678118655,0.70710678118655,1.,1.,       107P    237
0.70710678118655,0.70710678118655,1.,1.,0.70710678118655,            107P    238
0.70710678118655,1.,1.,0.70710678118655,0.70710678118655,1.,1.,      107P    239
0.,-0.0106066017178,-0.00353553390593,0.,0.25192105069343,           107P    240
-0.26606318631716,0.01,-0.0106066017178,-0.00353553390593,0.01,      107P    241
0.25192105069343,-0.26606318631716,0.01,-0.00353553390593,           107P    242
0.00353553390593,0.01,0.25899211850529,-0.25899211850529,0.01,       107P    243
0.00353553390593,0.0106066017178,0.01,0.26606318631716,              107P    244
-0.25192105069343,-0.,0.00353553390593,0.0106066017178,-0.,          107P    245
0.26606318631716,-0.25192105069343,-0.01,0.00353553390593,           107P    246
0.0106066017178,-0.01,0.26606318631716,-0.25192105069343,-0.01,      107P    247
-0.00353553390593,0.00353553390593,-0.01,0.25899211850529,           107P    248
-0.25899211850529,-0.01,-0.0106066017178,-0.00353553390593,          107P    249
-0.01,0.25192105069343,-0.26606318631716,0.,-0.0106066017178,        107P    250
-0.00353553390593,0.,0.25192105069343,-0.26606318631716,-20.5,       107P    251
16.62701665379258,0.,0.0628318530718;                                107P    252
508,5,0,89,1,0,0,0,89,6,0,0,0,89,7,0,0,0,89,2,0,0,0,89,9,0,0;        109P    253
510,107,1,1,109;                                                     111P    254
128,1,1,1,1,0,0,1,0,0,0.,0.,0.01,0.01,0.,0.,0.02,0.02,1.,1.,1.,      113P    255
1.,0.01,-0.00707106781187,-0.00707106781187,0.01,0.,0.,-0.01,        113P    256
-0.00707106781187,-0.00707106781187,-0.01,0.,0.,0.,0.01,0.,0.02;     113P    257
508,2,0,89,4,0,0,0,89,9,1,0;                                         115P    258
510,113,1,1,115;                                                     117P    259
514,5,93,1,99,0,105,1,111,1,117,1;                                   119P    260
186,119,1,0;                                                         121P    261
128,1,1,1,1,0,0,1,0,0,0.,0.,0.2,0.2,0.,0.,0.2,0.2,1.,1.,1.,1.,       123P    262
-0.1,-0.5,0.05,0.1,-0.5,0.05,-0.1,-0.3,0.05,0.1,-0.3,0.05,0.,        123P    263
0.2,0.,0.2;                                                          123P    264
110,-0.1,-0.3,0.05,-0.1,-0.5,0.05;                                   125P    265
502,8,0.1,-0.3,0.05,0.1,-0.3,0.04,-0.1,-0.3,0.05,-0.1,-0.5,0.05,     127P    266
0.1,-0.5,0.04,-0.1,-0.5,0.04,0.1,-0.5,0.05,-0.1,-0.3,0.04;           127P    267
110,-0.1,-0.5,0.04,-0.1,-0.3,0.04;                                   129P    268
110,0.1,-0.5,0.05,0.1,-0.3,0.05;                                     131P    269
110,-0.1,-0.3,0.04,0.1,-0.3,0.04;                                    133P    270
110,0.1,-0.3,0.04,0.1,-0.5,0.04;                                     135P    271
110,0.1,-0.5,0.05,0.1,-0.5,0.04;                                     137P    272
110,0.1,-0.3,0.05,0.1,-0.3,0.04;                                     139P    273
110,-0.1,-0.5,0.05,-0.1,-0.5,0.04;                                   141P    274
110,0.1,-0.3,0.05,-0.1,-0.3,0.05;                                    143P    275
110,-0.1,-0.3,0.05,-0.1,-0.3,0.04;                                   145P    276
110,-0.1,-0.5,0.05,0.1,-0.5,0.05;                                    147P    277
110,0.1,-0.5,0.04,-0.1,-0.5,0.04;                                    149P    278
504,12,125,127,3,127,4,129,127,6,127,8,131,127,7,127,1,133,127,      151P    279
8,127,2,135,127,2,127,5,137,127,7,127,5,139,127,1,127,2,141,127,     151P    280
4,127,6,143,127,1,127,3,145,127,3,127,8,147,127,4,127,7,149,127,     151P    281
5,127,6;                                                             151P    282
508,4,0,151,3,1,0,0,151,9,1,0,0,151,1,1,0,0,151,11,1,0;              153P    283
510,123,1,1,153;                                                     155P    284
128,1,1,1,1,0,0,1,0,0,0.,0.,0.2,0.2,0.,0.,0.2,0.2,1.,1.,1.,1.,       157P    285
-0.1,-0.5,0.04,0.1,-0.5,0.04,-0.1,-0.3,0.04,0.1,-0.3,0.04,0.,        157P    286
0.2,0.,0.2;                                                          157P    287
508,4,0,151,5,1,0,0,151,12,1,0,0,151,2,1,0,0,151,4,1,0;              159P    288
510,157,1,1,159;                                                     161P    289
128,1,1,1,1,0,0,1,0,0,0.,0.,0.01,0.01,0.,0.,0.2,0.2,1.,1.,1.,1.,     163P    290
-0.1,-0.5,0.04,-0.1,-0.5,0.05,0.1,-0.5,0.04,0.1,-0.5,0.05,0.,        163P    291
0.01,0.,0.2;                                                         163P    292
508,4,0,151,8,1,0,0,151,12,0,0,0,151,6,0,0,0,151,11,0,0;             165P    293
510,163,1,1,165;                                                     167P    294
128,1,1,1,1,0,0,1,0,0,0.,0.,0.01,0.01,0.,0.,0.2,0.2,1.,1.,1.,1.,     169P    295
-0.1,-0.5,0.05,-0.1,-0.5,0.04,-0.1,-0.3,0.05,-0.1,-0.3,0.04,0.,      169P    296
0.01,0.,0.2;                                                         169P    297
508,4,0,151,10,1,0,0,151,2,0,0,0,151,8,0,0,0,151,1,0,0;              171P    298
510,169,1,1,171;                                                     173P    299
128,1,1,1,1,0,0,1,0,0,0.,0.,0.01,0.01,0.,0.,0.2,0.2,1.,1.,1.,1.,     175P    300
-0.1,-0.3,0.05,-0.1,-0.3,0.04,0.1,-0.3,0.05,0.1,-0.3,0.04,0.,        175P    301
0.01,0.,0.2;                                                         175P    302
508,4,0,151,7,1,0,0,151,4,0,0,0,151,10,0,0,0,151,9,0,0;              177P    303
510,175,1,1,177;                                                     179P    304
128,1,1,1,1,0,0,1,0,0,0.,0.,0.01,0.01,0.,0.,0.2,0.2,1.,1.,1.,1.,     181P    305
0.1,-0.5,0.04,0.1,-0.5,0.05,0.1,-0.3,0.04,0.1,-0.3,0.05,0.,0.01,     181P    306
0.,0.2;                                                              181P    307
508,4,0,151,6,1,0,0,151,5,0,0,0,151,7,0,0,0,151,3,0,0;               183P    308
510,181,1,1,183;                                                     185P    309
514,6,155,1,161,0,167,0,173,0,179,0,185,0;                           187P    310
186,187,1,0;                                                         189P    311
S     13G      3D    190P    311                                        T      1
