<?xml version="1.0" encoding="UTF-8" standalone="no"?>
<!DOCTYPE svg PUBLIC "-//W3C//DTD SVG 1.1//EN"
 "http://www.w3.org/Graphics/SVG/1.1/DTD/svg11.dtd">
<!-- Generated by graphviz version 2.43.0 (0)
 -->
<!-- Title: %3 Pages: 1 -->
<svg width="850pt" height="518pt"
 viewBox="14.40 14.40 835.40 503.40" xmlns="http://www.w3.org/2000/svg" xmlns:xlink="http://www.w3.org/1999/xlink">
<g id="graph0" class="graph" transform="scale(1 1) rotate(0) translate(50.4 467.4)">
<title>%3</title>
<polygon fill="white" stroke="transparent" points="-36,36 -36,-453 785,-453 785,36 -36,36"/>
<text text-anchor="middle" x="374.5" y="-398.6" font-family="Helvetica,sans-Serif" font-weight="bold" font-size="18.00">Algebraic Loop System</text>
<g id="clust1" class="cluster">
<title>cluster_legend</title>
<path fill="#f9fafb" stroke="#d1d5db" stroke-width="1.5" d="M27,-8C27,-8 131,-8 131,-8 137,-8 143,-14 143,-20 143,-20 143,-149 143,-149 143,-155 137,-161 131,-161 131,-161 27,-161 27,-161 21,-161 15,-155 15,-149 15,-149 15,-20 15,-20 15,-14 21,-8 27,-8"/>
<text text-anchor="middle" x="79" y="-149" font-family="Helvetica,sans-Serif" font-weight="bold" font-size="10.00">Legend</text>
</g>
<g id="clust2" class="cluster">
<title>cluster_Input</title>
<path fill="#d0e3e3" stroke="#d1d5db" stroke-width="2" d="M20,-179C20,-179 138,-179 138,-179 144,-179 150,-185 150,-191 150,-191 150,-269 150,-269 150,-275 144,-281 138,-281 138,-281 20,-281 20,-281 14,-281 8,-275 8,-269 8,-269 8,-191 8,-191 8,-185 14,-179 20,-179"/>
<text text-anchor="middle" x="79" y="-268.2" font-family="Helvetica,sans-Serif" font-weight="bold" font-size="11.00">Input</text>
</g>
<g id="clust3" class="cluster">
<title>cluster_Feedback</title>
<path fill="#d0e4d7" stroke="#d1d5db" stroke-width="2" d="M196,-180C196,-180 335,-180 335,-180 341,-180 347,-186 347,-192 347,-192 347,-286 347,-286 347,-292 341,-298 335,-298 335,-298 196,-298 196,-298 190,-298 184,-292 184,-286 184,-286 184,-192 184,-192 184,-186 190,-180 196,-180"/>
<text text-anchor="middle" x="265.5" y="-285.2" font-family="Helvetica,sans-Serif" font-weight="bold" font-size="11.00">Feedback</text>
</g>
<g id="clust4" class="cluster">
<title>cluster_Algebraic Loop</title>
<path fill="#bccce0" stroke="#d1d5db" stroke-width="2" d="M393,-245C393,-245 531,-245 531,-245 537,-245 543,-251 543,-257 543,-257 543,-369 543,-369 543,-375 537,-381 531,-381 531,-381 393,-381 393,-381 387,-381 381,-375 381,-369 381,-369 381,-257 381,-257 381,-251 387,-245 393,-245"/>
<text text-anchor="middle" x="462" y="-368.2" font-family="Helvetica,sans-Serif" font-weight="bold" font-size="11.00">Algebraic Loop</text>
</g>
<g id="clust5" class="cluster">
<title>cluster_State</title>
<path fill="#e6d2d0" stroke="#d1d5db" stroke-width="2" d="M589,-196C589,-196 729,-196 729,-196 735,-196 741,-202 741,-208 741,-208 741,-286 741,-286 741,-292 735,-298 729,-298 729,-298 589,-298 589,-298 583,-298 577,-292 577,-286 577,-286 577,-208 577,-208 577,-202 583,-196 589,-196"/>
<text text-anchor="middle" x="659" y="-285.2" font-family="Helvetica,sans-Serif" font-weight="bold" font-size="11.00">State</text>
</g>
<!-- legend_node -->
<g id="node1" class="node">
<title>legend_node</title>
<text text-anchor="start" x="31" y="-118.8" font-family="Helvetica,sans-Serif" font-weight="bold" font-size="9.00">Edges:</text>
<text text-anchor="start" x="31" y="-102.6" font-family="Helvetica,sans-Serif" font-size="8.00">───&gt; Data flow</text>
<text text-anchor="start" x="31" y="-87.6" font-family="Helvetica,sans-Serif" font-size="8.00" fill="#ef4444">───&gt; Algebraic loop</text>
<text text-anchor="start" x="31" y="-72.6" font-family="Helvetica,sans-Serif" font-size="8.00" fill="#0b84ff">┄┄┄o Event connection</text>
<text text-anchor="start" x="31" y="-57.8" font-family="Helvetica,sans-Serif" font-weight="bold" font-size="9.00">Ports:</text>
<text text-anchor="start" x="31" y="-42.6" font-family="Helvetica,sans-Serif" font-weight="bold" font-size="8.00" fill="#ef4444">red</text>
<text text-anchor="start" x="47" y="-42.6" font-family="Helvetica,sans-Serif" font-size="8.00"> Direct feedthrough</text>
<text text-anchor="start" x="31" y="-27.6" font-family="Helvetica,sans-Serif" font-weight="bold" font-size="8.00" fill="#0b84ff">blue</text>
<text text-anchor="start" x="52" y="-27.6" font-family="Helvetica,sans-Serif" font-size="8.00"> Event port</text>
</g>
<!-- source -->
<g id="node2" class="node">
<title>source</title>
<polygon fill="none" stroke="black" points="24,-223 24,-244 44,-244 44,-223 24,-223"/>
<text text-anchor="start" x="29" y="-231" font-family="Helvetica,sans-Serif" font-size="10.00">in</text>
<polygon fill="none" stroke="black" points="44,-223 44,-244 92,-244 92,-223 44,-223"/>
<text text-anchor="start" x="54" y="-231" font-family="Helvetica,sans-Serif" font-size="10.00">name</text>
<polygon fill="none" stroke="black" points="92,-223 92,-244 134,-244 134,-223 92,-223"/>
<text text-anchor="start" x="105" y="-231" font-family="Helvetica,sans-Serif" font-size="10.00">out</text>
<polygon fill="none" stroke="black" points="24,-195 24,-223 44,-223 44,-195 24,-195"/>
<polygon fill="none" stroke="black" points="44,-195 44,-223 92,-223 92,-195 44,-195"/>
<text text-anchor="start" x="49" y="-211" font-family="Helvetica,sans-Serif" font-weight="bold" font-size="10.00">source</text>
<text text-anchor="start" x="61.5" y="-202.6" font-family="Helvetica,sans-Serif" font-size="8.00">#0</text>
<polygon fill="none" stroke="black" points="92,-195 92,-223 134,-223 134,-195 92,-195"/>
<text text-anchor="start" x="97" y="-206.5" font-family="Helvetica,sans-Serif" font-size="10.00">u(t)=1</text>
</g>
<!-- outer_sub -->
<g id="node3" class="node">
<title>outer_sub</title>
<polygon fill="none" stroke="black" points="200.5,-240 200.5,-261 235.5,-261 235.5,-240 200.5,-240"/>
<text text-anchor="start" x="213" y="-248" font-family="Helvetica,sans-Serif" font-size="10.00">in</text>
<polygon fill="none" stroke="black" points="235.5,-240 235.5,-261 301.5,-261 301.5,-240 235.5,-240"/>
<text text-anchor="start" x="254.5" y="-248" font-family="Helvetica,sans-Serif" font-size="10.00">name</text>
<polygon fill="none" stroke="black" points="301.5,-240 301.5,-261 331.5,-261 331.5,-240 301.5,-240"/>
<text text-anchor="start" x="308.5" y="-248" font-family="Helvetica,sans-Serif" font-size="10.00">out</text>
<polygon fill="none" stroke="black" points="200.5,-196 200.5,-240 235.5,-240 235.5,-196 200.5,-196"/>
<polygon fill="none" stroke="black" points="205.5,-218 205.5,-235 230.5,-235 230.5,-218 205.5,-218"/>
<text text-anchor="start" x="208.5" y="-224" font-family="Helvetica,sans-Serif" font-size="10.00">neg</text>
<polygon fill="none" stroke="black" points="205.5,-201 205.5,-218 230.5,-218 230.5,-201 205.5,-201"/>
<text text-anchor="start" x="209" y="-207" font-family="Helvetica,sans-Serif" font-size="10.00">pos</text>
<polygon fill="none" stroke="black" points="235.5,-196 235.5,-240 301.5,-240 301.5,-196 235.5,-196"/>
<text text-anchor="start" x="240.5" y="-220" font-family="Helvetica,sans-Serif" font-weight="bold" font-size="10.00">outer_sub</text>
<text text-anchor="start" x="262" y="-211.6" font-family="Helvetica,sans-Serif" font-size="8.00">#1</text>
<polygon fill="none" stroke="black" points="301.5,-196 301.5,-240 331.5,-240 331.5,-196 301.5,-196"/>
<text text-anchor="start" x="306.5" y="-216.5" font-family="Helvetica,sans-Serif" font-weight="bold" font-size="10.00" fill="#ef4444">diff</text>
</g>
<!-- source&#45;&gt;outer_sub -->
<g id="edge1" class="edge">
<title>source:e&#45;&gt;outer_sub:w</title>
<path fill="none" stroke="#111827" stroke-width="1.2" d="M135,-209C163.36,-209 172.19,-209 197.34,-209"/>
<polygon fill="#111827" stroke="#111827" stroke-width="1.2" points="204.5,-209 197.5,-212.15 201,-209.1 197.5,-209.1 197.5,-209 197.5,-208.9 201,-208.9 197.5,-205.85 204.5,-209 204.5,-209"/>
</g>
<!-- inner_sub -->
<g id="node4" class="node">
<title>inner_sub</title>
<polygon fill="none" stroke="black" points="397,-305 397,-326 432,-326 432,-305 397,-305"/>
<text text-anchor="start" x="409.5" y="-313" font-family="Helvetica,sans-Serif" font-size="10.00">in</text>
<polygon fill="none" stroke="black" points="432,-305 432,-326 497,-326 497,-305 432,-305"/>
<text text-anchor="start" x="450.5" y="-313" font-family="Helvetica,sans-Serif" font-size="10.00">name</text>
<polygon fill="none" stroke="black" points="497,-305 497,-326 527,-326 527,-305 497,-305"/>
<text text-anchor="start" x="504" y="-313" font-family="Helvetica,sans-Serif" font-size="10.00">out</text>
<polygon fill="none" stroke="black" points="397,-261 397,-305 432,-305 432,-261 397,-261"/>
<polygon fill="none" stroke="black" points="402,-283 402,-300 427,-300 427,-283 402,-283"/>
<text text-anchor="start" x="405" y="-289" font-family="Helvetica,sans-Serif" font-size="10.00">neg</text>
<polygon fill="none" stroke="black" points="402,-266 402,-283 427,-283 427,-266 402,-266"/>
<text text-anchor="start" x="405.5" y="-272" font-family="Helvetica,sans-Serif" font-size="10.00">pos</text>
<polygon fill="none" stroke="black" points="432,-261 432,-305 497,-305 497,-261 432,-261"/>
<text text-anchor="start" x="437" y="-285" font-family="Helvetica,sans-Serif" font-weight="bold" font-size="10.00">inner_sub</text>
<text text-anchor="start" x="458" y="-276.6" font-family="Helvetica,sans-Serif" font-size="8.00">#2</text>
<polygon fill="none" stroke="black" points="497,-261 497,-305 527,-305 527,-261 497,-261"/>
<text text-anchor="start" x="502" y="-281.5" font-family="Helvetica,sans-Serif" font-weight="bold" font-size="10.00" fill="#ef4444">diff</text>
</g>
<!-- outer_sub&#45;&gt;inner_sub -->
<g id="edge2" class="edge">
<title>outer_sub:e&#45;&gt;inner_sub:w</title>
<path fill="none" stroke="#111827" stroke-width="1.2" d="M332.5,-218C369.21,-218 362.81,-266.81 393.79,-273.29"/>
<polygon fill="#111827" stroke="#111827" stroke-width="1.2" points="401,-274 393.73,-276.45 397.51,-273.76 394.02,-273.42 394.03,-273.32 394.04,-273.22 397.53,-273.56 394.34,-270.18 401,-274 401,-274"/>
</g>
<!-- inner_sub&#45;&gt;inner_sub -->
<g id="edge4" class="edge">
<title>inner_sub:e&#45;&gt;inner_sub:w</title>
<path fill="none" stroke="#ef4444" stroke-width="2" d="M527,-283C576,-314.5 576,-388.5 464.5,-388.5 357.57,-388.5 353.19,-327.8 396.22,-295.04"/>
<polygon fill="#ef4444" stroke="#ef4444" stroke-width="2" points="402,-291 398.07,-297.59 399.42,-293.42 396.55,-295.42 396.26,-295.01 395.98,-294.6 398.85,-292.6 394.46,-292.43 402,-291 402,-291"/>
</g>
<!-- integrator -->
<g id="node5" class="node">
<title>integrator</title>
<polygon fill="none" stroke="black" points="593,-240 593,-261 631,-261 631,-240 593,-240"/>
<text text-anchor="start" x="607" y="-248" font-family="Helvetica,sans-Serif" font-size="10.00">in</text>
<polygon fill="none" stroke="black" points="631,-240 631,-261 699,-261 699,-240 631,-240"/>
<text text-anchor="start" x="651" y="-248" font-family="Helvetica,sans-Serif" font-size="10.00">name</text>
<polygon fill="none" stroke="black" points="699,-240 699,-261 725,-261 725,-240 699,-240"/>
<text text-anchor="start" x="704" y="-248" font-family="Helvetica,sans-Serif" font-size="10.00">out</text>
<polygon fill="none" stroke="black" points="593,-212 593,-240 631,-240 631,-212 593,-212"/>
<text text-anchor="start" x="598" y="-223.5" font-family="Helvetica,sans-Serif" font-size="10.00">dx_dt</text>
<polygon fill="none" stroke="black" points="631,-212 631,-240 699,-240 699,-212 631,-212"/>
<text text-anchor="start" x="636" y="-228" font-family="Helvetica,sans-Serif" font-weight="bold" font-size="10.00">integrator</text>
<text text-anchor="start" x="658.5" y="-219.6" font-family="Helvetica,sans-Serif" font-size="8.00">#0</text>
<polygon fill="none" stroke="black" points="699,-212 699,-240 725,-240 725,-212 699,-212"/>
<text text-anchor="start" x="708.5" y="-223.5" font-family="Helvetica,sans-Serif" font-size="10.00">x</text>
</g>
<!-- inner_sub&#45;&gt;integrator -->
<g id="edge3" class="edge">
<title>inner_sub:e&#45;&gt;integrator:w</title>
<path fill="none" stroke="#111827" stroke-width="1.2" d="M528,-283C563.41,-283 555.37,-233.73 584.68,-226.81"/>
<polygon fill="#111827" stroke="#111827" stroke-width="1.2" points="592,-226 585.39,-229.9 588.53,-226.48 585.05,-226.86 585.04,-226.77 585.03,-226.67 588.51,-226.28 584.7,-223.63 592,-226 592,-226"/>
</g>
<!-- integrator&#45;&gt;outer_sub -->
<g id="edge5" class="edge">
<title>integrator:e&#45;&gt;outer_sub:w</title>
<path fill="none" stroke="#111827" stroke-width="1.2" d="M726,-226C733.79,-226 730.55,-213.96 725,-208.5 601.35,-86.82 508.44,-196.06 335,-192.5 277.46,-191.32 246.8,-152.41 205.5,-192.5 196.98,-200.77 191.95,-217.13 197.79,-223.44"/>
<polygon fill="#111827" stroke="#111827" stroke-width="1.2" points="204.5,-226 196.84,-226.45 201.19,-224.85 197.92,-223.6 197.96,-223.5 198,-223.41 201.27,-224.66 199.08,-220.56 204.5,-226 204.5,-226"/>
</g>
</g>
</svg>
