<?xml version="1.0" encoding="UTF-8" standalone="no"?>
<!DOCTYPE svg PUBLIC "-//W3C//DTD SVG 1.1//EN"
 "http://www.w3.org/Graphics/SVG/1.1/DTD/svg11.dtd">
<!-- Generated by graphviz version 2.43.0 (0)
 -->
<!-- Title: %3 Pages: 1 -->
<svg width="1061pt" height="447pt"
 viewBox="14.40 14.40 1046.40 432.99" xmlns="http://www.w3.org/2000/svg" xmlns:xlink="http://www.w3.org/1999/xlink">
<g id="graph0" class="graph" transform="scale(1 1) rotate(0) translate(50.4 396.99)">
<title>%3</title>
<polygon fill="white" stroke="transparent" points="-36,36 -36,-382.59 996,-382.59 996,36 -36,36"/>
<text text-anchor="middle" x="480" y="-328.19" font-family="Helvetica,sans-Serif" font-weight="bold" font-size="18.00">Controlled Pendulum System</text>
<g id="clust1" class="cluster">
<title>cluster_legend</title>
<path fill="#f9fafb" stroke="#d1d5db" stroke-width="1.5" d="M20,-39.59C20,-39.59 124,-39.59 124,-39.59 130,-39.59 136,-45.59 136,-51.59 136,-51.59 136,-164.59 136,-164.59 136,-170.59 130,-176.59 124,-176.59 124,-176.59 20,-176.59 20,-176.59 14,-176.59 8,-170.59 8,-164.59 8,-164.59 8,-51.59 8,-51.59 8,-45.59 14,-39.59 20,-39.59"/>
<text text-anchor="middle" x="72" y="-164.59" font-family="Helvetica,sans-Serif" font-weight="bold" font-size="10.00">Legend</text>
</g>
<g id="clust2" class="cluster">
<title>cluster_Input</title>
<path fill="#d0e3e3" stroke="#d1d5db" stroke-width="2" d="M21.5,-208.59C21.5,-208.59 122.5,-208.59 122.5,-208.59 128.5,-208.59 134.5,-214.59 134.5,-220.59 134.5,-220.59 134.5,-298.59 134.5,-298.59 134.5,-304.59 128.5,-310.59 122.5,-310.59 122.5,-310.59 21.5,-310.59 21.5,-310.59 15.5,-310.59 9.5,-304.59 9.5,-298.59 9.5,-298.59 9.5,-220.59 9.5,-220.59 9.5,-214.59 15.5,-208.59 21.5,-208.59"/>
<text text-anchor="middle" x="72" y="-297.79" font-family="Helvetica,sans-Serif" font-weight="bold" font-size="11.00">Input</text>
</g>
<g id="clust3" class="cluster">
<title>cluster_Sensors</title>
<path fill="#dcfce7" stroke="#d1d5db" stroke-width="2" d="M210,-93.59C210,-93.59 352,-93.59 352,-93.59 358,-93.59 364,-99.59 364,-105.59 364,-105.59 364,-298.59 364,-298.59 364,-304.59 358,-310.59 352,-310.59 352,-310.59 210,-310.59 210,-310.59 204,-310.59 198,-304.59 198,-298.59 198,-298.59 198,-105.59 198,-105.59 198,-99.59 204,-93.59 210,-93.59"/>
<text text-anchor="middle" x="281" y="-297.79" font-family="Helvetica,sans-Serif" font-weight="bold" font-size="11.00">Sensors</text>
</g>
<g id="clust4" class="cluster">
<title>cluster_Control</title>
<path fill="#fee2e2" stroke="#d1d5db" stroke-width="2" d="M497,-174.59C497,-174.59 634,-174.59 634,-174.59 640,-174.59 646,-180.59 646,-186.59 646,-186.59 646,-296.59 646,-296.59 646,-302.59 640,-308.59 634,-308.59 634,-308.59 497,-308.59 497,-308.59 491,-308.59 485,-302.59 485,-296.59 485,-296.59 485,-186.59 485,-186.59 485,-180.59 491,-174.59 497,-174.59"/>
<text text-anchor="middle" x="565.5" y="-295.79" font-family="Helvetica,sans-Serif" font-weight="bold" font-size="11.00">Control</text>
</g>
<g id="clust5" class="cluster">
<title>cluster_Actuator</title>
<path fill="#fef3c7" stroke="#d1d5db" stroke-width="2" d="M787,-87.59C787,-87.59 940,-87.59 940,-87.59 946,-87.59 952,-93.59 952,-99.59 952,-99.59 952,-193.59 952,-193.59 952,-199.59 946,-205.59 940,-205.59 940,-205.59 787,-205.59 787,-205.59 781,-205.59 775,-199.59 775,-193.59 775,-193.59 775,-99.59 775,-99.59 775,-93.59 781,-87.59 787,-87.59"/>
<text text-anchor="middle" x="863.5" y="-192.79" font-family="Helvetica,sans-Serif" font-weight="bold" font-size="11.00">Actuator</text>
</g>
<g id="clust6" class="cluster">
<title>cluster_Plant</title>
<path fill="#e5e7eb" stroke="#d1d5db" stroke-width="2" d="M434,-26.59C434,-26.59 697,-26.59 697,-26.59 703,-26.59 709,-32.59 709,-38.59 709,-38.59 709,-148.59 709,-148.59 709,-154.59 703,-160.59 697,-160.59 697,-160.59 434,-160.59 434,-160.59 428,-160.59 422,-154.59 422,-148.59 422,-148.59 422,-38.59 422,-38.59 422,-32.59 428,-26.59 434,-26.59"/>
<text text-anchor="middle" x="565.5" y="-147.79" font-family="Helvetica,sans-Serif" font-weight="bold" font-size="11.00">Plant</text>
</g>
<!-- legend_node -->
<g id="node1" class="node">
<title>legend_node</title>
<text text-anchor="start" x="24" y="-135.39" font-family="Helvetica,sans-Serif" font-weight="bold" font-size="9.00">Edges:</text>
<text text-anchor="start" x="24" y="-119.19" font-family="Helvetica,sans-Serif" font-size="8.00">───&gt; Data flow</text>
<text text-anchor="start" x="24" y="-104.19" font-family="Helvetica,sans-Serif" font-size="8.00" fill="#0b84ff">┄┄┄o Event connection</text>
<text text-anchor="start" x="24" y="-89.39" font-family="Helvetica,sans-Serif" font-weight="bold" font-size="9.00">Ports:</text>
<text text-anchor="start" x="24" y="-74.19" font-family="Helvetica,sans-Serif" font-weight="bold" font-size="8.00" fill="#ef4444">red</text>
<text text-anchor="start" x="40" y="-74.19" font-family="Helvetica,sans-Serif" font-size="8.00"> Direct feedthrough</text>
<text text-anchor="start" x="24" y="-59.19" font-family="Helvetica,sans-Serif" font-weight="bold" font-size="8.00" fill="#0b84ff">blue</text>
<text text-anchor="start" x="45" y="-59.19" font-family="Helvetica,sans-Serif" font-size="8.00"> Event port</text>
</g>
<!-- ref -->
<g id="node2" class="node">
<title>ref</title>
<polygon fill="none" stroke="black" points="26,-252.59 26,-273.59 46,-273.59 46,-252.59 26,-252.59"/>
<text text-anchor="start" x="31" y="-260.59" font-family="Helvetica,sans-Serif" font-size="10.00">in</text>
<polygon fill="none" stroke="black" points="46,-252.59 46,-273.59 84,-273.59 84,-252.59 46,-252.59"/>
<text text-anchor="start" x="51" y="-260.59" font-family="Helvetica,sans-Serif" font-size="10.00">name</text>
<polygon fill="none" stroke="black" points="84,-252.59 84,-273.59 119,-273.59 119,-252.59 84,-252.59"/>
<text text-anchor="start" x="93.5" y="-260.59" font-family="Helvetica,sans-Serif" font-size="10.00">out</text>
<polygon fill="none" stroke="black" points="26,-224.59 26,-252.59 46,-252.59 46,-224.59 26,-224.59"/>
<polygon fill="none" stroke="black" points="46,-224.59 46,-252.59 84,-252.59 84,-224.59 46,-224.59"/>
<text text-anchor="start" x="56.5" y="-240.59" font-family="Helvetica,sans-Serif" font-weight="bold" font-size="10.00">ref</text>
<text text-anchor="start" x="58.5" y="-232.19" font-family="Helvetica,sans-Serif" font-size="8.00">#0</text>
<polygon fill="none" stroke="black" points="84,-224.59 84,-252.59 119,-252.59 119,-224.59 84,-224.59"/>
<text text-anchor="start" x="89" y="-236.09" font-family="Helvetica,sans-Serif" font-size="10.00">q_ref</text>
</g>
<!-- sensor_ref -->
<g id="node3" class="node">
<title>sensor_ref</title>
<polygon fill="none" stroke="black" points="220,-252.59 220,-273.59 240,-273.59 240,-252.59 220,-252.59"/>
<text text-anchor="start" x="225" y="-260.59" font-family="Helvetica,sans-Serif" font-size="10.00">in</text>
<polygon fill="none" stroke="black" points="240,-252.59 240,-273.59 310,-273.59 310,-252.59 240,-252.59"/>
<text text-anchor="start" x="261" y="-260.59" font-family="Helvetica,sans-Serif" font-size="10.00">name</text>
<polygon fill="none" stroke="black" points="310,-252.59 310,-273.59 342,-273.59 342,-252.59 310,-252.59"/>
<text text-anchor="start" x="318" y="-260.59" font-family="Helvetica,sans-Serif" font-size="10.00">out</text>
<polygon fill="none" stroke="black" points="220,-224.59 220,-252.59 240,-252.59 240,-224.59 220,-224.59"/>
<text text-anchor="start" x="226.5" y="-236.09" font-family="Helvetica,sans-Serif" font-size="10.00">q</text>
<polygon fill="none" stroke="black" points="240,-224.59 240,-252.59 310,-252.59 310,-224.59 240,-224.59"/>
<text text-anchor="start" x="245" y="-240.59" font-family="Helvetica,sans-Serif" font-weight="bold" font-size="10.00">sensor_ref</text>
<text text-anchor="start" x="268.5" y="-232.19" font-family="Helvetica,sans-Serif" font-size="8.00">#1</text>
<polygon fill="none" stroke="black" points="310,-224.59 310,-252.59 342,-252.59 342,-224.59 310,-224.59"/>
<text text-anchor="start" x="315" y="-237.09" font-family="Helvetica,sans-Serif" font-weight="bold" font-size="10.00" fill="#ef4444">U_q</text>
</g>
<!-- ref&#45;&gt;sensor_ref -->
<g id="edge1" class="edge">
<title>ref:e&#45;&gt;sensor_ref:w</title>
<path fill="none" stroke="#111827" stroke-width="1.2" d="M120,-238.59C161.42,-238.59 173.6,-238.59 211.59,-238.59"/>
<polygon fill="#111827" stroke="#111827" stroke-width="1.2" points="219,-238.59 212,-241.74 215.5,-238.69 212,-238.69 212,-238.59 212,-238.49 215.5,-238.49 212,-235.44 219,-238.59 219,-238.59"/>
<text text-anchor="middle" x="169" y="-241.59" font-family="Helvetica,sans-Serif" font-size="10.00">[rad]</text>
</g>
<!-- pid -->
<g id="node5" class="node">
<title>pid</title>
<polygon fill="none" stroke="black" points="501.5,-251.59 501.5,-272.59 551.5,-272.59 551.5,-251.59 501.5,-251.59"/>
<text text-anchor="start" x="521.5" y="-259.59" font-family="Helvetica,sans-Serif" font-size="10.00">in</text>
<polygon fill="none" stroke="black" points="551.5,-251.59 551.5,-272.59 589.5,-272.59 589.5,-251.59 551.5,-251.59"/>
<text text-anchor="start" x="556.5" y="-259.59" font-family="Helvetica,sans-Serif" font-size="10.00">name</text>
<polygon fill="none" stroke="black" points="589.5,-251.59 589.5,-272.59 630.5,-272.59 630.5,-251.59 589.5,-251.59"/>
<text text-anchor="start" x="602" y="-259.59" font-family="Helvetica,sans-Serif" font-size="10.00">out</text>
<polygon fill="none" stroke="black" points="501.5,-190.59 501.5,-251.59 551.5,-251.59 551.5,-190.59 501.5,-190.59"/>
<polygon fill="none" stroke="black" points="506.5,-229.59 506.5,-246.59 546.5,-246.59 546.5,-229.59 506.5,-229.59"/>
<text text-anchor="start" x="519.5" y="-235.59" font-family="Helvetica,sans-Serif" font-size="10.00">ref</text>
<polygon fill="none" stroke="black" points="506.5,-212.59 506.5,-229.59 546.5,-229.59 546.5,-212.59 506.5,-212.59"/>
<text text-anchor="start" x="509.5" y="-219.59" font-family="Helvetica,sans-Serif" font-weight="bold" font-size="10.00" fill="#0b84ff">resetI</text>
<polygon fill="none" stroke="black" points="506.5,-195.59 506.5,-212.59 546.5,-212.59 546.5,-195.59 506.5,-195.59"/>
<text text-anchor="start" x="523" y="-201.59" font-family="Helvetica,sans-Serif" font-size="10.00">y</text>
<polygon fill="none" stroke="black" points="551.5,-190.59 551.5,-251.59 589.5,-251.59 589.5,-190.59 551.5,-190.59"/>
<text text-anchor="start" x="561" y="-223.09" font-family="Helvetica,sans-Serif" font-weight="bold" font-size="10.00">pid</text>
<text text-anchor="start" x="564" y="-214.69" font-family="Helvetica,sans-Serif" font-size="8.00">#2</text>
<polygon fill="none" stroke="black" points="589.5,-190.59 589.5,-251.59 630.5,-251.59 630.5,-190.59 589.5,-190.59"/>
<polygon fill="none" stroke="black" points="594.5,-220.59 594.5,-246.59 625.5,-246.59 625.5,-220.59 594.5,-220.59"/>
<text text-anchor="start" x="597.5" y="-231.09" font-family="Helvetica,sans-Serif" font-size="10.00">I_out</text>
<polygon fill="none" stroke="black" points="594.5,-195.59 594.5,-220.59 625.5,-220.59 625.5,-195.59 594.5,-195.59"/>
<text text-anchor="start" x="606.5" y="-206.59" font-family="Helvetica,sans-Serif" font-weight="bold" font-size="10.00" fill="#ef4444">u</text>
</g>
<!-- sensor_ref&#45;&gt;pid -->
<g id="edge3" class="edge">
<title>sensor_ref:e&#45;&gt;pid:w</title>
<path fill="none" stroke="#111827" stroke-width="1.2" d="M343,-238.59C412.82,-238.59 432.02,-238.59 498.48,-238.59"/>
<polygon fill="#111827" stroke="#111827" stroke-width="1.2" points="505.5,-238.59 498.5,-241.74 502,-238.69 498.5,-238.69 498.5,-238.59 498.5,-238.49 502,-238.49 498.5,-235.44 505.5,-238.59 505.5,-238.59"/>
<text text-anchor="middle" x="393" y="-241.59" font-family="Helvetica,sans-Serif" font-size="10.00">[V]</text>
</g>
<!-- sensor_state -->
<g id="node4" class="node">
<title>sensor_state</title>
<polygon fill="none" stroke="black" points="214,-137.59 214,-158.59 234,-158.59 234,-137.59 214,-137.59"/>
<text text-anchor="start" x="219" y="-145.59" font-family="Helvetica,sans-Serif" font-size="10.00">in</text>
<polygon fill="none" stroke="black" points="234,-137.59 234,-158.59 316,-158.59 316,-137.59 234,-137.59"/>
<text text-anchor="start" x="261" y="-145.59" font-family="Helvetica,sans-Serif" font-size="10.00">name</text>
<polygon fill="none" stroke="black" points="316,-137.59 316,-158.59 348,-158.59 348,-137.59 316,-137.59"/>
<text text-anchor="start" x="324" y="-145.59" font-family="Helvetica,sans-Serif" font-size="10.00">out</text>
<polygon fill="none" stroke="black" points="214,-109.59 214,-137.59 234,-137.59 234,-109.59 214,-109.59"/>
<text text-anchor="start" x="220.5" y="-121.09" font-family="Helvetica,sans-Serif" font-size="10.00">q</text>
<polygon fill="none" stroke="black" points="234,-109.59 234,-137.59 316,-137.59 316,-109.59 234,-109.59"/>
<text text-anchor="start" x="239" y="-125.59" font-family="Helvetica,sans-Serif" font-weight="bold" font-size="10.00">sensor_state</text>
<text text-anchor="start" x="268.5" y="-117.19" font-family="Helvetica,sans-Serif" font-size="8.00">#1</text>
<polygon fill="none" stroke="black" points="316,-109.59 316,-137.59 348,-137.59 348,-109.59 316,-109.59"/>
<text text-anchor="start" x="321" y="-122.09" font-family="Helvetica,sans-Serif" font-weight="bold" font-size="10.00" fill="#ef4444">U_q</text>
</g>
<!-- sensor_state&#45;&gt;pid -->
<g id="edge4" class="edge">
<title>sensor_state:e&#45;&gt;pid:w</title>
<path fill="none" stroke="#111827" stroke-width="1.2" d="M349,-123.59C388.58,-123.59 386.75,-156.6 422,-174.59 454.8,-191.34 464.96,-202.17 498.47,-203.46"/>
<polygon fill="#111827" stroke="#111827" stroke-width="1.2" points="505.5,-203.59 498.44,-206.61 502,-203.63 498.5,-203.56 498.5,-203.46 498.5,-203.36 502,-203.43 498.56,-200.31 505.5,-203.59 505.5,-203.59"/>
<text text-anchor="middle" x="393" y="-164.59" font-family="Helvetica,sans-Serif" font-size="10.00">[V]</text>
</g>
<!-- drive -->
<g id="node6" class="node">
<title>drive</title>
<polygon fill="none" stroke="black" points="791.5,-147.59 791.5,-168.59 853.5,-168.59 853.5,-147.59 791.5,-147.59"/>
<text text-anchor="start" x="817.5" y="-155.59" font-family="Helvetica,sans-Serif" font-size="10.00">in</text>
<polygon fill="none" stroke="black" points="853.5,-147.59 853.5,-168.59 894.5,-168.59 894.5,-147.59 853.5,-147.59"/>
<text text-anchor="start" x="860" y="-155.59" font-family="Helvetica,sans-Serif" font-size="10.00">name</text>
<polygon fill="none" stroke="black" points="894.5,-147.59 894.5,-168.59 936.5,-168.59 936.5,-147.59 894.5,-147.59"/>
<text text-anchor="start" x="907.5" y="-155.59" font-family="Helvetica,sans-Serif" font-size="10.00">out</text>
<polygon fill="none" stroke="black" points="791.5,-103.59 791.5,-147.59 853.5,-147.59 853.5,-103.59 791.5,-103.59"/>
<polygon fill="none" stroke="black" points="796.5,-125.59 796.5,-142.59 848.5,-142.59 848.5,-125.59 796.5,-125.59"/>
<text text-anchor="start" x="805.5" y="-131.59" font-family="Helvetica,sans-Serif" font-size="10.00">omega</text>
<polygon fill="none" stroke="black" points="796.5,-108.59 796.5,-125.59 848.5,-125.59 848.5,-108.59 796.5,-108.59"/>
<text text-anchor="start" x="799.5" y="-114.59" font-family="Helvetica,sans-Serif" font-size="10.00">u_control</text>
<polygon fill="none" stroke="black" points="853.5,-103.59 853.5,-147.59 894.5,-147.59 894.5,-103.59 853.5,-103.59"/>
<text text-anchor="start" x="858.5" y="-127.59" font-family="Helvetica,sans-Serif" font-weight="bold" font-size="10.00">drive</text>
<text text-anchor="start" x="867.5" y="-119.19" font-family="Helvetica,sans-Serif" font-size="8.00">#3</text>
<polygon fill="none" stroke="black" points="894.5,-103.59 894.5,-147.59 936.5,-147.59 936.5,-103.59 894.5,-103.59"/>
<text text-anchor="start" x="899.5" y="-123.09" font-family="Helvetica,sans-Serif" font-size="10.00">torque</text>
</g>
<!-- pid&#45;&gt;drive -->
<g id="edge5" class="edge">
<title>pid:e&#45;&gt;drive:w</title>
<path fill="none" stroke="#111827" stroke-width="1.2" d="M626.5,-207.59C691.31,-207.59 704.34,-180.94 758,-144.59 772.93,-134.48 774.53,-120.85 788.25,-117.41"/>
<polygon fill="#111827" stroke="#111827" stroke-width="1.2" points="795.5,-116.59 788.9,-120.51 792.03,-117.08 788.55,-117.47 788.54,-117.38 788.53,-117.28 792.01,-116.89 788.19,-114.25 795.5,-116.59 795.5,-116.59"/>
</g>
<!-- Master_Pendulum -->
<g id="node7" class="node">
<title>Master_Pendulum</title>
<polygon fill="none" stroke="black" points="438.5,-103.59 438.5,-124.59 532.5,-124.59 532.5,-103.59 438.5,-103.59"/>
<text text-anchor="start" x="480.5" y="-111.59" font-family="Helvetica,sans-Serif" font-size="10.00">in</text>
<polygon fill="none" stroke="black" points="532.5,-103.59 532.5,-124.59 643.5,-124.59 643.5,-103.59 532.5,-103.59"/>
<text text-anchor="start" x="574" y="-111.59" font-family="Helvetica,sans-Serif" font-size="10.00">name</text>
<polygon fill="none" stroke="black" points="643.5,-103.59 643.5,-124.59 693.5,-124.59 693.5,-103.59 643.5,-103.59"/>
<text text-anchor="start" x="660.5" y="-111.59" font-family="Helvetica,sans-Serif" font-size="10.00">out</text>
<polygon fill="none" stroke="black" points="438.5,-42.59 438.5,-103.59 532.5,-103.59 532.5,-42.59 438.5,-42.59"/>
<polygon fill="none" stroke="black" points="443.5,-72.59 443.5,-98.59 527.5,-98.59 527.5,-72.59 443.5,-72.59"/>
<text text-anchor="start" x="446.5" y="-84.09" font-family="Helvetica,sans-Serif" font-weight="bold" font-size="10.00" fill="#0b84ff">omega_invert</text>
<polygon fill="none" stroke="black" points="443.5,-47.59 443.5,-72.59 527.5,-72.59 527.5,-47.59 443.5,-47.59"/>
<text text-anchor="start" x="469.5" y="-57.59" font-family="Helvetica,sans-Serif" font-size="10.00">torque</text>
<polygon fill="none" stroke="black" points="532.5,-42.59 532.5,-103.59 643.5,-103.59 643.5,-42.59 532.5,-42.59"/>
<text text-anchor="start" x="537.5" y="-75.09" font-family="Helvetica,sans-Serif" font-weight="bold" font-size="10.00">Master_Pendulum</text>
<text text-anchor="start" x="581.5" y="-66.69" font-family="Helvetica,sans-Serif" font-size="8.00">#0</text>
<polygon fill="none" stroke="black" points="643.5,-42.59 643.5,-103.59 693.5,-103.59 693.5,-42.59 643.5,-42.59"/>
<polygon fill="none" stroke="black" points="648.5,-81.59 648.5,-98.59 688.5,-98.59 688.5,-81.59 648.5,-81.59"/>
<text text-anchor="start" x="654.5" y="-87.59" font-family="Helvetica,sans-Serif" font-size="10.00">alpha</text>
<polygon fill="none" stroke="black" points="648.5,-64.59 648.5,-81.59 688.5,-81.59 688.5,-64.59 648.5,-64.59"/>
<text text-anchor="start" x="651.5" y="-70.59" font-family="Helvetica,sans-Serif" font-size="10.00">omega</text>
<polygon fill="none" stroke="black" points="648.5,-47.59 648.5,-64.59 688.5,-64.59 688.5,-47.59 648.5,-47.59"/>
<text text-anchor="start" x="665" y="-53.59" font-family="Helvetica,sans-Serif" font-size="10.00">q</text>
</g>
<!-- drive&#45;&gt;Master_Pendulum -->
<g id="edge6" class="edge">
<title>drive:e&#45;&gt;Master_Pendulum:w</title>
<path fill="none" stroke="#111827" stroke-width="1.2" d="M937.5,-125.59C948.84,-125.59 943.63,-108.92 936.5,-100.09 867.46,-14.59 806.03,-52.37 697,-38.59 585.22,-24.47 525.04,39.16 443.5,-38.59 439.17,-42.72 436.14,-50.18 436.98,-55.01"/>
<polygon fill="#111827" stroke="#111827" stroke-width="1.2" points="442.5,-59.59 435.1,-57.54 439.74,-57.43 437.05,-55.2 437.12,-55.12 437.18,-55.04 439.87,-57.28 439.13,-52.7 442.5,-59.59 442.5,-59.59"/>
<text text-anchor="middle" x="742" y="-45.59" font-family="Helvetica,sans-Serif" font-size="10.00">[m·N]</text>
</g>
<!-- Master_Pendulum&#45;&gt;sensor_state -->
<g id="edge2" class="edge">
<title>Master_Pendulum:e&#45;&gt;sensor_state:w</title>
<path fill="none" stroke="#111827" stroke-width="1.2" d="M689.5,-55.59C697.07,-55.59 694.01,-43.79 688.5,-38.59 606.2,39 545.86,-21.82 434,-38.59 332.85,-53.76 277.12,-25.62 214,-106.09 211.45,-109.35 209.12,-114.09 208.68,-117.81"/>
<polygon fill="#111827" stroke="#111827" stroke-width="1.2" points="213,-123.59 206.29,-119.87 210.82,-120.85 208.73,-118.05 208.81,-117.99 208.89,-117.93 210.98,-120.73 211.33,-116.1 213,-123.59 213,-123.59"/>
<text text-anchor="middle" x="393" y="-46.59" font-family="Helvetica,sans-Serif" font-size="10.00">[rad]</text>
</g>
<!-- Master_Pendulum&#45;&gt;drive -->
<g id="edge7" class="edge">
<title>Master_Pendulum:e&#45;&gt;drive:w</title>
<path fill="none" stroke="#111827" stroke-width="1.2" d="M689.5,-72.59C741.31,-72.59 741.27,-128.01 788.22,-133.2"/>
<polygon fill="#111827" stroke="#111827" stroke-width="1.2" points="795.5,-133.59 788.34,-136.36 792,-133.51 788.5,-133.32 788.51,-133.22 788.52,-133.12 792.01,-133.31 788.68,-130.07 795.5,-133.59 795.5,-133.59"/>
<text text-anchor="middle" x="742" y="-122.59" font-family="Helvetica,sans-Serif" font-size="10.00">[rad/s]</text>
</g>
</g>
</svg>
