<?xml version="1.0" encoding="UTF-8" standalone="no"?>
<!DOCTYPE svg PUBLIC "-//W3C//DTD SVG 1.1//EN"
 "http://www.w3.org/Graphics/SVG/1.1/DTD/svg11.dtd">
<!-- Generated by graphviz version 2.43.0 (0)
 -->
<!-- Title: %3 Pages: 1 -->
<svg width="491pt" height="437pt"
 viewBox="14.40 14.40 476.40 422.40" xmlns="http://www.w3.org/2000/svg" xmlns:xlink="http://www.w3.org/1999/xlink">
<g id="graph0" class="graph" transform="scale(1 1) rotate(0) translate(50.4 386.4)">
<title>%3</title>
<polygon fill="white" stroke="transparent" points="-36,36 -36,-372 426,-372 426,36 -36,36"/>
<text text-anchor="middle" x="195" y="-317.6" font-family="Helvetica,sans-Serif" font-weight="bold" font-size="18.00">Simple Hybrid Test System</text>
<g id="clust1" class="cluster">
<title>cluster_legend</title>
<path fill="#f9fafb" stroke="#d1d5db" stroke-width="1.5" d="M35.5,-8C35.5,-8 139.5,-8 139.5,-8 145.5,-8 151.5,-14 151.5,-20 151.5,-20 151.5,-133 151.5,-133 151.5,-139 145.5,-145 139.5,-145 139.5,-145 35.5,-145 35.5,-145 29.5,-145 23.5,-139 23.5,-133 23.5,-133 23.5,-20 23.5,-20 23.5,-14 29.5,-8 35.5,-8"/>
<text text-anchor="middle" x="87.5" y="-133" font-family="Helvetica,sans-Serif" font-weight="bold" font-size="10.00">Legend</text>
</g>
<g id="clust2" class="cluster">
<title>cluster_Source</title>
<path fill="#dbbcc4" stroke="#d1d5db" stroke-width="2" d="M20,-164C20,-164 155,-164 155,-164 161,-164 167,-170 167,-176 167,-176 167,-286 167,-286 167,-292 161,-298 155,-298 155,-298 20,-298 20,-298 14,-298 8,-292 8,-286 8,-286 8,-176 8,-176 8,-170 14,-164 20,-164"/>
<text text-anchor="middle" x="87.5" y="-285.2" font-family="Helvetica,sans-Serif" font-weight="bold" font-size="11.00">Source</text>
</g>
<g id="clust3" class="cluster">
<title>cluster_Listener</title>
<path fill="#ebdddd" stroke="#d1d5db" stroke-width="2" d="M213,-198C213,-198 370,-198 370,-198 376,-198 382,-204 382,-210 382,-210 382,-288 382,-288 382,-294 376,-300 370,-300 370,-300 213,-300 213,-300 207,-300 201,-294 201,-288 201,-288 201,-210 201,-210 201,-204 207,-198 213,-198"/>
<text text-anchor="middle" x="291.5" y="-287.2" font-family="Helvetica,sans-Serif" font-weight="bold" font-size="11.00">Listener</text>
</g>
<!-- legend_node -->
<g id="node1" class="node">
<title>legend_node</title>
<text text-anchor="start" x="39.5" y="-103.8" font-family="Helvetica,sans-Serif" font-weight="bold" font-size="9.00">Edges:</text>
<text text-anchor="start" x="39.5" y="-87.6" font-family="Helvetica,sans-Serif" font-size="8.00">───&gt; Data flow</text>
<text text-anchor="start" x="39.5" y="-72.6" font-family="Helvetica,sans-Serif" font-size="8.00" fill="#0b84ff">┄┄┄o Event connection</text>
<text text-anchor="start" x="39.5" y="-57.8" font-family="Helvetica,sans-Serif" font-weight="bold" font-size="9.00">Ports:</text>
<text text-anchor="start" x="39.5" y="-42.6" font-family="Helvetica,sans-Serif" font-weight="bold" font-size="8.00" fill="#ef4444">red</text>
<text text-anchor="start" x="55.5" y="-42.6" font-family="Helvetica,sans-Serif" font-size="8.00"> Direct feedthrough</text>
<text text-anchor="start" x="39.5" y="-27.6" font-family="Helvetica,sans-Serif" font-weight="bold" font-size="8.00" fill="#0b84ff">blue</text>
<text text-anchor="start" x="60.5" y="-27.6" font-family="Helvetica,sans-Serif" font-size="8.00"> Event port</text>
</g>
<!-- Source -->
<g id="node2" class="node">
<title>Source</title>
<polygon fill="none" stroke="black" points="24.5,-241 24.5,-262 44.5,-262 44.5,-241 24.5,-241"/>
<text text-anchor="start" x="29.5" y="-249" font-family="Helvetica,sans-Serif" font-size="10.00">in</text>
<polygon fill="none" stroke="black" points="44.5,-241 44.5,-262 94.5,-262 94.5,-241 44.5,-241"/>
<text text-anchor="start" x="55.5" y="-249" font-family="Helvetica,sans-Serif" font-size="10.00">name</text>
<polygon fill="none" stroke="black" points="94.5,-241 94.5,-262 151.5,-262 151.5,-241 94.5,-241"/>
<text text-anchor="start" x="115" y="-249" font-family="Helvetica,sans-Serif" font-size="10.00">out</text>
<polygon fill="none" stroke="black" points="24.5,-180 24.5,-241 44.5,-241 44.5,-180 24.5,-180"/>
<polygon fill="none" stroke="black" points="44.5,-180 44.5,-241 94.5,-241 94.5,-180 44.5,-180"/>
<text text-anchor="start" x="49.5" y="-212.5" font-family="Helvetica,sans-Serif" font-weight="bold" font-size="10.00">Source</text>
<text text-anchor="start" x="63" y="-204.1" font-family="Helvetica,sans-Serif" font-size="8.00">#0</text>
<polygon fill="none" stroke="black" points="94.5,-180 94.5,-241 151.5,-241 151.5,-180 94.5,-180"/>
<polygon fill="none" stroke="black" points="99.5,-219 99.5,-236 146.5,-236 146.5,-219 99.5,-219"/>
<text text-anchor="start" x="102.5" y="-226" font-family="Helvetica,sans-Serif" font-weight="bold" font-size="10.00" fill="#0b84ff">trigger</text>
<polygon fill="none" stroke="black" points="99.5,-202 99.5,-219 146.5,-219 146.5,-202 99.5,-202"/>
<text text-anchor="start" x="119.5" y="-208" font-family="Helvetica,sans-Serif" font-size="10.00">v</text>
<polygon fill="none" stroke="black" points="99.5,-185 99.5,-202 146.5,-202 146.5,-185 99.5,-185"/>
<text text-anchor="start" x="119.5" y="-191" font-family="Helvetica,sans-Serif" font-size="10.00">x</text>
</g>
<!-- Listener -->
<g id="node3" class="node">
<title>Listener</title>
<polygon fill="none" stroke="black" points="217.5,-242 217.5,-263 284.5,-263 284.5,-242 217.5,-242"/>
<text text-anchor="start" x="246" y="-250" font-family="Helvetica,sans-Serif" font-size="10.00">in</text>
<polygon fill="none" stroke="black" points="284.5,-242 284.5,-263 340.5,-263 340.5,-242 284.5,-242"/>
<text text-anchor="start" x="298.5" y="-250" font-family="Helvetica,sans-Serif" font-size="10.00">name</text>
<polygon fill="none" stroke="black" points="340.5,-242 340.5,-263 366.5,-263 366.5,-242 340.5,-242"/>
<text text-anchor="start" x="345.5" y="-250" font-family="Helvetica,sans-Serif" font-size="10.00">out</text>
<polygon fill="none" stroke="black" points="217.5,-214 217.5,-242 284.5,-242 284.5,-214 217.5,-214"/>
<text text-anchor="start" x="222.5" y="-226.5" font-family="Helvetica,sans-Serif" font-weight="bold" font-size="10.00" fill="#0b84ff">vel_invert</text>
<polygon fill="none" stroke="black" points="284.5,-214 284.5,-242 340.5,-242 340.5,-214 284.5,-214"/>
<text text-anchor="start" x="289.5" y="-230" font-family="Helvetica,sans-Serif" font-weight="bold" font-size="10.00">Listener</text>
<text text-anchor="start" x="306" y="-221.6" font-family="Helvetica,sans-Serif" font-size="8.00">#0</text>
<polygon fill="none" stroke="black" points="340.5,-214 340.5,-242 366.5,-242 366.5,-214 340.5,-214"/>
<text text-anchor="start" x="350" y="-225.5" font-family="Helvetica,sans-Serif" font-size="10.00">x</text>
</g>
<!-- Source&#45;&gt;Listener -->
<g id="edge1" class="edge">
<title>Source:e&#45;&gt;Listener:w</title>
<path fill="none" stroke="#0b84ff" stroke-width="2" stroke-dasharray="5,2" d="M147.5,-228C176.13,-228 184.71,-228 210.68,-228"/>
<ellipse fill="none" stroke="#0b84ff" stroke-width="2" cx="213.7" cy="-228" rx="2.8" ry="2.8"/>
</g>
</g>
</svg>
