3D InterOp IGES (v. 2023 1.0.0), Spatial Corp. Copyright (c) 1999-2020. S      1
1H,,1H;,6HNoname,16HHertzContact.igs,13HSpatial Corp.,20H3D InterOp ACISG      1
/IGES,32,38, 6,308,15,6HNoname,1.000,2,2HMM,1,1.000,15H20250910.145617, G      2
1.0e-06,0.00,12HCubit 2024.3,6HNoname,11,0,15H20250910.145617;          G      3
     128       1       0       0       0       0       0       000010001D      1
     128       0       0       2       0       0       0               0D      2
     110       3       0       0       0       0       0       000010001D      3
     110       0       0       1       0       0       0               0D      4
     502       4       0       0       0       0       0       000010001D      5
     502       0       0       2       1       0       0               0D      6
     110       6       0       0       0       0       0       000010001D      7
     110       0       0       1       0       0       0               0D      8
     110       7       0       0       0       0       0       000010001D      9
     110       0       0       1       0       0       0               0D     10
     110       8       0       0       0       0       0       000010001D     11
     110       0       0       1       0       0       0               0D     12
     110       9       0       0       0       0       0       000010001D     13
     110       0       0       1       0       0       0               0D     14
     110      10       0       0       0       0       0       000010001D     15
     110       0       0       1       0       0       0               0D     16
     110      11       0       0       0       0       0       000010001D     17
     110       0       0       1       0       0       0               0D     18
     110      12       0       0       0       0       0       000010001D     19
     110       0       0       1       0       0       0               0D     20
     110      13       0       0       0       0       0       000010001D     21
     110       0       0       1       0       0       0               0D     22
     110      14       0       0       0       0       0       000010001D     23
     110       0       0       1       0       0       0               0D     24
     110      15       0       0       0       0       0       000010001D     25
     110       0       0       1       0       0       0               0D     26
     110      16       0       0       0       0       0       000010001D     27
     110       0       0       1       0       0       0               0D     28
     504      17       0       0       0       0       0       000010001D     29
     504       0       0       3       1       0       0               0D     30
     508      20       0       0       0       0       0       000010001D     31
     508       0       0       1       1       0       0               0D     32
     510      21       0       0       0       0       0       000010001D     33
     510       0       0       1       1       0       0               0D     34
     128      22       0       0       0       0       0       000010001D     35
     128       0       0       2       0       0       0               0D     36
     508      24       0       0       0       0       0       000010001D     37
     508       0       0       1       1       0       0               0D     38
     510      25       0       0       0       0       0       000010001D     39
     510       0       0       1       1       0       0               0D     40
     128      26       0       0       0       0       0       000010001D     41
     128       0       0       2       0       0       0               0D     42
     508      28       0       0       0       0       0       000010001D     43
     508       0       0       1       1       0       0               0D     44
     510      29       0       0       0       0       0       000010001D     45
     510       0       0       1       1       0       0               0D     46
     128      30       0       0       0       0       0       000010001D     47
     128       0       0       2       0       0       0               0D     48
     508      32       0       0       0       0       0       000010001D     49
     508       0       0       1       1       0       0               0D     50
     510      33       0       0       0       0       0       000010001D     51
     510       0       0       1       1       0       0               0D     52
     128      34       0       0       0       0       0       000010001D     53
     128       0       0       2       0       0       0               0D     54
     508      36       0       0       0       0       0       000010001D     55
     508       0       0       1       1       0       0               0D     56
     510      37       0       0       0       0       0       000010001D     57
     510       0       0       1       1       0       0               0D     58
     128      38       0       0       0       0       0       000010001D     59
     128       0       0       2       0       0       0               0D     60
     508      40       0       0       0       0       0       000010001D     61
     508       0       0       1       1       0       0               0D     62
     510      41       0       0       0       0       0       000010001D     63
     510       0       0       1       1       0       0               0D     64
     514      42       0       0       0       0       0       000010001D     65
     514       0       0       1       1       0       0               0D     66
     186      43       0       0       0       0       0       000000001D     67
     186       0       0       1       0       0       0               0D     68
     128      44       0       0       0       0       0       000010001D     69
     128       0       0       5       0       0       0               0D     70
     110      49       0       0       0       0       0       000010001D     71
     110       0       0       1       0       0       0               0D     72
     502      50       0       0       0       0       0       000010001D     73
     502       0       0       2       1       0       0               0D     74
     110      52       0       0       0       0       0       000010001D     75
     110       0       0       1       0       0       0               0D     76
     124      53       0       0       0       0       0       000010001D     77
     124       0       0       1       0       0       0               0D     78
     100      54       0       0       0       0      77       000010001D     79
     100       0       0       1       0       0       0               0D     80
     124      55       0       0       0       0       0       000010001D     81
     124       0       0       1       0       0       0               0D     82
     100      56       0       0       0       0      81       000010001D     83
     100       0       0       1       0       0       0               0D     84
     110      57       0       0       0       0       0       000010001D     85
     110       0       0       1       0       0       0               0D     86
     124      58       0       0       0       0       0       000010001D     87
     124       0       0       1       0       0       0               0D     88
     100      59       0       0       0       0      87       000010001D     89
     100       0       0       1       0       0       0               0D     90
     504      60       0       0       0       0       0       000010001D     91
     504       0       0       2       1       0       0               0D     92
     508      62       0       0       0       0       0       000010001D     93
     508       0       0       1       1       0       0               0D     94
     510      63       0       0       0       0       0       000010001D     95
     510       0       0       1       1       0       0               0D     96
     128      64       0       0       0       0       0       000010001D     97
     128       0       0      23       0       0       0               0D     98
     508      87       0       0       0       0       0       000010001D     99
     508       0       0       1       1       0       0               0D    100
     510      88       0       0       0       0       0       000010001D    101
     510       0       0       1       1       0       0               0D    102
     128      89       0       0       0       0       0       000010001D    103
     128       0       0       3       0       0       0               0D    104
     508      92       0       0       0       0       0       000010001D    105
     508       0       0       1       1       0       0               0D    106
     510      93       0       0       0       0       0       000010001D    107
     510       0       0       1       1       0       0               0D    108
     128      94       0       0       0       0       0       000010001D    109
     128       0       0       5       0       0       0               0D    110
     508      99       0       0       0       0       0       000010001D    111
     508       0       0       1       1       0       0               0D    112
     510     100       0       0       0       0       0       000010001D    113
     510       0       0       1       1       0       0               0D    114
     514     101       0       0       0       0       0       000010001D    115
     514       0       0       1       1       0       0               0D    116
     186     102       0       0       0       0       0       000000001D    117
     186       0       0       1       0       0       0               0D    118
     128     103       0       0       0       0       0       000010001D    119
     128       0       0       3       0       0       0               0D    120
     110     106       0       0       0       0       0       000010001D    121
     110       0       0       1       0       0       0               0D    122
     502     107       0       0       0       0       0       000010001D    123
     502       0       0       2       1       0       0               0D    124
     110     109       0       0       0       0       0       000010001D    125
     110       0       0       1       0       0       0               0D    126
     110     110       0       0       0       0       0       000010001D    127
     110       0       0       1       0       0       0               0D    128
     110     111       0       0       0       0       0       000010001D    129
     110       0       0       1       0       0       0               0D    130
     110     112       0       0       0       0       0       000010001D    131
     110       0       0       1       0       0       0               0D    132
     110     113       0       0       0       0       0       000010001D    133
     110       0       0       1       0       0       0               0D    134
     110     114       0       0       0       0       0       000010001D    135
     110       0       0       1       0       0       0               0D    136
     110     115       0       0       0       0       0       000010001D    137
     110       0       0       1       0       0       0               0D    138
     110     116       0       0       0       0       0       000010001D    139
     110       0       0       1       0       0       0               0D    140
     110     117       0       0       0       0       0       000010001D    141
     110       0       0       1       0       0       0               0D    142
     110     118       0       0       0       0       0       000010001D    143
     110       0       0       1       0       0       0               0D    144
     110     119       0       0       0       0       0       000010001D    145
     110       0       0       1       0       0       0               0D    146
     504     120       0       0       0       0       0       000010001D    147
     504       0       0       4       1       0       0               0D    148
     508     124       0       0       0       0       0       000010001D    149
     508       0       0       1       1       0       0               0D    150
     510     125       0       0       0       0       0       000010001D    151
     510       0       0       1       1       0       0               0D    152
     128     126       0       0       0       0       0       000010001D    153
     128       0       0       2       0       0       0               0D    154
     508     128       0       0       0       0       0       000010001D    155
     508       0       0       1       1       0       0               0D    156
     510     129       0       0       0       0       0       000010001D    157
     510       0       0       1       1       0       0               0D    158
     128     130       0       0       0       0       0       000010001D    159
     128       0       0       2       0       0       0               0D    160
     508     132       0       0       0       0       0       000010001D    161
     508       0       0       1       1       0       0               0D    162
     510     133       0       0       0       0       0       000010001D    163
     510       0       0       1       1       0       0               0D    164
     128     134       0       0       0       0       0       000010001D    165
     128       0       0       3       0       0       0               0D    166
     508     137       0       0       0       0       0       000010001D    167
     508       0       0       1       1       0       0               0D    168
     510     138       0       0       0       0       0       000010001D    169
     510       0       0       1       1       0       0               0D    170
     128     139       0       0       0       0       0       000010001D    171
     128       0       0       2       0       0       0               0D    172
     508     141       0       0       0       0       0       000010001D    173
     508       0       0       1       1       0       0               0D    174
     510     142       0       0       0       0       0       000010001D    175
     510       0       0       1       1       0       0               0D    176
     128     143       0       0       0       0       0       000010001D    177
     128       0       0       2       0       0       0               0D    178
     508     145       0       0       0       0       0       000010001D    179
     508       0       0       1       1       0       0               0D    180
     510     146       0       0       0       0       0       000010001D    181
     510       0       0       1       1       0       0               0D    182
     514     147       0       0       0       0       0       000010001D    183
     514       0       0       1       1       0       0               0D    184
     186     148       0       0       0       0       0       000000001D    185
     186       0       0       1       0       0       0               0D    186
     128     149       0       0       0       0       0       000010001D    187
     128       0       0       5       0       0       0               0D    188
     110     154       0       0       0       0       0       000010001D    189
     110       0       0       1       0       0       0               0D    190
     502     155       0       0       0       0       0       000010001D    191
     502       0       0       2       1       0       0               0D    192
     124     157       0       0       0       0       0       000010001D    193
     124       0       0       1       0       0       0               0D    194
     100     158       0       0       0       0     193       000010001D    195
     100       0       0       1       0       0       0               0D    196
     110     159       0       0       0       0       0       000010001D    197
     110       0       0       1       0       0       0               0D    198
     110     160       0       0       0       0       0       000010001D    199
     110       0       0       1       0       0       0               0D    200
     124     161       0       0       0       0       0       000010001D    201
     124       0       0       1       0       0       0               0D    202
     100     162       0       0       0       0     201       000010001D    203
     100       0       0       1       0       0       0               0D    204
     110     163       0       0       0       0       0       000010001D    205
     110       0       0       1       0       0       0               0D    206
     110     164       0       0       0       0       0       000010001D    207
     110       0       0       1       0       0       0               0D    208
     124     165       0       0       0       0       0       000010001D    209
     124       0       0       1       0       0       0               0D    210
     100     166       0       0       0       0     209       000010001D    211
     100       0       0       1       0       0       0               0D    212
     124     167       0       0       0       0       0       000010001D    213
     124       0       0       1       0       0       0               0D    214
     100     168       0       0       0       0     213       000010001D    215
     100       0       0       1       0       0       0               0D    216
     504     169       0       0       0       0       0       000010001D    217
     504       0       0       3       1       0       0               0D    218
     508     172       0       0       0       0       0       000010001D    219
     508       0       0       1       1       0       0               0D    220
     510     173       0       0       0       0       0       000010001D    221
     510       0       0       1       1       0       0               0D    222
     128     174       0       0       0       0       0       000010001D    223
     128       0       0       2       0       0       0               0D    224
     508     176       0       0       0       0       0       000010001D    225
     508       0       0       1       1       0       0               0D    226
     510     177       0       0       0       0       0       000010001D    227
     510       0       0       1       1       0       0               0D    228
     128     178       0       0       0       0       0       000010001D    229
     128       0       0       4       0       0       0               0D    230
     508     182       0       0       0       0       0       000010001D    231
     508       0       0       1       1       0       0               0D    232
     510     183       0       0       0       0       0       000010001D    233
     510       0       0       1       1       0       0               0D    234
     128     184       0       0       0       0       0       000010001D    235
     128       0       0       2       0       0       0               0D    236
     508     186       0       0       0       0       0       000010001D    237
     508       0       0       1       1       0       0               0D    238
     510     187       0       0       0       0       0       000010001D    239
     510       0       0       1       1       0       0               0D    240
     128     188       0       0       0       0       0       000010001D    241
     128       0       0      23       0       0       0               0D    242
     508     211       0       0       0       0       0       000010001D    243
     508       0       0       1       1       0       0               0D    244
     510     212       0       0       0       0       0       000010001D    245
     510       0       0       1       1       0       0               0D    246
     514     213       0       0       0       0       0       000010001D    247
     514       0       0       1       1       0       0               0D    248
     186     214       0       0       0       0       0       000000001D    249
     186       0       0       1       0       0       0               0D    250
     128     215       0       0       0       0       0       000010001D    251
     128       0       0       3       0       0       0               0D    252
     110     218       0       0       0       0       0       000010001D    253
     110       0       0       1       0       0       0               0D    254
     502     219       0       0       0       0       0       000010001D    255
     502       0       0       2       1       0       0               0D    256
     110     221       0       0       0       0       0       000010001D    257
     110       0       0       1       0       0       0               0D    258
     110     222       0       0       0       0       0       000010001D    259
     110       0       0       1       0       0       0               0D    260
     110     223       0       0       0       0       0       000010001D    261
     110       0       0       1       0       0       0               0D    262
     110     224       0       0       0       0       0       000010001D    263
     110       0       0       1       0       0       0               0D    264
     110     225       0       0       0       0       0       000010001D    265
     110       0       0       1       0       0       0               0D    266
     110     226       0       0       0       0       0       000010001D    267
     110       0       0       1       0       0       0               0D    268
     110     227       0       0       0       0       0       000010001D    269
     110       0       0       1       0       0       0               0D    270
     110     228       0       0       0       0       0       000010001D    271
     110       0       0       1       0       0       0               0D    272
     110     229       0       0       0       0       0       000010001D    273
     110       0       0       1       0       0       0               0D    274
     110     230       0       0       0       0       0       000010001D    275
     110       0       0       1       0       0       0               0D    276
     110     231       0       0       0       0       0       000010001D    277
     110       0       0       1       0       0       0               0D    278
     504     232       0       0       0       0       0       000010001D    279
     504       0       0       4       1       0       0               0D    280
     508     236       0       0       0       0       0       000010001D    281
     508       0       0       1       1       0       0               0D    282
     510     237       0       0       0       0       0       000010001D    283
     510       0       0       1       1       0       0               0D    284
     128     238       0       0       0       0       0       000010001D    285
     128       0       0       2       0       0       0               0D    286
     508     240       0       0       0       0       0       000010001D    287
     508       0       0       1       1       0       0               0D    288
     510     241       0       0       0       0       0       000010001D    289
     510       0       0       1       1       0       0               0D    290
     128     242       0       0       0       0       0       000010001D    291
     128       0       0       2       0       0       0               0D    292
     508     244       0       0       0       0       0       000010001D    293
     508       0       0       1       1       0       0               0D    294
     510     245       0       0       0       0       0       000010001D    295
     510       0       0       1       1       0       0               0D    296
     128     246       0       0       0       0       0       000010001D    297
     128       0       0       2       0       0       0               0D    298
     508     248       0       0       0       0       0       000010001D    299
     508       0       0       1       1       0       0               0D    300
     510     249       0       0       0       0       0       000010001D    301
     510       0       0       1       1       0       0               0D    302
     128     250       0       0       0       0       0       000010001D    303
     128       0       0       2       0       0       0               0D    304
     508     252       0       0       0       0       0       000010001D    305
     508       0       0       1       1       0       0               0D    306
     510     253       0       0       0       0       0       000010001D    307
     510       0       0       1       1       0       0               0D    308
     128     254       0       0       0       0       0       000010001D    309
     128       0       0       3       0       0       0               0D    310
     508     257       0       0       0       0       0       000010001D    311
     508       0       0       1       1       0       0               0D    312
     510     258       0       0       0       0       0       000010001D    313
     510       0       0       1       1       0       0               0D    314
     514     259       0       0       0       0       0       000010001D    315
     514       0       0       1       1       0       0               0D    316
     186     260       0       0       0       0       0       000000001D    317
     186       0       0       1       0       0       0               0D    318
     128     261       0       0       0       0       0       000010001D    319
     128       0       0       3       0       0       0               0D    320
     110     264       0       0       0       0       0       000010001D    321
     110       0       0       1       0       0       0               0D    322
     502     265       0       0       0       0       0       000010001D    323
     502       0       0       2       1       0       0               0D    324
     110     267       0       0       0       0       0       000010001D    325
     110       0       0       1       0       0       0               0D    326
     110     268       0       0       0       0       0       000010001D    327
     110       0       0       1       0       0       0               0D    328
     110     269       0       0       0       0       0       000010001D    329
     110       0       0       1       0       0       0               0D    330
     110     270       0       0       0       0       0       000010001D    331
     110       0       0       1       0       0       0               0D    332
     110     271       0       0       0       0       0       000010001D    333
     110       0       0       1       0       0       0               0D    334
     110     272       0       0       0       0       0       000010001D    335
     110       0       0       1       0       0       0               0D    336
     110     273       0       0       0       0       0       000010001D    337
     110       0       0       1       0       0       0               0D    338
     110     274       0       0       0       0       0       000010001D    339
     110       0       0       1       0       0       0               0D    340
     110     275       0       0       0       0       0       000010001D    341
     110       0       0       1       0       0       0               0D    342
     110     276       0       0       0       0       0       000010001D    343
     110       0       0       1       0       0       0               0D    344
     110     277       0       0       0       0       0       000010001D    345
     110       0       0       1       0       0       0               0D    346
     504     278       0       0       0       0       0       000010001D    347
     504       0       0       4       1       0       0               0D    348
     508     282       0       0       0       0       0       000010001D    349
     508       0       0       1       1       0       0               0D    350
     510     283       0       0       0       0       0       000010001D    351
     510       0       0       1       1       0       0               0D    352
     128     284       0       0       0       0       0       000010001D    353
     128       0       0       3       0       0       0               0D    354
     508     287       0       0       0       0       0       000010001D    355
     508       0       0       1       1       0       0               0D    356
     510     288       0       0       0       0       0       000010001D    357
     510       0       0       1       1       0       0               0D    358
     128     289       0       0       0       0       0       000010001D    359
     128       0       0       3       0       0       0               0D    360
     508     292       0       0       0       0       0       000010001D    361
     508       0       0       1       1       0       0               0D    362
     510     293       0       0       0       0       0       000010001D    363
     510       0       0       1       1       0       0               0D    364
     128     294       0       0       0       0       0       000010001D    365
     128       0       0       3       0       0       0               0D    366
     508     297       0       0       0       0       0       000010001D    367
     508       0       0       1       1       0       0               0D    368
     510     298       0       0       0       0       0       000010001D    369
     510       0       0       1       1       0       0               0D    370
     128     299       0       0       0       0       0       000010001D    371
     128       0       0       2       0       0       0               0D    372
     508     301       0       0       0       0       0       000010001D    373
     508       0       0       1       1       0       0               0D    374
     510     302       0       0       0       0       0       000010001D    375
     510       0       0       1       1       0       0               0D    376
     128     303       0       0       0       0       0       000010001D    377
     128       0       0       3       0       0       0               0D    378
     508     306       0       0       0       0       0       000010001D    379
     508       0       0       1       1       0       0               0D    380
     510     307       0       0       0       0       0       000010001D    381
     510       0       0       1       1       0       0               0D    382
     514     308       0       0       0       0       0       000010001D    383
     514       0       0       1       1       0       0               0D    384
     186     309       0       0       0       0       0       000000001D    385
     186       0       0       1       0       0       0               0D    386
     128     310       0       0       0       0       0       000010001D    387
     128       0       0       2       0       0       0               0D    388
     110     312       0       0       0       0       0       000010001D    389
     110       0       0       1       0       0       0               0D    390
     502     313       0       0       0       0       0       000010001D    391
     502       0       0       2       1       0       0               0D    392
     110     315       0       0       0       0       0       000010001D    393
     110       0       0       1       0       0       0               0D    394
     110     316       0       0       0       0       0       000010001D    395
     110       0       0       1       0       0       0               0D    396
     110     317       0       0       0       0       0       000010001D    397
     110       0       0       1       0       0       0               0D    398
     110     318       0       0       0       0       0       000010001D    399
     110       0       0       1       0       0       0               0D    400
     110     319       0       0       0       0       0       000010001D    401
     110       0       0       1       0       0       0               0D    402
     110     320       0       0       0       0       0       000010001D    403
     110       0       0       1       0       0       0               0D    404
     110     321       0       0       0       0       0       000010001D    405
     110       0       0       1       0       0       0               0D    406
     110     322       0       0       0       0       0       000010001D    407
     110       0       0       1       0       0       0               0D    408
     110     323       0       0       0       0       0       000010001D    409
     110       0       0       1       0       0       0               0D    410
     110     324       0       0       0       0       0       000010001D    411
     110       0       0       1       0       0       0               0D    412
     110     325       0       0       0       0       0       000010001D    413
     110       0       0       1       0       0       0               0D    414
     504     326       0       0       0       0       0       000010001D    415
     504       0       0       4       1       0       0               0D    416
     508     330       0       0       0       0       0       000010001D    417
     508       0       0       1       1       0       0               0D    418
     510     331       0       0       0       0       0       000010001D    419
     510       0       0       1       1       0       0               0D    420
     128     332       0       0       0       0       0       000010001D    421
     128       0       0       2       0       0       0               0D    422
     508     334       0       0       0       0       0       000010001D    423
     508       0       0       1       1       0       0               0D    424
     510     335       0       0       0       0       0       000010001D    425
     510       0       0       1       1       0       0               0D    426
     128     336       0       0       0       0       0       000010001D    427
     128       0       0       3       0       0       0               0D    428
     508     339       0       0       0       0       0       000010001D    429
     508       0       0       1       1       0       0               0D    430
     510     340       0       0       0       0       0       000010001D    431
     510       0       0       1       1       0       0               0D    432
     128     341       0       0       0       0       0       000010001D    433
     128       0       0       2       0       0       0               0D    434
     508     343       0       0       0       0       0       000010001D    435
     508       0       0       1       1       0       0               0D    436
     510     344       0       0       0       0       0       000010001D    437
     510       0       0       1       1       0       0               0D    438
     128     345       0       0       0       0       0       000010001D    439
     128       0       0       3       0       0       0               0D    440
     508     348       0       0       0       0       0       000010001D    441
     508       0       0       1       1       0       0               0D    442
     510     349       0       0       0       0       0       000010001D    443
     510       0       0       1       1       0       0               0D    444
     128     350       0       0       0       0       0       000010001D    445
     128       0       0       2       0       0       0               0D    446
     508     352       0       0       0       0       0       000010001D    447
     508       0       0       1       1       0       0               0D    448
     510     353       0       0       0       0       0       000010001D    449
     510       0       0       1       1       0       0               0D    450
     514     354       0       0       0       0       0       000010001D    451
     514       0       0       1       1       0       0               0D    452
     186     355       0       0       0       0       0       000000001D    453
     186       0       0       1       0       0       0               0D    454
     128     356       0       0       0       0       0       000010001D    455
     128       0       0       3       0       0       0               0D    456
     110     359       0       0       0       0       0       000010001D    457
     110       0       0       1       0       0       0               0D    458
     502     360       0       0       0       0       0       000010001D    459
     502       0       0       2       1       0       0               0D    460
     110     362       0       0       0       0       0       000010001D    461
     110       0       0       1       0       0       0               0D    462
     110     363       0       0       0       0       0       000010001D    463
     110       0       0       1       0       0       0               0D    464
     110     364       0       0       0       0       0       000010001D    465
     110       0       0       1       0       0       0               0D    466
     110     365       0       0       0       0       0       000010001D    467
     110       0       0       1       0       0       0               0D    468
     110     366       0       0       0       0       0       000010001D    469
     110       0       0       1       0       0       0               0D    470
     110     367       0       0       0       0       0       000010001D    471
     110       0       0       1       0       0       0               0D    472
     110     368       0       0       0       0       0       000010001D    473
     110       0       0       1       0       0       0               0D    474
     110     369       0       0       0       0       0       000010001D    475
     110       0       0       1       0       0       0               0D    476
     110     370       0       0       0       0       0       000010001D    477
     110       0       0       1       0       0       0               0D    478
     110     371       0       0       0       0       0       000010001D    479
     110       0       0       1       0       0       0               0D    480
     110     372       0       0       0       0       0       000010001D    481
     110       0       0       1       0       0       0               0D    482
     504     373       0       0       0       0       0       000010001D    483
     504       0       0       4       1       0       0               0D    484
     508     377       0       0       0       0       0       000010001D    485
     508       0       0       1       1       0       0               0D    486
     510     378       0       0       0       0       0       000010001D    487
     510       0       0       1       1       0       0               0D    488
     128     379       0       0       0       0       0       000010001D    489
     128       0       0       3       0       0       0               0D    490
     508     382       0       0       0       0       0       000010001D    491
     508       0       0       1       1       0       0               0D    492
     510     383       0       0       0       0       0       000010001D    493
     510       0       0       1       1       0       0               0D    494
     128     384       0       0       0       0       0       000010001D    495
     128       0       0       3       0       0       0               0D    496
     508     387       0       0       0       0       0       000010001D    497
     508       0       0       1       1       0       0               0D    498
     510     388       0       0       0       0       0       000010001D    499
     510       0       0       1       1       0       0               0D    500
     128     389       0       0       0       0       0       000010001D    501
     128       0       0       3       0       0       0               0D    502
     508     392       0       0       0       0       0       000010001D    503
     508       0       0       1       1       0       0               0D    504
     510     393       0       0       0       0       0       000010001D    505
     510       0       0       1       1       0       0               0D    506
     128     394       0       0       0       0       0       000010001D    507
     128       0       0       2       0       0       0               0D    508
     508     396       0       0       0       0       0       000010001D    509
     508       0       0       1       1       0       0               0D    510
     510     397       0       0       0       0       0       000010001D    511
     510       0       0       1       1       0       0               0D    512
     128     398       0       0       0       0       0       000010001D    513
     128       0       0       3       0       0       0               0D    514
     508     401       0       0       0       0       0       000010001D    515
     508       0       0       1       1       0       0               0D    516
     510     402       0       0       0       0       0       000010001D    517
     510       0       0       1       1       0       0               0D    518
     514     403       0       0       0       0       0       000010001D    519
     514       0       0       1       1       0       0               0D    520
     186     404       0       0       0       0       0       000000001D    521
     186       0       0       1       0       0       0               0D    522
     128     405       0       0       0       0       0       000010001D    523
     128       0       0       3       0       0       0               0D    524
     110     408       0       0       0       0       0       000010001D    525
     110       0       0       1       0       0       0               0D    526
     502     409       0       0       0       0       0       000010001D    527
     502       0       0       2       1       0       0               0D    528
     110     411       0       0       0       0       0       000010001D    529
     110       0       0       1       0       0       0               0D    530
     110     412       0       0       0       0       0       000010001D    531
     110       0       0       1       0       0       0               0D    532
     110     413       0       0       0       0       0       000010001D    533
     110       0       0       1       0       0       0               0D    534
     110     414       0       0       0       0       0       000010001D    535
     110       0       0       1       0       0       0               0D    536
     110     415       0       0       0       0       0       000010001D    537
     110       0       0       1       0       0       0               0D    538
     110     416       0       0       0       0       0       000010001D    539
     110       0       0       1       0       0       0               0D    540
     110     417       0       0       0       0       0       000010001D    541
     110       0       0       1       0       0       0               0D    542
     110     418       0       0       0       0       0       000010001D    543
     110       0       0       1       0       0       0               0D    544
     110     419       0       0       0       0       0       000010001D    545
     110       0       0       1       0       0       0               0D    546
     110     420       0       0       0       0       0       000010001D    547
     110       0       0       1       0       0       0               0D    548
     110     421       0       0       0       0       0       000010001D    549
     110       0       0       1       0       0       0               0D    550
     504     422       0       0       0       0       0       000010001D    551
     504       0       0       4       1       0       0               0D    552
     508     426       0       0       0       0       0       000010001D    553
     508       0       0       1       1       0       0               0D    554
     510     427       0       0       0       0       0       000010001D    555
     510       0       0       1       1       0       0               0D    556
     128     428       0       0       0       0       0       000010001D    557
     128       0       0       3       0       0       0               0D    558
     508     431       0       0       0       0       0       000010001D    559
     508       0       0       1       1       0       0               0D    560
     510     432       0       0       0       0       0       000010001D    561
     510       0       0       1       1       0       0               0D    562
     128     433       0       0       0       0       0       000010001D    563
     128       0       0       3       0       0       0               0D    564
     508     436       0       0       0       0       0       000010001D    565
     508       0       0       1       1       0       0               0D    566
     510     437       0       0       0       0       0       000010001D    567
     510       0       0       1       1       0       0               0D    568
     128     438       0       0       0       0       0       000010001D    569
     128       0       0       3       0       0       0               0D    570
     508     441       0       0       0       0       0       000010001D    571
     508       0       0       1       1       0       0               0D    572
     510     442       0       0       0       0       0       000010001D    573
     510       0       0       1       1       0       0               0D    574
     128     443       0       0       0       0       0       000010001D    575
     128       0       0       3       0       0       0               0D    576
     508     446       0       0       0       0       0       000010001D    577
     508       0       0       1       1       0       0               0D    578
     510     447       0       0       0       0       0       000010001D    579
     510       0       0       1       1       0       0               0D    580
     128     448       0       0       0       0       0       000010001D    581
     128       0       0       3       0       0       0               0D    582
     508     451       0       0       0       0       0       000010001D    583
     508       0       0       1       1       0       0               0D    584
     510     452       0       0       0       0       0       000010001D    585
     510       0       0       1       1       0       0               0D    586
     514     453       0       0       0       0       0       000010001D    587
     514       0       0       1       1       0       0               0D    588
     186     454       0       0       0       0       0       000000001D    589
     186       0       0       1       0       0       0               0D    590
     128     455       0       0       0       0       0       000010001D    591
     128       0       0       3       0       0       0               0D    592
     110     458       0       0       0       0       0       000010001D    593
     110       0       0       1       0       0       0               0D    594
     502     459       0       0       0       0       0       000010001D    595
     502       0       0       2       1       0       0               0D    596
     110     461       0       0       0       0       0       000010001D    597
     110       0       0       1       0       0       0               0D    598
     110     462       0       0       0       0       0       000010001D    599
     110       0       0       1       0       0       0               0D    600
     110     463       0       0       0       0       0       000010001D    601
     110       0       0       1       0       0       0               0D    602
     110     464       0       0       0       0       0       000010001D    603
     110       0       0       1       0       0       0               0D    604
     110     465       0       0       0       0       0       000010001D    605
     110       0       0       1       0       0       0               0D    606
     110     466       0       0       0       0       0       000010001D    607
     110       0       0       1       0       0       0               0D    608
     110     467       0       0       0       0       0       000010001D    609
     110       0       0       1       0       0       0               0D    610
     110     468       0       0       0       0       0       000010001D    611
     110       0       0       1       0       0       0               0D    612
     110     469       0       0       0       0       0       000010001D    613
     110       0       0       1       0       0       0               0D    614
     110     470       0       0       0       0       0       000010001D    615
     110       0       0       1       0       0       0               0D    616
     110     471       0       0       0       0       0       000010001D    617
     110       0       0       1       0       0       0               0D    618
     504     472       0       0       0       0       0       000010001D    619
     504       0       0       4       1       0       0               0D    620
     508     476       0       0       0       0       0       000010001D    621
     508       0       0       1       1       0       0               0D    622
     510     477       0       0       0       0       0       000010001D    623
     510       0       0       1       1       0       0               0D    624
     128     478       0       0       0       0       0       000010001D    625
     128       0       0       3       0       0       0               0D    626
     508     481       0       0       0       0       0       000010001D    627
     508       0       0       1       1       0       0               0D    628
     510     482       0       0       0       0       0       000010001D    629
     510       0       0       1       1       0       0               0D    630
     128     483       0       0       0       0       0       000010001D    631
     128       0       0       3       0       0       0               0D    632
     508     486       0       0       0       0       0       000010001D    633
     508       0       0       1       1       0       0               0D    634
     510     487       0       0       0       0       0       000010001D    635
     510       0       0       1       1       0       0               0D    636
     128     488       0       0       0       0       0       000010001D    637
     128       0       0       3       0       0       0               0D    638
     508     491       0       0       0       0       0       000010001D    639
     508       0       0       1       1       0       0               0D    640
     510     492       0       0       0       0       0       000010001D    641
     510       0       0       1       1       0       0               0D    642
     128     493       0       0       0       0       0       000010001D    643
     128       0       0       3       0       0       0               0D    644
     508     496       0       0       0       0       0       000010001D    645
     508       0       0       1       1       0       0               0D    646
     510     497       0       0       0       0       0       000010001D    647
     510       0       0       1       1       0       0               0D    648
     128     498       0       0       0       0       0       000010001D    649
     128       0       0       3       0       0       0               0D    650
     508     501       0       0       0       0       0       000010001D    651
     508       0       0       1       1       0       0               0D    652
     510     502       0       0       0       0       0       000010001D    653
     510       0       0       1       1       0       0               0D    654
     514     503       0       0       0       0       0       000010001D    655
     514       0       0       1       1       0       0               0D    656
     186     504       0       0       0       0       0       000000001D    657
     186       0       0       1       0       0       0               0D    658
128,1,1,1,1,0,0,1,0,0,0.,0.,20.,20.,0.,0.,15.,15.,1.,1.,1.,1.,         1P      1
0.,0.,-20.,-20.,0.,-20.,0.,15.,-20.,-20.,15.,-20.,0.,20.,0.,15.;       1P      2
110,0.,15.,-20.,0.,15.,0.;                                             3P      3
502,8,-20.,0.,0.,-20.,15.,0.,0.,15.,0.,0.,15.,-20.,0.,0.,0.,           5P      4
-20.,0.,-20.,-20.,15.,-20.,0.,0.,-20.;                                 5P      5
110,-20.,0.,0.,-20.,0.,-20.;                                           7P      6
110,0.,0.,-20.,0.,15.,-20.;                                            9P      7
110,-20.,15.,-20.,-20.,15.,0.;                                        11P      8
110,-20.,15.,0.,-20.,0.,0.;                                           13P      9
110,0.,15.,-20.,-20.,15.,-20.;                                        15P     10
110,0.,15.,0.,-20.,15.,0.;                                            17P     11
110,-20.,0.,0.,0.,0.,0.;                                              19P     12
110,0.,0.,0.,0.,15.,0.;                                               21P     13
110,-20.,15.,-20.,-20.,0.,-20.;                                       23P     14
110,-20.,0.,-20.,0.,0.,-20.;                                          25P     15
110,0.,0.,0.,0.,0.,-20.;                                              27P     16
504,12,3,5,4,5,3,7,5,1,5,6,9,5,8,5,4,11,5,7,5,2,13,5,2,5,1,15,5,      29P     17
4,5,7,17,5,3,5,2,19,5,1,5,5,21,5,5,5,3,23,5,7,5,6,25,5,6,5,8,27,      29P     18
5,5,5,8;                                                              29P     19
508,4,0,29,10,0,0,0,29,6,0,0,0,29,3,0,0,0,29,11,0,0;                  31P     20
510,1,1,1,31;                                                         33P     21
128,1,1,1,1,0,0,1,0,0,0.,0.,20.,20.,0.,0.,15.,15.,1.,1.,1.,1.,        35P     22
0.,0.,-20.,0.,0.,0.,0.,15.,-20.,0.,15.,0.,0.,20.,0.,15.;              35P     23
508,4,0,29,3,1,0,0,29,1,1,0,0,29,9,0,0,0,29,12,1,0;                   37P     24
510,35,1,1,37;                                                        39P     25
128,1,1,1,1,0,0,1,0,0,0.,0.,20.,20.,0.,0.,20.,20.,1.,1.,1.,1.,        41P     26
-20.,15.,-20.,-20.,15.,0.,0.,15.,-20.,0.,15.,0.,0.,20.,0.,20.;        41P     27
508,4,0,29,6,1,0,0,29,4,1,0,0,29,7,0,0,0,29,1,0,0;                    43P     28
510,41,1,1,43;                                                        45P     29
128,1,1,1,1,0,0,1,0,0,0.,0.,20.,20.,0.,0.,15.,15.,1.,1.,1.,1.,        47P     30
-20.,0.,-20.,-20.,0.,0.,-20.,15.,-20.,-20.,15.,0.,0.,20.,0.,15.;      47P     31
508,4,0,29,10,1,0,0,29,2,0,0,0,29,5,0,0,0,29,4,0,0;                   49P     32
510,47,1,1,49;                                                        51P     33
128,1,1,1,1,0,0,1,0,0,0.,0.,20.,20.,0.,0.,20.,20.,1.,1.,1.,1.,        53P     34
-20.,0.,-20.,-20.,0.,0.,0.,0.,-20.,0.,0.,0.,0.,20.,0.,20.;            53P     35
508,4,0,29,11,1,0,0,29,12,0,0,0,29,8,0,0,0,29,2,1,0;                  55P     36
510,53,1,1,55;                                                        57P     37
128,1,1,1,1,0,0,1,0,0,0.,0.,20.,20.,0.,0.,15.,15.,1.,1.,1.,1.,        59P     38
0.,0.,0.,-20.,0.,0.,0.,15.,0.,-20.,15.,0.,0.,20.,0.,15.;              59P     39
508,4,0,29,5,1,0,0,29,8,1,0,0,29,9,1,0,0,29,7,1,0;                    61P     40
510,59,1,1,61;                                                        63P     41
514,6,33,1,39,0,45,1,51,1,57,0,63,0;                                  65P     42
186,65,1,0;                                                           67P     43
128,1,1,1,1,0,0,1,0,0,0.,0.,26.45751311064591,26.45751311064591,      69P     44
0.,0.,26.45751311064591,26.45751311064591,1.,1.,1.,1.,                69P     45
-26.45751311064591,35.,-26.45751311064591,-26.45751311064591,         69P     46
35.,0.,0.,35.,-26.45751311064591,0.,35.,0.,0.,26.45751311064591,      69P     47
0.,26.45751311064591;                                                 69P     48
110,0.,35.,-26.45751311064591,0.,35.,0.;                              71P     49
502,4,0.,25.,0.,0.,35.,0.,-26.45751311064591,35.,0.,0.,35.,           73P     50
-26.45751311064591;                                                   73P     51
110,0.,25.,0.,0.,35.,0.;                                              75P     52
124,0.,-1.,0.,0.,1.,0.,0.,65.,0.,0.,1.,0.;                            77P     53
100,0.,0.,0.,-29.99999999999996,26.45751311064595,-40.,0.;            79P     54
124,0.,-1.,0.,0.,0.,0.,-1.,35.,1.,0.,0.,0.;                           81P     55
100,0.,0.,0.,0.,26.45751311064591,-26.45751311064591,0.;              83P     56
110,0.,35.,0.,-26.45751311064591,35.,0.;                              85P     57
124,0.,0.,1.,0.,0.,-1.,0.,65.,1.,0.,0.,0.;                            87P     58
100,0.,0.,0.,0.,40.,-26.45751311064589,30.00000000000001;             89P     59
504,6,71,73,4,73,2,75,73,1,73,2,79,73,3,73,1,83,73,3,73,4,85,73,      91P     60
2,73,3,89,73,1,73,4;                                                  91P     61
508,3,0,91,1,0,0,0,91,4,0,0,0,91,5,0,0;                               93P     62
510,69,1,1,93;                                                        95P     63
128,4,8,2,2,0,1,0,0,1,-1.5707963267949,-1.5707963267949,              97P     64
-1.5707963267949,0.,0.,1.5707963267949,1.5707963267949,               97P     65
1.5707963267949,0.,0.,0.,1.5707963267949,1.5707963267949,             97P     66
3.14159265358979,3.14159265358979,4.71238898038469,                   97P     67
4.71238898038469,6.28318530717959,6.28318530717959,                   97P     68
6.28318530717959,1.,0.70710678118655,1.,0.70710678118655,1.,          97P     69
0.70710678118655,0.5,0.70710678118655,0.5,0.70710678118655,1.,        97P     70
0.70710678118655,1.,0.70710678118655,1.,0.70710678118655,0.5,         97P     71
0.70710678118655,0.5,0.70710678118655,1.,0.70710678118655,1.,         97P     72
0.70710678118655,1.,0.70710678118655,0.5,0.70710678118655,0.5,        97P     73
0.70710678118655,1.,0.70710678118655,1.,0.70710678118655,1.,          97P     74
0.70710678118655,0.5,0.70710678118655,0.5,0.70710678118655,1.,        97P     75
0.70710678118655,1.,0.70710678118655,1.,-0.,65.,-40.,-40.,65.,        97P     76
-40.,-40.,65.,0.,-40.,65.,40.,-0.,65.,40.,-0.,65.,-40.,-40.,          97P     77
105.,-40.,-40.,105.,0.,-40.,105.,40.,-0.,65.,40.,0.,65.,-40.,0.,      97P     78
105.,-40.,0.,105.,0.,0.,105.,40.,0.,65.,40.,0.,65.,-40.,40.,          97P     79
105.,-40.,40.,105.,0.,40.,105.,40.,0.,65.,40.,0.,65.,-40.,40.,        97P     80
65.,-40.,40.,65.,0.,40.,65.,40.,0.,65.,40.,0.,65.,-40.,40.,25.,       97P     81
-40.,40.,25.,0.,40.,25.,40.,0.,65.,40.,0.,65.,-40.,0.,25.,-40.,       97P     82
0.,25.,0.,0.,25.,40.,0.,65.,40.,-0.,65.,-40.,-40.,25.,-40.,-40.,      97P     83
25.,0.,-40.,25.,40.,-0.,65.,40.,-0.,65.,-40.,-40.,65.,-40.,-40.,      97P     84
65.,0.,-40.,65.,40.,-0.,65.,40.,-1.5707963267949,                     97P     85
1.5707963267949,0.,6.28318530717959;                                  97P     86
508,3,0,91,4,1,0,0,91,6,0,0,0,91,3,0,0;                               99P     87
510,97,1,1,99;                                                       101P     88
128,1,1,1,1,0,0,1,0,0,0.,0.,26.45751311064591,26.45751311064591,     103P     89
0.,0.,10.,10.,1.,1.,1.,1.,0.,25.,-26.45751311064591,0.,25.,0.,       103P     90
0.,35.,-26.45751311064591,0.,35.,0.,0.,26.45751311064591,0.,10.;     103P     91
508,3,0,91,1,1,0,0,91,2,0,0,0,91,6,1,0;                              105P     92
510,103,1,1,105;                                                     107P     93
128,1,1,1,1,0,0,1,0,0,0.,0.,26.45751311064594,26.45751311064594,     109P     94
0.,0.,10.00000000000004,10.00000000000004,1.,1.,1.,1.,0.,25.,0.,     109P     95
-26.45751311064594,25.,0.,0.,35.00000000000004,0.,                   109P     96
-26.45751311064594,35.00000000000004,0.,0.,26.45751311064594,0.,     109P     97
10.00000000000004;                                                   109P     98
508,3,0,91,5,1,0,0,91,3,1,0,0,91,2,1,0;                              111P     99
510,109,1,1,111;                                                     113P    100
514,4,95,1,101,1,107,0,113,0;                                        115P    101
186,115,1,0;                                                         117P    102
128,1,1,1,1,0,0,1,0,0,0.,0.,20.,20.,0.,0.,10.,10.,1.,1.,1.,1.,       119P    103
0.,15.,-20.,-20.,15.,-20.,0.,25.,-20.,-20.,25.,-20.,0.,20.,0.,       119P    104
10.;                                                                 119P    105
110,-20.,25.,-20.,-20.,25.,0.;                                       121P    106
502,8,0.,15.,-20.,0.,15.,0.,0.,25.,-20.,-20.,25.,-20.,-20.,15.,      123P    107
-20.,-20.,15.,0.,-20.,25.,0.,0.,25.,0.;                              123P    108
110,0.,15.,0.,-20.,15.,0.;                                           125P    109
110,0.,15.,-20.,0.,15.,0.;                                           127P    110
110,0.,25.,0.,-20.,25.,0.;                                           129P    111
110,-20.,15.,0.,-20.,15.,-20.;                                       131P    112
110,0.,15.,-20.,0.,25.,-20.;                                         133P    113
110,-20.,25.,-20.,-20.,15.,-20.;                                     135P    114
110,0.,25.,-20.,-20.,25.,-20.;                                       137P    115
110,0.,25.,-20.,0.,25.,0.;                                           139P    116
110,-20.,25.,0.,-20.,15.,0.;                                         141P    117
110,0.,15.,0.,0.,25.,0.;                                             143P    118
110,-20.,15.,-20.,0.,15.,-20.;                                       145P    119
504,12,121,123,4,123,7,125,123,2,123,6,127,123,1,123,2,129,123,      147P    120
8,123,7,131,123,6,123,5,133,123,1,123,3,135,123,4,123,5,137,123,     147P    121
3,123,4,139,123,3,123,8,141,123,7,123,6,143,123,2,123,8,145,123,     147P    122
5,123,1;                                                             147P    123
508,4,0,147,7,0,0,0,147,8,0,0,0,147,6,0,0,0,147,12,0,0;              149P    124
510,119,1,1,149;                                                     151P    125
128,1,1,1,1,0,0,1,0,0,0.,0.,20.,20.,0.,0.,10.,10.,1.,1.,1.,1.,       153P    126
0.,15.,-20.,0.,15.,0.,0.,25.,-20.,0.,25.,0.,0.,20.,0.,10.;           153P    127
508,4,0,147,6,1,0,0,147,9,1,0,0,147,11,0,0,0,147,3,0,0;              155P    128
510,153,1,1,155;                                                     157P    129
128,1,1,1,1,0,0,1,0,0,0.,0.,20.,20.,0.,0.,20.,20.,1.,1.,1.,1.,       159P    130
-20.,25.,0.,-20.,25.,-20.,0.,25.,0.,0.,25.,-20.,0.,20.,0.,20.;       159P    131
508,4,0,147,8,1,0,0,147,1,1,0,0,147,4,0,0,0,147,9,0,0;               161P    132
510,159,1,1,161;                                                     163P    133
128,1,1,1,1,0,0,1,0,0,0.,0.,20.,20.,0.,0.,10.,10.,1.,1.,1.,1.,       165P    134
-20.,15.,-20.,-20.,15.,0.,-20.,25.,-20.,-20.,25.,0.,0.,20.,0.,       165P    135
10.;                                                                 165P    136
508,4,0,147,7,1,0,0,147,5,0,0,0,147,10,0,0,0,147,1,0,0;              167P    137
510,165,1,1,167;                                                     169P    138
128,1,1,1,1,0,0,1,0,0,0.,0.,20.,20.,0.,0.,10.,10.,1.,1.,1.,1.,       171P    139
0.,15.,0.,-20.,15.,0.,0.,25.,0.,-20.,25.,0.,0.,20.,0.,10.;           171P    140
508,4,0,147,10,1,0,0,147,2,0,0,0,147,11,1,0,0,147,4,1,0;             173P    141
510,171,1,1,173;                                                     175P    142
128,1,1,1,1,0,0,1,0,0,0.,0.,20.,20.,0.,0.,20.,20.,1.,1.,1.,1.,       177P    143
-20.,15.,-20.,-20.,15.,0.,0.,15.,-20.,0.,15.,0.,0.,20.,0.,20.;       177P    144
508,4,0,147,12,1,0,0,147,3,1,0,0,147,2,1,0,0,147,5,1,0;              179P    145
510,177,1,1,179;                                                     181P    146
514,6,151,1,157,0,163,0,169,1,175,0,181,0;                           183P    147
186,183,1,0;                                                         185P    148
128,1,1,1,1,0,0,1,0,0,0.,0.,26.45751311064591,26.45751311064591,     187P    149
0.,0.,26.45751311064591,26.45751311064591,1.,1.,1.,1.,               187P    150
-26.45751311064591,35.,-26.45751311064591,-26.45751311064591,        187P    151
35.,0.,0.,35.,-26.45751311064591,0.,35.,0.,0.,26.45751311064591,     187P    152
0.,26.45751311064591;                                                187P    153
110,0.,35.,-26.45751311064591,0.,35.,0.;                             189P    154
502,6,-26.45751311064591,35.,0.,0.,65.,-40.,0.,35.,0.,0.,35.,        191P    155
-26.45751311064591,0.,65.,0.,-40.,65.,0.;                            191P    156
124,0.,-1.,0.,0.,0.,0.,-1.,35.,1.,0.,0.,0.;                          193P    157
100,0.,0.,0.,0.,26.45751311064591,-26.45751311064591,0.;             195P    158
110,0.,65.,0.,-40.,65.,0.;                                           197P    159
110,0.,35.,0.,0.,65.,0.;                                             199P    160
124,0.,0.,1.,0.,0.,-1.,0.,65.,1.,0.,0.,0.;                           201P    161
100,0.,0.,0.,-26.45751311064589,30.00000000000001,-40.,0.;           203P    162
110,0.,65.,-40.,0.,65.,0.;                                           205P    163
110,0.,35.,0.,-26.45751311064591,35.,0.;                             207P    164
124,0.,-1.,0.,0.,0.,0.,-1.,65.,1.,0.,0.,0.;                          209P    165
100,0.,0.,0.,0.,40.,-40.,0.;                                         211P    166
124,0.,-1.,0.,0.,1.,0.,0.,65.,0.,0.,1.,0.;                           213P    167
100,0.,0.,0.,0.,40.,-29.99999999999996,26.45751311064595;            215P    168
504,9,189,191,4,191,3,195,191,1,191,4,197,191,5,191,6,199,191,3,     217P    169
191,5,203,191,4,191,2,205,191,2,191,5,207,191,3,191,1,211,191,6,     217P    170
191,2,215,191,6,191,1;                                               217P    171
508,3,0,217,1,1,0,0,217,7,1,0,0,217,2,1,0;                           219P    172
510,187,1,1,219;                                                     221P    173
128,1,1,1,1,0,0,1,0,0,0.,0.,40.,40.,0.,0.,30.,30.,1.,1.,1.,1.,       223P    174
0.,35.,0.,-40.,35.,0.,0.,65.,0.,-40.,65.,0.,0.,40.,0.,30.;           223P    175
508,4,0,217,7,0,0,0,217,4,1,0,0,217,3,1,0,0,217,9,1,0;               225P    176
510,223,1,1,225;                                                     227P    177
128,1,1,1,1,0,0,1,0,0,0.,0.,40.,40.,0.,0.,30.00000000000001,         229P    178
30.00000000000001,1.,1.,1.,1.,0.,34.99999999999999,-40.,0.,          229P    179
34.99999999999999,0.,0.,65.,-40.,0.,65.,0.,0.,40.,0.,                229P    180
30.00000000000001;                                                   229P    181
508,4,0,217,1,0,0,0,217,5,1,0,0,217,6,1,0,0,217,4,0,0;               231P    182
510,229,1,1,231;                                                     233P    183
128,1,1,1,1,0,0,1,0,0,0.,0.,40.,40.,0.,0.,40.,40.,1.,1.,1.,1.,       235P    184
-40.,65.,-40.,-40.,65.,0.,0.,65.,-40.,0.,65.,0.,0.,40.,0.,40.;       235P    185
508,3,0,217,3,0,0,0,217,6,0,0,0,217,8,0,0;                           237P    186
510,235,1,1,237;                                                     239P    187
128,4,8,2,2,0,1,0,0,1,-1.5707963267949,-1.5707963267949,             241P    188
-1.5707963267949,0.,0.,1.5707963267949,1.5707963267949,              241P    189
1.5707963267949,0.,0.,0.,1.5707963267949,1.5707963267949,            241P    190
3.14159265358979,3.14159265358979,4.71238898038469,                  241P    191
4.71238898038469,6.28318530717959,6.28318530717959,                  241P    192
6.28318530717959,1.,0.70710678118655,1.,0.70710678118655,1.,         241P    193
0.70710678118655,0.5,0.70710678118655,0.5,0.70710678118655,1.,       241P    194
0.70710678118655,1.,0.70710678118655,1.,0.70710678118655,0.5,        241P    195
0.70710678118655,0.5,0.70710678118655,1.,0.70710678118655,1.,        241P    196
0.70710678118655,1.,0.70710678118655,0.5,0.70710678118655,0.5,       241P    197
0.70710678118655,1.,0.70710678118655,1.,0.70710678118655,1.,         241P    198
0.70710678118655,0.5,0.70710678118655,0.5,0.70710678118655,1.,       241P    199
0.70710678118655,1.,0.70710678118655,1.,-0.,65.,-40.,-40.,65.,       241P    200
-40.,-40.,65.,0.,-40.,65.,40.,-0.,65.,40.,-0.,65.,-40.,-40.,         241P    201
105.,-40.,-40.,105.,0.,-40.,105.,40.,-0.,65.,40.,0.,65.,-40.,0.,     241P    202
105.,-40.,0.,105.,0.,0.,105.,40.,0.,65.,40.,0.,65.,-40.,40.,         241P    203
105.,-40.,40.,105.,0.,40.,105.,40.,0.,65.,40.,0.,65.,-40.,40.,       241P    204
65.,-40.,40.,65.,0.,40.,65.,40.,0.,65.,40.,0.,65.,-40.,40.,25.,      241P    205
-40.,40.,25.,0.,40.,25.,40.,0.,65.,40.,0.,65.,-40.,0.,25.,-40.,      241P    206
0.,25.,0.,0.,25.,40.,0.,65.,40.,-0.,65.,-40.,-40.,25.,-40.,-40.,     241P    207
25.,0.,-40.,25.,40.,-0.,65.,40.,-0.,65.,-40.,-40.,65.,-40.,-40.,     241P    208
65.,0.,-40.,65.,40.,-0.,65.,40.,-1.5707963267949,                    241P    209
1.5707963267949,0.,6.28318530717959;                                 241P    210
508,4,0,217,2,0,0,0,217,9,0,0,0,217,8,1,0,0,217,5,0,0;               243P    211
510,241,1,1,243;                                                     245P    212
514,5,221,0,227,0,233,0,239,1,245,1;                                 247P    213
186,247,1,0;                                                         249P    214
128,1,1,1,1,0,0,1,0,0,0.,0.,50.,50.,0.,0.,15.,15.,1.,1.,1.,1.,       251P    215
-20.,0.,-20.,-70.,0.,-20.,-20.,15.,-20.,-70.,15.,-20.,0.,50.,0.,     251P    216
15.;                                                                 251P    217
110,-20.,0.,-20.,-20.,15.,-20.;                                      253P    218
502,8,-20.,15.,-20.,-20.,0.,-20.,-70.,15.,-20.,-70.,0.,0.,-20.,      255P    219
15.,0.,-70.,15.,0.,-20.,0.,0.,-70.,0.,-20.;                          255P    220
110,-20.,15.,-20.,-20.,15.,0.;                                       257P    221
110,-20.,15.,-20.,-70.,15.,-20.;                                     259P    222
110,-20.,0.,0.,-20.,0.,-20.;                                         261P    223
110,-20.,15.,0.,-70.,15.,0.;                                         263P    224
110,-70.,0.,0.,-70.,0.,-20.;                                         265P    225
110,-70.,15.,0.,-70.,15.,-20.;                                       267P    226
110,-70.,0.,0.,-20.,0.,0.;                                           269P    227
110,-20.,15.,0.,-20.,0.,0.;                                          271P    228
110,-70.,0.,-20.,-20.,0.,-20.;                                       273P    229
110,-70.,15.,-20.,-70.,0.,-20.;                                      275P    230
110,-70.,15.,0.,-70.,0.,0.;                                          277P    231
504,12,253,255,2,255,1,257,255,1,255,5,259,255,1,255,3,261,255,      279P    232
7,255,2,263,255,5,255,6,265,255,4,255,8,267,255,6,255,3,269,255,     279P    233
4,255,7,271,255,5,255,7,273,255,8,255,2,275,255,3,255,8,277,255,     279P    234
6,255,4;                                                             279P    235
508,4,0,279,1,0,0,0,279,10,0,0,0,279,11,0,0,0,279,3,0,0;             281P    236
510,251,1,1,281;                                                     283P    237
128,1,1,1,1,0,0,1,0,0,0.,0.,20.,20.,0.,0.,15.,15.,1.,1.,1.,1.,       285P    238
-70.,0.,0.,-70.,0.,-20.,-70.,15.,0.,-70.,15.,-20.,0.,20.,0.,15.;     285P    239
508,4,0,279,11,1,0,0,279,6,0,0,0,279,12,0,0,0,279,7,1,0;             287P    240
510,285,1,1,287;                                                     289P    241
128,1,1,1,1,0,0,1,0,0,0.,0.,20.,20.,0.,0.,50.,50.,1.,1.,1.,1.,       291P    242
-70.,0.,-20.,-70.,0.,0.,-20.,0.,-20.,-20.,0.,0.,0.,20.,0.,50.;       291P    243
508,4,0,279,10,1,0,0,279,4,0,0,0,279,8,0,0,0,279,6,1,0;              293P    244
510,291,1,1,293;                                                     295P    245
128,1,1,1,1,0,0,1,0,0,0.,0.,20.,20.,0.,0.,15.,15.,1.,1.,1.,1.,       297P    246
-20.,0.,-20.,-20.,0.,0.,-20.,15.,-20.,-20.,15.,0.,0.,20.,0.,15.;     297P    247
508,4,0,279,1,1,0,0,279,2,1,0,0,279,9,1,0,0,279,4,1,0;               299P    248
510,297,1,1,299;                                                     301P    249
128,1,1,1,1,0,0,1,0,0,0.,0.,50.,50.,0.,0.,15.,15.,1.,1.,1.,1.,       303P    250
-20.,0.,0.,-70.,0.,0.,-20.,15.,0.,-70.,15.,0.,0.,50.,0.,15.;         303P    251
508,4,0,279,9,0,0,0,279,5,1,0,0,279,12,1,0,0,279,8,1,0;              305P    252
510,303,1,1,305;                                                     307P    253
128,1,1,1,1,0,0,1,0,0,0.,0.,20.,20.,0.,0.,50.,50.,1.,1.,1.,1.,       309P    254
-70.,15.,-20.,-70.,15.,0.,-20.,15.,-20.,-20.,15.,0.,0.,20.,0.,       309P    255
50.;                                                                 309P    256
508,4,0,279,3,1,0,0,279,7,0,0,0,279,5,0,0,0,279,2,0,0;               311P    257
510,309,1,1,311;                                                     313P    258
514,6,283,1,289,0,295,0,301,0,307,0,313,1;                           315P    259
186,315,1,0;                                                         317P    260
128,1,1,1,1,0,0,1,0,0,0.,0.,50.,50.,0.,0.,10.,10.,1.,1.,1.,1.,       319P    261
-20.,15.,-20.,-70.,15.,-20.,-20.,25.,-20.,-70.,25.,-20.,0.,50.,      319P    262
0.,10.;                                                              319P    263
110,-20.,15.,0.,-70.,15.,0.;                                         321P    264
502,8,-20.,15.,-20.,-20.,25.,0.,-20.,25.,-20.,-20.,15.,0.,-70.,      323P    265
25.,0.,-70.,15.,0.,-70.,15.,-20.,-70.,25.,-20.;                      323P    266
110,-70.,25.,0.,-70.,25.,-20.;                                       325P    267
110,-70.,15.,-20.,-20.,15.,-20.;                                     327P    268
110,-70.,15.,0.,-70.,15.,-20.;                                       329P    269
110,-20.,25.,-20.,-70.,25.,-20.;                                     331P    270
110,-20.,15.,0.,-20.,15.,-20.;                                       333P    271
110,-70.,25.,0.,-70.,15.,0.;                                         335P    272
110,-70.,25.,-20.,-70.,15.,-20.;                                     337P    273
110,-20.,25.,0.,-20.,15.,0.;                                         339P    274
110,-20.,25.,-20.,-20.,25.,0.;                                       341P    275
110,-20.,25.,0.,-70.,25.,0.;                                         343P    276
110,-20.,15.,-20.,-20.,25.,-20.;                                     345P    277
504,12,321,323,4,323,6,325,323,5,323,8,327,323,7,323,1,329,323,      347P    278
6,323,7,331,323,3,323,8,333,323,4,323,1,335,323,5,323,6,337,323,     347P    279
8,323,7,339,323,2,323,4,341,323,3,323,2,343,323,2,323,5,345,323,     347P    280
1,323,3;                                                             347P    281
508,4,0,347,12,0,0,0,347,3,0,0,0,347,8,0,0,0,347,5,0,0;              349P    282
510,319,1,1,349;                                                     351P    283
128,1,1,1,1,0,0,1,0,0,0.,0.,20.,20.,0.,0.,10.,10.,1.,1.,1.,1.,       353P    284
-70.,15.,0.,-70.,15.,-20.,-70.,25.,0.,-70.,25.,-20.,0.,20.,0.,       353P    285
10.;                                                                 353P    286
508,4,0,347,8,1,0,0,347,4,0,0,0,347,7,0,0,0,347,2,1,0;               355P    287
510,353,1,1,355;                                                     357P    288
128,1,1,1,1,0,0,1,0,0,0.,0.,20.,20.,0.,0.,50.,50.,1.,1.,1.,1.,       359P    289
-70.,15.,-20.,-70.,15.,0.,-20.,15.,-20.,-20.,15.,0.,0.,20.,0.,       359P    290
50.;                                                                 359P    291
508,4,0,347,3,1,0,0,347,6,0,0,0,347,1,1,0,0,347,4,1,0;               361P    292
510,359,1,1,361;                                                     363P    293
128,1,1,1,1,0,0,1,0,0,0.,0.,20.,20.,0.,0.,10.,10.,1.,1.,1.,1.,       365P    294
-20.,15.,-20.,-20.,15.,0.,-20.,25.,-20.,-20.,25.,0.,0.,20.,0.,       365P    295
10.;                                                                 365P    296
508,4,0,347,12,1,0,0,347,10,1,0,0,347,9,1,0,0,347,6,1,0;             367P    297
510,365,1,1,367;                                                     369P    298
128,1,1,1,1,0,0,1,0,0,0.,0.,50.,50.,0.,0.,10.,10.,1.,1.,1.,1.,       371P    299
-20.,15.,0.,-70.,15.,0.,-20.,25.,0.,-70.,25.,0.,0.,50.,0.,10.;       371P    300
508,4,0,347,9,0,0,0,347,11,1,0,0,347,7,1,0,0,347,1,0,0;              373P    301
510,371,1,1,373;                                                     375P    302
128,1,1,1,1,0,0,1,0,0,0.,0.,20.,20.,0.,0.,50.,50.,1.,1.,1.,1.,       377P    303
-70.,25.,0.,-70.,25.,-20.,-20.,25.,0.,-20.,25.,-20.,0.,20.,0.,       377P    304
50.;                                                                 377P    305
508,4,0,347,5,1,0,0,347,2,0,0,0,347,11,0,0,0,347,10,0,0;             379P    306
510,377,1,1,379;                                                     381P    307
514,6,351,1,357,0,363,0,369,0,375,0,381,0;                           383P    308
186,383,1,0;                                                         385P    309
128,1,1,1,1,0,0,1,0,0,0.,0.,20.,20.,0.,0.,15.,15.,1.,1.,1.,1.,       387P    310
0.,0.,-20.,-20.,0.,-20.,0.,15.,-20.,-20.,15.,-20.,0.,20.,0.,15.;     387P    311
110,0.,15.,-70.,0.,15.,-20.;                                         389P    312
502,8,-20.,15.,-20.,0.,0.,-70.,-20.,0.,-70.,-20.,15.,-70.,-20.,      391P    313
0.,-20.,0.,15.,-70.,0.,0.,-20.,0.,15.,-20.;                          391P    314
110,-20.,0.,-20.,-20.,0.,-70.;                                       393P    315
110,0.,0.,-70.,0.,15.,-70.;                                          395P    316
110,0.,0.,-70.,-20.,0.,-70.;                                         397P    317
110,-20.,15.,-70.,-20.,15.,-20.;                                     399P    318
110,-20.,0.,-70.,-20.,15.,-70.;                                      401P    319
110,-20.,15.,-20.,-20.,0.,-20.;                                      403P    320
110,0.,0.,-20.,0.,0.,-70.;                                           405P    321
110,-20.,15.,-70.,0.,15.,-70.;                                       407P    322
110,-20.,0.,-20.,0.,0.,-20.;                                         409P    323
110,0.,0.,-20.,0.,15.,-20.;                                          411P    324
110,0.,15.,-20.,-20.,15.,-20.;                                       413P    325
504,12,389,391,6,391,8,393,391,5,391,3,395,391,2,391,6,397,391,      415P    326
2,391,3,399,391,4,391,1,401,391,3,391,4,403,391,1,391,5,405,391,     415P    327
7,391,2,407,391,4,391,6,409,391,5,391,7,411,391,7,391,8,413,391,     415P    328
8,391,1;                                                             415P    329
508,4,0,415,7,1,0,0,415,10,1,0,0,415,11,1,0,0,415,12,1,0;            417P    330
510,387,1,1,417;                                                     419P    331
128,1,1,1,1,0,0,1,0,0,0.,0.,50.,50.,0.,0.,20.,20.,1.,1.,1.,1.,       421P    332
-20.,0.,-70.,-20.,0.,-20.,0.,0.,-70.,0.,0.,-20.,0.,50.,0.,20.;       421P    333
508,4,0,415,10,0,0,0,415,2,1,0,0,415,4,0,0,0,415,8,0,0;              423P    334
510,421,1,1,423;                                                     425P    335
128,1,1,1,1,0,0,1,0,0,0.,0.,50.,50.,0.,0.,15.,15.,1.,1.,1.,1.,       427P    336
-20.,0.,-70.,-20.,0.,-20.,-20.,15.,-70.,-20.,15.,-20.,0.,50.,0.,     427P    337
15.;                                                                 427P    338
508,4,0,415,7,0,0,0,415,5,0,0,0,415,6,0,0,0,415,2,0,0;               429P    339
510,427,1,1,429;                                                     431P    340
128,1,1,1,1,0,0,1,0,0,0.,0.,20.,20.,0.,0.,15.,15.,1.,1.,1.,1.,       433P    341
-20.,0.,-70.,0.,0.,-70.,-20.,15.,-70.,0.,15.,-70.,0.,20.,0.,15.;     433P    342
508,4,0,415,6,1,0,0,415,9,1,0,0,415,3,0,0,0,415,4,1,0;               435P    343
510,433,1,1,435;                                                     437P    344
128,1,1,1,1,0,0,1,0,0,0.,0.,50.,50.,0.,0.,20.,20.,1.,1.,1.,1.,       439P    345
-20.,15.,-70.,-20.,15.,-20.,0.,15.,-70.,0.,15.,-20.,0.,50.,0.,       439P    346
20.;                                                                 439P    347
508,4,0,415,12,0,0,0,415,1,0,0,0,415,9,0,0,0,415,5,1,0;              441P    348
510,439,1,1,441;                                                     443P    349
128,1,1,1,1,0,0,1,0,0,0.,0.,50.,50.,0.,0.,15.,15.,1.,1.,1.,1.,       445P    350
0.,0.,-70.,0.,0.,-20.,0.,15.,-70.,0.,15.,-20.,0.,50.,0.,15.;         445P    351
508,4,0,415,11,0,0,0,415,8,1,0,0,415,3,1,0,0,415,1,1,0;              447P    352
510,445,1,1,447;                                                     449P    353
514,6,419,0,425,0,431,1,437,0,443,1,449,0;                           451P    354
186,451,1,0;                                                         453P    355
128,1,1,1,1,0,0,1,0,0,0.,0.,20.,20.,0.,0.,10.,10.,1.,1.,1.,1.,       455P    356
0.,15.,-20.,-20.,15.,-20.,0.,25.,-20.,-20.,25.,-20.,0.,20.,0.,       455P    357
10.;                                                                 455P    358
110,0.,15.,-70.,0.,15.,-20.;                                         457P    359
502,8,0.,25.,-20.,0.,15.,-70.,-20.,15.,-70.,-20.,15.,-20.,-20.,      459P    360
25.,-20.,-20.,25.,-70.,0.,25.,-70.,0.,15.,-20.;                      459P    361
110,0.,15.,-20.,0.,25.,-20.;                                         461P    362
110,-20.,25.,-20.,-20.,15.,-20.;                                     463P    363
110,-20.,15.,-20.,-20.,15.,-70.;                                     465P    364
110,0.,25.,-70.,0.,25.,-20.;                                         467P    365
110,-20.,25.,-70.,-20.,25.,-20.;                                     469P    366
110,-20.,15.,-70.,-20.,25.,-70.;                                     471P    367
110,-20.,25.,-70.,0.,25.,-70.;                                       473P    368
110,-20.,15.,-20.,0.,15.,-20.;                                       475P    369
110,0.,25.,-20.,-20.,25.,-20.;                                       477P    370
110,-20.,15.,-70.,0.,15.,-70.;                                       479P    371
110,0.,15.,-70.,0.,25.,-70.;                                         481P    372
504,12,457,459,2,459,8,461,459,8,459,1,463,459,5,459,4,465,459,      483P    373
4,459,3,467,459,7,459,1,469,459,6,459,5,471,459,3,459,6,473,459,     483P    374
6,459,7,475,459,4,459,8,477,459,1,459,5,479,459,3,459,2,481,459,     483P    375
2,459,7;                                                             483P    376
508,4,0,483,3,1,0,0,483,9,1,0,0,483,2,1,0,0,483,10,1,0;              485P    377
510,455,1,1,485;                                                     487P    378
128,1,1,1,1,0,0,1,0,0,0.,0.,50.,50.,0.,0.,20.,20.,1.,1.,1.,1.,       489P    379
-20.,15.,-70.,-20.,15.,-20.,0.,15.,-70.,0.,15.,-20.,0.,50.,0.,       489P    380
20.;                                                                 489P    381
508,4,0,483,9,0,0,0,483,4,1,0,0,483,11,1,0,0,483,1,1,0;              491P    382
510,489,1,1,491;                                                     493P    383
128,1,1,1,1,0,0,1,0,0,0.,0.,50.,50.,0.,0.,10.,10.,1.,1.,1.,1.,       495P    384
-20.,15.,-70.,-20.,15.,-20.,-20.,25.,-70.,-20.,25.,-20.,0.,50.,      495P    385
0.,10.;                                                              495P    386
508,4,0,483,3,0,0,0,483,6,0,0,0,483,7,0,0,0,483,4,0,0;               497P    387
510,495,1,1,497;                                                     499P    388
128,1,1,1,1,0,0,1,0,0,0.,0.,50.,50.,0.,0.,20.,20.,1.,1.,1.,1.,       501P    389
-20.,25.,-20.,-20.,25.,-70.,0.,25.,-20.,0.,25.,-70.,0.,50.,0.,       501P    390
20.;                                                                 501P    391
508,4,0,483,10,0,0,0,483,5,0,0,0,483,8,0,0,0,483,6,1,0;              503P    392
510,501,1,1,503;                                                     505P    393
128,1,1,1,1,0,0,1,0,0,0.,0.,50.,50.,0.,0.,10.,10.,1.,1.,1.,1.,       507P    394
0.,15.,-70.,0.,15.,-20.,0.,25.,-70.,0.,25.,-20.,0.,50.,0.,10.;       507P    395
508,4,0,483,2,0,0,0,483,1,0,0,0,483,12,1,0,0,483,5,1,0;              509P    396
510,507,1,1,509;                                                     511P    397
128,1,1,1,1,0,0,1,0,0,0.,0.,20.,20.,0.,0.,10.,10.,1.,1.,1.,1.,       513P    398
-20.,15.,-70.,0.,15.,-70.,-20.,25.,-70.,0.,25.,-70.,0.,20.,0.,       513P    399
10.;                                                                 513P    400
508,4,0,483,7,1,0,0,483,8,1,0,0,483,12,0,0,0,483,11,0,0;             515P    401
510,513,1,1,515;                                                     517P    402
514,6,487,0,493,0,499,1,505,0,511,0,517,0;                           519P    403
186,519,1,0;                                                         521P    404
128,1,1,1,1,0,0,1,0,0,0.,0.,50.,50.,0.,0.,15.,15.,1.,1.,1.,1.,       523P    405
-20.,0.,-20.,-70.,0.,-20.,-20.,15.,-20.,-70.,15.,-20.,0.,50.,0.,     523P    406
15.;                                                                 523P    407
110,-70.,15.,-20.,-70.,15.,-70.;                                     525P    408
502,8,-70.,0.,-70.,-20.,15.,-70.,-70.,0.,-20.,-20.,0.,-20.,-70.,     527P    409
15.,-20.,-20.,15.,-20.,-20.,0.,-70.,-70.,15.,-70.;                   527P    410
110,-70.,15.,-20.,-70.,0.,-20.;                                      529P    411
110,-20.,0.,-70.,-20.,15.,-70.;                                      531P    412
110,-20.,0.,-70.,-70.,0.,-70.;                                       533P    413
110,-70.,15.,-70.,-20.,15.,-70.;                                     535P    414
110,-20.,0.,-20.,-20.,0.,-70.;                                       537P    415
110,-20.,15.,-20.,-70.,15.,-20.;                                     539P    416
110,-20.,15.,-70.,-20.,15.,-20.;                                     541P    417
110,-70.,0.,-20.,-70.,0.,-70.;                                       543P    418
110,-70.,0.,-20.,-20.,0.,-20.;                                       545P    419
110,-70.,0.,-70.,-70.,15.,-70.;                                      547P    420
110,-20.,0.,-20.,-20.,15.,-20.;                                      549P    421
504,12,525,527,5,527,8,529,527,5,527,3,531,527,7,527,2,533,527,      551P    422
7,527,1,535,527,8,527,2,537,527,4,527,7,539,527,6,527,5,541,527,     551P    423
2,527,6,543,527,3,527,1,545,527,3,527,4,547,527,1,527,8,549,527,     551P    424
4,527,6;                                                             551P    425
508,4,0,551,12,1,0,0,551,7,1,0,0,551,2,1,0,0,551,10,1,0;             553P    426
510,523,1,1,553;                                                     555P    427
128,1,1,1,1,0,0,1,0,0,0.,0.,50.,50.,0.,0.,50.,50.,1.,1.,1.,1.,       557P    428
-70.,15.,-70.,-70.,15.,-20.,-20.,15.,-70.,-20.,15.,-20.,0.,50.,      557P    429
0.,50.;                                                              557P    430
508,4,0,551,7,0,0,0,551,8,0,0,0,551,5,0,0,0,551,1,0,0;               559P    431
510,557,1,1,559;                                                     561P    432
128,1,1,1,1,0,0,1,0,0,0.,0.,50.,50.,0.,0.,15.,15.,1.,1.,1.,1.,       563P    433
-20.,0.,-70.,-20.,0.,-20.,-20.,15.,-70.,-20.,15.,-20.,0.,50.,0.,     563P    434
15.;                                                                 563P    435
508,4,0,551,12,0,0,0,551,6,1,0,0,551,3,1,0,0,551,8,1,0;              565P    436
510,563,1,1,565;                                                     567P    437
128,1,1,1,1,0,0,1,0,0,0.,0.,50.,50.,0.,0.,15.,15.,1.,1.,1.,1.,       569P    438
-70.,0.,-70.,-20.,0.,-70.,-70.,15.,-70.,-20.,15.,-70.,0.,50.,0.,     569P    439
15.;                                                                 569P    440
508,4,0,551,3,0,0,0,551,4,1,0,0,551,11,1,0,0,551,5,1,0;              571P    441
510,569,1,1,571;                                                     573P    442
128,1,1,1,1,0,0,1,0,0,0.,0.,50.,50.,0.,0.,50.,50.,1.,1.,1.,1.,       575P    443
-70.,0.,-70.,-70.,0.,-20.,-20.,0.,-70.,-20.,0.,-20.,0.,50.,0.,       575P    444
50.;                                                                 575P    445
508,4,0,551,10,0,0,0,551,9,1,0,0,551,4,0,0,0,551,6,0,0;              577P    446
510,575,1,1,577;                                                     579P    447
128,1,1,1,1,0,0,1,0,0,0.,0.,50.,50.,0.,0.,15.,15.,1.,1.,1.,1.,       581P    448
-70.,0.,-20.,-70.,0.,-70.,-70.,15.,-20.,-70.,15.,-70.,0.,50.,0.,     581P    449
15.;                                                                 581P    450
508,4,0,551,2,0,0,0,551,1,1,0,0,551,11,0,0,0,551,9,0,0;              583P    451
510,581,1,1,583;                                                     585P    452
514,6,555,0,561,1,567,0,573,0,579,0,585,0;                           587P    453
186,587,1,0;                                                         589P    454
128,1,1,1,1,0,0,1,0,0,0.,0.,50.,50.,0.,0.,10.,10.,1.,1.,1.,1.,       591P    455
-20.,15.,-20.,-70.,15.,-20.,-20.,25.,-20.,-70.,25.,-20.,0.,50.,      591P    456
0.,10.;                                                              591P    457
110,-70.,25.,-70.,-20.,25.,-70.;                                     593P    458
502,8,-70.,25.,-70.,-20.,25.,-70.,-70.,25.,-20.,-20.,15.,-20.,       595P    459
-20.,25.,-20.,-20.,15.,-70.,-70.,15.,-70.,-70.,15.,-20.;             595P    460
110,-20.,25.,-70.,-20.,25.,-20.;                                     597P    461
110,-70.,15.,-70.,-20.,15.,-70.;                                     599P    462
110,-20.,15.,-20.,-20.,15.,-70.;                                     601P    463
110,-20.,15.,-70.,-20.,25.,-70.;                                     603P    464
110,-70.,25.,-20.,-70.,25.,-70.;                                     605P    465
110,-20.,15.,-20.,-20.,25.,-20.;                                     607P    466
110,-70.,15.,-20.,-20.,15.,-20.;                                     609P    467
110,-70.,25.,-20.,-70.,15.,-20.;                                     611P    468
110,-20.,25.,-20.,-70.,25.,-20.;                                     613P    469
110,-70.,15.,-70.,-70.,25.,-70.;                                     615P    470
110,-70.,15.,-20.,-70.,15.,-70.;                                     617P    471
504,12,593,595,1,595,2,597,595,2,595,5,599,595,7,595,6,601,595,      619P    472
4,595,6,603,595,6,595,2,605,595,3,595,1,607,595,4,595,5,609,595,     619P    473
8,595,4,611,595,3,595,8,613,595,5,595,3,615,595,7,595,1,617,595,     619P    474
8,595,7;                                                             619P    475
508,4,0,619,7,1,0,0,619,10,1,0,0,619,9,1,0,0,619,8,1,0;              621P    476
510,591,1,1,621;                                                     623P    477
128,1,1,1,1,0,0,1,0,0,0.,0.,50.,50.,0.,0.,50.,50.,1.,1.,1.,1.,       625P    478
-70.,25.,-20.,-70.,25.,-70.,-20.,25.,-20.,-20.,25.,-70.,0.,50.,      625P    479
0.,50.;                                                              625P    480
508,4,0,619,10,0,0,0,619,2,0,0,0,619,1,0,0,0,619,6,0,0;              627P    481
510,625,1,1,627;                                                     629P    482
128,1,1,1,1,0,0,1,0,0,0.,0.,50.,50.,0.,0.,10.,10.,1.,1.,1.,1.,       631P    483
-20.,15.,-70.,-20.,15.,-20.,-20.,25.,-70.,-20.,25.,-20.,0.,50.,      631P    484
0.,10.;                                                              631P    485
508,4,0,619,7,0,0,0,619,4,1,0,0,619,5,1,0,0,619,2,1,0;               633P    486
510,631,1,1,633;                                                     635P    487
128,1,1,1,1,0,0,1,0,0,0.,0.,50.,50.,0.,0.,10.,10.,1.,1.,1.,1.,       637P    488
-70.,15.,-70.,-20.,15.,-70.,-70.,25.,-70.,-20.,25.,-70.,0.,50.,      637P    489
0.,10.;                                                              637P    490
508,4,0,619,5,0,0,0,619,3,0,0,0,619,11,1,0,0,619,1,1,0;              639P    491
510,637,1,1,639;                                                     641P    492
128,1,1,1,1,0,0,1,0,0,0.,0.,50.,50.,0.,0.,50.,50.,1.,1.,1.,1.,       643P    493
-70.,15.,-70.,-70.,15.,-20.,-20.,15.,-70.,-20.,15.,-20.,0.,50.,      643P    494
0.,50.;                                                              643P    495
508,4,0,619,8,0,0,0,619,12,1,0,0,619,3,1,0,0,619,4,0,0;              645P    496
510,643,1,1,645;                                                     647P    497
128,1,1,1,1,0,0,1,0,0,0.,0.,50.,50.,0.,0.,10.,10.,1.,1.,1.,1.,       649P    498
-70.,15.,-20.,-70.,15.,-70.,-70.,25.,-20.,-70.,25.,-70.,0.,50.,      649P    499
0.,10.;                                                              649P    500
508,4,0,619,9,0,0,0,619,6,1,0,0,619,11,0,0,0,619,12,0,0;             651P    501
510,649,1,1,651;                                                     653P    502
514,6,623,0,629,0,635,0,641,0,647,0,653,0;                           655P    503
186,655,1,0;                                                         657P    504
S      1G      3D    658P    504                                        T      1
