ISO-10303-21;
HEADER;
FILE_DESCRIPTION(('STEP AP214'),'1');
FILE_NAME('HertzContact.stp','2025-09-10T12:45:54',('Cubit 2024.3'),(' '),'Spatial InterOp 3D',' ',' ');
FILE_SCHEMA(('AUTOMOTIVE_DESIGN { 1 0 10303 214 1 1 1 1 }'));
ENDSEC;
DATA;
#1=PRODUCT_DEFINITION_CONTEXT('',#37,'design');
#2=APPLICATION_PROTOCOL_DEFINITION('INTERNATIONAL STANDARD','automotive_design',1994,#37);
#3=PRODUCT_CATEGORY_RELATIONSHIP('NONE','NONE',#38,#39);
#4=SHAPE_DEFINITION_REPRESENTATION(#40,#41);
#5=PRODUCT_DEFINITION_CONTEXT('',#42,'design');
#6=APPLICATION_PROTOCOL_DEFINITION('INTERNATIONAL STANDARD','automotive_design',1994,#42);
#7=PRODUCT_CATEGORY_RELATIONSHIP('NONE','NONE',#43,#44);
#8=SHAPE_DEFINITION_REPRESENTATION(#45,#46);
#9=PRODUCT_DEFINITION_CONTEXT('',#47,'design');
#10=APPLICATION_PROTOCOL_DEFINITION('INTERNATIONAL STANDARD','automotive_design',1994,#47);
#11=PRODUCT_CATEGORY_RELATIONSHIP('NONE','NONE',#48,#49);
#12=SHAPE_DEFINITION_REPRESENTATION(#50,#51);
#13=PRODUCT_DEFINITION_CONTEXT('',#52,'design');
#14=APPLICATION_PROTOCOL_DEFINITION('INTERNATIONAL STANDARD','automotive_design',1994,#52);
#15=PRODUCT_CATEGORY_RELATIONSHIP('NONE','NONE',#53,#54);
#16=SHAPE_DEFINITION_REPRESENTATION(#55,#56);
#17=PRODUCT_DEFINITION_CONTEXT('',#57,'design');
#18=APPLICATION_PROTOCOL_DEFINITION('INTERNATIONAL STANDARD','automotive_design',1994,#57);
#19=PRODUCT_CATEGORY_RELATIONSHIP('NONE','NONE',#58,#59);
#20=SHAPE_DEFINITION_REPRESENTATION(#60,#61);
#21=PRODUCT_DEFINITION_CONTEXT('',#62,'design');
#22=APPLICATION_PROTOCOL_DEFINITION('INTERNATIONAL STANDARD','automotive_design',1994,#62);
#23=PRODUCT_CATEGORY_RELATIONSHIP('NONE','NONE',#63,#64);
#24=SHAPE_DEFINITION_REPRESENTATION(#65,#66);
#25=PRODUCT_DEFINITION_CONTEXT('',#67,'design');
#26=APPLICATION_PROTOCOL_DEFINITION('INTERNATIONAL STANDARD','automotive_design',1994,#67);
#27=PRODUCT_CATEGORY_RELATIONSHIP('NONE','NONE',#68,#69);
#28=SHAPE_DEFINITION_REPRESENTATION(#70,#71);
#29=PRODUCT_DEFINITION_CONTEXT('',#72,'design');
#30=APPLICATION_PROTOCOL_DEFINITION('INTERNATIONAL STANDARD','automotive_design',1994,#72);
#31=PRODUCT_CATEGORY_RELATIONSHIP('NONE','NONE',#73,#74);
#32=SHAPE_DEFINITION_REPRESENTATION(#75,#76);
#33= (GEOMETRIC_REPRESENTATION_CONTEXT(3)GLOBAL_UNCERTAINTY_ASSIGNED_CONTEXT((#79))GLOBAL_UNIT_ASSIGNED_CONTEXT((#81,#82,#83))REPRESENTATION_CONTEXT('NONE','WORKSPACE'));
#37=APPLICATION_CONTEXT(' ');
#38=PRODUCT_CATEGORY('part','NONE');
#39=PRODUCT_RELATED_PRODUCT_CATEGORY('detail',' ',(#85));
#40=PRODUCT_DEFINITION_SHAPE('NONE','NONE',#86);
#41=ADVANCED_BREP_SHAPE_REPRESENTATION('1',(#87,#88),#33);
#42=APPLICATION_CONTEXT(' ');
#43=PRODUCT_CATEGORY('part','NONE');
#44=PRODUCT_RELATED_PRODUCT_CATEGORY('detail',' ',(#89));
#45=PRODUCT_DEFINITION_SHAPE('NONE','NONE',#90);
#46=ADVANCED_BREP_SHAPE_REPRESENTATION('2',(#91,#92),#33);
#47=APPLICATION_CONTEXT(' ');
#48=PRODUCT_CATEGORY('part','NONE');
#49=PRODUCT_RELATED_PRODUCT_CATEGORY('detail',' ',(#93));
#50=PRODUCT_DEFINITION_SHAPE('NONE','NONE',#94);
#51=ADVANCED_BREP_SHAPE_REPRESENTATION('3',(#95,#96),#33);
#52=APPLICATION_CONTEXT(' ');
#53=PRODUCT_CATEGORY('part','NONE');
#54=PRODUCT_RELATED_PRODUCT_CATEGORY('detail',' ',(#97));
#55=PRODUCT_DEFINITION_SHAPE('NONE','NONE',#98);
#56=ADVANCED_BREP_SHAPE_REPRESENTATION('4',(#99,#100),#33);
#57=APPLICATION_CONTEXT(' ');
#58=PRODUCT_CATEGORY('part','NONE');
#59=PRODUCT_RELATED_PRODUCT_CATEGORY('detail',' ',(#101));
#60=PRODUCT_DEFINITION_SHAPE('NONE','NONE',#102);
#61=ADVANCED_BREP_SHAPE_REPRESENTATION('5',(#103,#104),#33);
#62=APPLICATION_CONTEXT(' ');
#63=PRODUCT_CATEGORY('part','NONE');
#64=PRODUCT_RELATED_PRODUCT_CATEGORY('detail',' ',(#105));
#65=PRODUCT_DEFINITION_SHAPE('NONE','NONE',#106);
#66=ADVANCED_BREP_SHAPE_REPRESENTATION('6',(#107,#108),#33);
#67=APPLICATION_CONTEXT(' ');
#68=PRODUCT_CATEGORY('part','NONE');
#69=PRODUCT_RELATED_PRODUCT_CATEGORY('detail',' ',(#109));
#70=PRODUCT_DEFINITION_SHAPE('NONE','NONE',#110);
#71=ADVANCED_BREP_SHAPE_REPRESENTATION('7',(#111,#112),#33);
#72=APPLICATION_CONTEXT(' ');
#73=PRODUCT_CATEGORY('part','NONE');
#74=PRODUCT_RELATED_PRODUCT_CATEGORY('detail',' ',(#113));
#75=PRODUCT_DEFINITION_SHAPE('NONE','NONE',#114);
#76=ADVANCED_BREP_SHAPE_REPRESENTATION('8',(#115,#116),#33);
#79=UNCERTAINTY_MEASURE_WITH_UNIT(LENGTH_MEASURE(1.0E-06),#81,'','');
#81= (CONVERSION_BASED_UNIT('MILLIMETRE',#119)LENGTH_UNIT()NAMED_UNIT(#122));
#82= (NAMED_UNIT(#124)PLANE_ANGLE_UNIT()SI_UNIT($,.RADIAN.));
#83= (NAMED_UNIT(#124)SOLID_ANGLE_UNIT()SI_UNIT($,.STERADIAN.));
#85=PRODUCT('1','1','PART-1-DESC',(#130));
#86=PRODUCT_DEFINITION('','NONE',#131,#1);
#87=MANIFOLD_SOLID_BREP('1',#132);
#88=AXIS2_PLACEMENT_3D('',#133,#134,#135);
#89=PRODUCT('2','2','PART-2-DESC',(#136));
#90=PRODUCT_DEFINITION('','NONE',#137,#5);
#91=MANIFOLD_SOLID_BREP('2',#138);
#92=AXIS2_PLACEMENT_3D('',#139,#140,#141);
#93=PRODUCT('3','3','PART-3-DESC',(#142));
#94=PRODUCT_DEFINITION('','NONE',#143,#9);
#95=MANIFOLD_SOLID_BREP('3',#144);
#96=AXIS2_PLACEMENT_3D('',#145,#146,#147);
#97=PRODUCT('4','4','PART-4-DESC',(#148));
#98=PRODUCT_DEFINITION('','NONE',#149,#13);
#99=MANIFOLD_SOLID_BREP('4',#150);
#100=AXIS2_PLACEMENT_3D('',#151,#152,#153);
#101=PRODUCT('5','5','PART-5-DESC',(#154));
#102=PRODUCT_DEFINITION('','NONE',#155,#17);
#103=MANIFOLD_SOLID_BREP('5',#156);
#104=AXIS2_PLACEMENT_3D('',#157,#158,#159);
#105=PRODUCT('6','6','PART-6-DESC',(#160));
#106=PRODUCT_DEFINITION('','NONE',#161,#21);
#107=MANIFOLD_SOLID_BREP('6',#162);
#108=AXIS2_PLACEMENT_3D('',#163,#164,#165);
#109=PRODUCT('7','7','PART-7-DESC',(#166));
#110=PRODUCT_DEFINITION('','NONE',#167,#25);
#111=MANIFOLD_SOLID_BREP('7',#168);
#112=AXIS2_PLACEMENT_3D('',#169,#170,#171);
#113=PRODUCT('8','8','PART-8-DESC',(#172));
#114=PRODUCT_DEFINITION('','NONE',#173,#29);
#115=MANIFOLD_SOLID_BREP('8',#174);
#116=AXIS2_PLACEMENT_3D('',#175,#176,#177);
#119=LENGTH_MEASURE_WITH_UNIT(LENGTH_MEASURE(1.0),#178);
#122=DIMENSIONAL_EXPONENTS(1.0,0.0,0.0,0.0,0.0,0.0,0.0);
#124=DIMENSIONAL_EXPONENTS(0.0,0.0,0.0,0.0,0.0,0.0,0.0);
#130=PRODUCT_CONTEXT('',#37,'mechanical');
#131=PRODUCT_DEFINITION_FORMATION_WITH_SPECIFIED_SOURCE(' ','NONE',#85,.NOT_KNOWN.);
#132=CLOSED_SHELL('',(#179,#180,#181,#182,#183,#184));
#133=CARTESIAN_POINT('',(0.0,0.0,0.0));
#134=DIRECTION('',(0.0,0.0,1.0));
#135=DIRECTION('',(1.0,0.0,0.0));
#136=PRODUCT_CONTEXT('',#42,'mechanical');
#137=PRODUCT_DEFINITION_FORMATION_WITH_SPECIFIED_SOURCE(' ','NONE',#89,.NOT_KNOWN.);
#138=CLOSED_SHELL('',(#185,#186,#187,#188));
#139=CARTESIAN_POINT('',(0.0,0.0,0.0));
#140=DIRECTION('',(0.0,0.0,1.0));
#141=DIRECTION('',(1.0,0.0,0.0));
#142=PRODUCT_CONTEXT('',#47,'mechanical');
#143=PRODUCT_DEFINITION_FORMATION_WITH_SPECIFIED_SOURCE(' ','NONE',#93,.NOT_KNOWN.);
#144=CLOSED_SHELL('',(#189,#190,#191,#192,#193,#194));
#145=CARTESIAN_POINT('',(0.0,0.0,0.0));
#146=DIRECTION('',(0.0,0.0,1.0));
#147=DIRECTION('',(1.0,0.0,0.0));
#148=PRODUCT_CONTEXT('',#52,'mechanical');
#149=PRODUCT_DEFINITION_FORMATION_WITH_SPECIFIED_SOURCE(' ','NONE',#97,.NOT_KNOWN.);
#150=CLOSED_SHELL('',(#195,#196,#197,#198,#199));
#151=CARTESIAN_POINT('',(0.0,0.0,0.0));
#152=DIRECTION('',(0.0,0.0,1.0));
#153=DIRECTION('',(1.0,0.0,0.0));
#154=PRODUCT_CONTEXT('',#57,'mechanical');
#155=PRODUCT_DEFINITION_FORMATION_WITH_SPECIFIED_SOURCE(' ','NONE',#101,.NOT_KNOWN.);
#156=CLOSED_SHELL('',(#200,#201,#202,#203,#204,#205));
#157=CARTESIAN_POINT('',(0.0,0.0,0.0));
#158=DIRECTION('',(0.0,0.0,1.0));
#159=DIRECTION('',(1.0,0.0,0.0));
#160=PRODUCT_CONTEXT('',#62,'mechanical');
#161=PRODUCT_DEFINITION_FORMATION_WITH_SPECIFIED_SOURCE(' ','NONE',#105,.NOT_KNOWN.);
#162=CLOSED_SHELL('',(#206,#207,#208,#209,#210,#211));
#163=CARTESIAN_POINT('',(0.0,0.0,0.0));
#164=DIRECTION('',(0.0,0.0,1.0));
#165=DIRECTION('',(1.0,0.0,0.0));
#166=PRODUCT_CONTEXT('',#67,'mechanical');
#167=PRODUCT_DEFINITION_FORMATION_WITH_SPECIFIED_SOURCE(' ','NONE',#109,.NOT_KNOWN.);
#168=CLOSED_SHELL('',(#212,#213,#214,#215,#216,#217));
#169=CARTESIAN_POINT('',(0.0,0.0,0.0));
#170=DIRECTION('',(0.0,0.0,1.0));
#171=DIRECTION('',(1.0,0.0,0.0));
#172=PRODUCT_CONTEXT('',#72,'mechanical');
#173=PRODUCT_DEFINITION_FORMATION_WITH_SPECIFIED_SOURCE(' ','NONE',#113,.NOT_KNOWN.);
#174=CLOSED_SHELL('',(#218,#219,#220,#221,#222,#223));
#175=CARTESIAN_POINT('',(0.0,0.0,0.0));
#176=DIRECTION('',(0.0,0.0,1.0));
#177=DIRECTION('',(1.0,0.0,0.0));
#178= (NAMED_UNIT(#122)LENGTH_UNIT()SI_UNIT(.MILLI.,.METRE.));
#179=ADVANCED_FACE('',(#225),#226,.T.);
#180=ADVANCED_FACE('',(#227),#228,.F.);
#181=ADVANCED_FACE('',(#229),#230,.T.);
#182=ADVANCED_FACE('',(#231),#232,.T.);
#183=ADVANCED_FACE('',(#233),#234,.F.);
#184=ADVANCED_FACE('',(#235),#236,.F.);
#185=ADVANCED_FACE('',(#237),#238,.T.);
#186=ADVANCED_FACE('',(#239),#240,.T.);
#187=ADVANCED_FACE('',(#241),#242,.F.);
#188=ADVANCED_FACE('',(#243),#244,.F.);
#189=ADVANCED_FACE('',(#245),#246,.T.);
#190=ADVANCED_FACE('',(#247),#248,.F.);
#191=ADVANCED_FACE('',(#249),#250,.F.);
#192=ADVANCED_FACE('',(#251),#252,.T.);
#193=ADVANCED_FACE('',(#253),#254,.F.);
#194=ADVANCED_FACE('',(#255),#256,.F.);
#195=ADVANCED_FACE('',(#257),#258,.F.);
#196=ADVANCED_FACE('',(#259),#260,.F.);
#197=ADVANCED_FACE('',(#261),#262,.F.);
#198=ADVANCED_FACE('',(#263),#264,.T.);
#199=ADVANCED_FACE('',(#265),#266,.T.);
#200=ADVANCED_FACE('',(#267),#268,.F.);
#201=ADVANCED_FACE('',(#269),#270,.F.);
#202=ADVANCED_FACE('',(#271),#272,.T.);
#203=ADVANCED_FACE('',(#273),#274,.F.);
#204=ADVANCED_FACE('',(#275),#276,.F.);
#205=ADVANCED_FACE('',(#277),#278,.F.);
#206=ADVANCED_FACE('',(#279),#280,.F.);
#207=ADVANCED_FACE('',(#281),#282,.F.);
#208=ADVANCED_FACE('',(#283),#284,.F.);
#209=ADVANCED_FACE('',(#285),#286,.F.);
#210=ADVANCED_FACE('',(#287),#288,.F.);
#211=ADVANCED_FACE('',(#289),#290,.F.);
#212=ADVANCED_FACE('',(#291),#292,.F.);
#213=ADVANCED_FACE('',(#293),#294,.F.);
#214=ADVANCED_FACE('',(#295),#296,.T.);
#215=ADVANCED_FACE('',(#297),#298,.F.);
#216=ADVANCED_FACE('',(#299),#300,.T.);
#217=ADVANCED_FACE('',(#301),#302,.F.);
#218=ADVANCED_FACE('',(#303),#304,.F.);
#219=ADVANCED_FACE('',(#305),#306,.F.);
#220=ADVANCED_FACE('',(#307),#308,.T.);
#221=ADVANCED_FACE('',(#309),#310,.F.);
#222=ADVANCED_FACE('',(#311),#312,.F.);
#223=ADVANCED_FACE('',(#313),#314,.F.);
#225=FACE_OUTER_BOUND('',#315,.T.);
#226=PLANE('',#316);
#227=FACE_OUTER_BOUND('',#317,.T.);
#228=PLANE('',#318);
#229=FACE_OUTER_BOUND('',#319,.T.);
#230=PLANE('',#320);
#231=FACE_OUTER_BOUND('',#321,.T.);
#232=PLANE('',#322);
#233=FACE_OUTER_BOUND('',#323,.T.);
#234=PLANE('',#324);
#235=FACE_OUTER_BOUND('',#325,.T.);
#236=PLANE('',#326);
#237=FACE_OUTER_BOUND('',#327,.T.);
#238=PLANE('',#328);
#239=FACE_OUTER_BOUND('',#329,.T.);
#240=SPHERICAL_SURFACE('',#330,40.0);
#241=FACE_OUTER_BOUND('',#331,.T.);
#242=PLANE('',#332);
#243=FACE_OUTER_BOUND('',#333,.T.);
#244=PLANE('',#334);
#245=FACE_OUTER_BOUND('',#335,.T.);
#246=PLANE('',#336);
#247=FACE_OUTER_BOUND('',#337,.T.);
#248=PLANE('',#338);
#249=FACE_OUTER_BOUND('',#339,.T.);
#250=PLANE('',#340);
#251=FACE_OUTER_BOUND('',#341,.T.);
#252=PLANE('',#342);
#253=FACE_OUTER_BOUND('',#343,.T.);
#254=PLANE('',#344);
#255=FACE_OUTER_BOUND('',#345,.T.);
#256=PLANE('',#346);
#257=FACE_OUTER_BOUND('',#347,.T.);
#258=PLANE('',#348);
#259=FACE_OUTER_BOUND('',#349,.T.);
#260=PLANE('',#350);
#261=FACE_OUTER_BOUND('',#351,.T.);
#262=PLANE('',#352);
#263=FACE_OUTER_BOUND('',#353,.T.);
#264=PLANE('',#354);
#265=FACE_OUTER_BOUND('',#355,.T.);
#266=SPHERICAL_SURFACE('',#356,40.0);
#267=FACE_OUTER_BOUND('',#357,.T.);
#268=PLANE('',#358);
#269=FACE_OUTER_BOUND('',#359,.T.);
#270=PLANE('',#360);
#271=FACE_OUTER_BOUND('',#361,.T.);
#272=PLANE('',#362);
#273=FACE_OUTER_BOUND('',#363,.T.);
#274=PLANE('',#364);
#275=FACE_OUTER_BOUND('',#365,.T.);
#276=PLANE('',#366);
#277=FACE_OUTER_BOUND('',#367,.T.);
#278=PLANE('',#368);
#279=FACE_OUTER_BOUND('',#369,.T.);
#280=PLANE('',#370);
#281=FACE_OUTER_BOUND('',#371,.T.);
#282=PLANE('',#372);
#283=FACE_OUTER_BOUND('',#373,.T.);
#284=PLANE('',#374);
#285=FACE_OUTER_BOUND('',#375,.T.);
#286=PLANE('',#376);
#287=FACE_OUTER_BOUND('',#377,.T.);
#288=PLANE('',#378);
#289=FACE_OUTER_BOUND('',#379,.T.);
#290=PLANE('',#380);
#291=FACE_OUTER_BOUND('',#381,.T.);
#292=PLANE('',#382);
#293=FACE_OUTER_BOUND('',#383,.T.);
#294=PLANE('',#384);
#295=FACE_OUTER_BOUND('',#385,.T.);
#296=PLANE('',#386);
#297=FACE_OUTER_BOUND('',#387,.T.);
#298=PLANE('',#388);
#299=FACE_OUTER_BOUND('',#389,.T.);
#300=PLANE('',#390);
#301=FACE_OUTER_BOUND('',#391,.T.);
#302=PLANE('',#392);
#303=FACE_OUTER_BOUND('',#393,.T.);
#304=PLANE('',#394);
#305=FACE_OUTER_BOUND('',#395,.T.);
#306=PLANE('',#396);
#307=FACE_OUTER_BOUND('',#397,.T.);
#308=PLANE('',#398);
#309=FACE_OUTER_BOUND('',#399,.T.);
#310=PLANE('',#400);
#311=FACE_OUTER_BOUND('',#401,.T.);
#312=PLANE('',#402);
#313=FACE_OUTER_BOUND('',#403,.T.);
#314=PLANE('',#404);
#315=EDGE_LOOP('',(#405,#406,#407,#408));
#316=AXIS2_PLACEMENT_3D('',#409,#410,#411);
#317=EDGE_LOOP('',(#412,#413,#414,#415));
#318=AXIS2_PLACEMENT_3D('',#416,#417,#418);
#319=EDGE_LOOP('',(#419,#420,#421,#422));
#320=AXIS2_PLACEMENT_3D('',#423,#424,#425);
#321=EDGE_LOOP('',(#426,#427,#428,#429));
#322=AXIS2_PLACEMENT_3D('',#430,#431,#432);
#323=EDGE_LOOP('',(#433,#434,#435,#436));
#324=AXIS2_PLACEMENT_3D('',#437,#438,#439);
#325=EDGE_LOOP('',(#440,#441,#442,#443));
#326=AXIS2_PLACEMENT_3D('',#444,#445,#446);
#327=EDGE_LOOP('',(#447,#448,#449));
#328=AXIS2_PLACEMENT_3D('',#450,#451,#452);
#329=EDGE_LOOP('',(#453,#454,#455));
#330=AXIS2_PLACEMENT_3D('',#456,#457,#458);
#331=EDGE_LOOP('',(#459,#460,#461));
#332=AXIS2_PLACEMENT_3D('',#462,#463,#464);
#333=EDGE_LOOP('',(#465,#466,#467));
#334=AXIS2_PLACEMENT_3D('',#468,#469,#470);
#335=EDGE_LOOP('',(#471,#472,#473,#474));
#336=AXIS2_PLACEMENT_3D('',#475,#476,#477);
#337=EDGE_LOOP('',(#478,#479,#480,#481));
#338=AXIS2_PLACEMENT_3D('',#482,#483,#484);
#339=EDGE_LOOP('',(#485,#486,#487,#488));
#340=AXIS2_PLACEMENT_3D('',#489,#490,#491);
#341=EDGE_LOOP('',(#492,#493,#494,#495));
#342=AXIS2_PLACEMENT_3D('',#496,#497,#498);
#343=EDGE_LOOP('',(#499,#500,#501,#502));
#344=AXIS2_PLACEMENT_3D('',#503,#504,#505);
#345=EDGE_LOOP('',(#506,#507,#508,#509));
#346=AXIS2_PLACEMENT_3D('',#510,#511,#512);
#347=EDGE_LOOP('',(#513,#514,#515));
#348=AXIS2_PLACEMENT_3D('',#516,#517,#518);
#349=EDGE_LOOP('',(#519,#520,#521,#522));
#350=AXIS2_PLACEMENT_3D('',#523,#524,#525);
#351=EDGE_LOOP('',(#526,#527,#528,#529));
#352=AXIS2_PLACEMENT_3D('',#530,#531,#532);
#353=EDGE_LOOP('',(#533,#534,#535));
#354=AXIS2_PLACEMENT_3D('',#536,#537,#538);
#355=EDGE_LOOP('',(#539,#540,#541,#542));
#356=AXIS2_PLACEMENT_3D('',#543,#544,#545);
#357=EDGE_LOOP('',(#546,#547,#548,#549));
#358=AXIS2_PLACEMENT_3D('',#550,#551,#552);
#359=EDGE_LOOP('',(#553,#554,#555,#556));
#360=AXIS2_PLACEMENT_3D('',#557,#558,#559);
#361=EDGE_LOOP('',(#560,#561,#562,#563));
#362=AXIS2_PLACEMENT_3D('',#564,#565,#566);
#363=EDGE_LOOP('',(#567,#568,#569,#570));
#364=AXIS2_PLACEMENT_3D('',#571,#572,#573);
#365=EDGE_LOOP('',(#574,#575,#576,#577));
#366=AXIS2_PLACEMENT_3D('',#578,#579,#580);
#367=EDGE_LOOP('',(#581,#582,#583,#584));
#368=AXIS2_PLACEMENT_3D('',#585,#586,#587);
#369=EDGE_LOOP('',(#588,#589,#590,#591));
#370=AXIS2_PLACEMENT_3D('',#592,#593,#594);
#371=EDGE_LOOP('',(#595,#596,#597,#598));
#372=AXIS2_PLACEMENT_3D('',#599,#600,#601);
#373=EDGE_LOOP('',(#602,#603,#604,#605));
#374=AXIS2_PLACEMENT_3D('',#606,#607,#608);
#375=EDGE_LOOP('',(#609,#610,#611,#612));
#376=AXIS2_PLACEMENT_3D('',#613,#614,#615);
#377=EDGE_LOOP('',(#616,#617,#618,#619));
#378=AXIS2_PLACEMENT_3D('',#620,#621,#622);
#379=EDGE_LOOP('',(#623,#624,#625,#626));
#380=AXIS2_PLACEMENT_3D('',#627,#628,#629);
#381=EDGE_LOOP('',(#630,#631,#632,#633));
#382=AXIS2_PLACEMENT_3D('',#634,#635,#636);
#383=EDGE_LOOP('',(#637,#638,#639,#640));
#384=AXIS2_PLACEMENT_3D('',#641,#642,#643);
#385=EDGE_LOOP('',(#644,#645,#646,#647));
#386=AXIS2_PLACEMENT_3D('',#648,#649,#650);
#387=EDGE_LOOP('',(#651,#652,#653,#654));
#388=AXIS2_PLACEMENT_3D('',#655,#656,#657);
#389=EDGE_LOOP('',(#658,#659,#660,#661));
#390=AXIS2_PLACEMENT_3D('',#662,#663,#664);
#391=EDGE_LOOP('',(#665,#666,#667,#668));
#392=AXIS2_PLACEMENT_3D('',#669,#670,#671);
#393=EDGE_LOOP('',(#672,#673,#674,#675));
#394=AXIS2_PLACEMENT_3D('',#676,#677,#678);
#395=EDGE_LOOP('',(#679,#680,#681,#682));
#396=AXIS2_PLACEMENT_3D('',#683,#684,#685);
#397=EDGE_LOOP('',(#686,#687,#688,#689));
#398=AXIS2_PLACEMENT_3D('',#690,#691,#692);
#399=EDGE_LOOP('',(#693,#694,#695,#696));
#400=AXIS2_PLACEMENT_3D('',#697,#698,#699);
#401=EDGE_LOOP('',(#700,#701,#702,#703));
#402=AXIS2_PLACEMENT_3D('',#704,#705,#706);
#403=EDGE_LOOP('',(#707,#708,#709,#710));
#404=AXIS2_PLACEMENT_3D('',#711,#712,#713);
#405=ORIENTED_EDGE('',*,*,#714,.F.);
#406=ORIENTED_EDGE('',*,*,#715,.F.);
#407=ORIENTED_EDGE('',*,*,#716,.F.);
#408=ORIENTED_EDGE('',*,*,#717,.F.);
#409=CARTESIAN_POINT('',(-1.0,0.0,-20.0));
#410=DIRECTION('',(0.0,0.0,-1.0));
#411=DIRECTION('',(-1.0,0.0,0.0));
#412=ORIENTED_EDGE('',*,*,#716,.T.);
#413=ORIENTED_EDGE('',*,*,#718,.T.);
#414=ORIENTED_EDGE('',*,*,#719,.F.);
#415=ORIENTED_EDGE('',*,*,#720,.T.);
#416=CARTESIAN_POINT('',(0.0,-1.0,0.0));
#417=DIRECTION('',(-1.0,0.0,0.0));
#418=DIRECTION('',(0.0,0.0,1.0));
#419=ORIENTED_EDGE('',*,*,#715,.T.);
#420=ORIENTED_EDGE('',*,*,#721,.T.);
#421=ORIENTED_EDGE('',*,*,#722,.F.);
#422=ORIENTED_EDGE('',*,*,#718,.F.);
#423=CARTESIAN_POINT('',(-1.0,15.0,0.0));
#424=DIRECTION('',(0.0,1.0,0.0));
#425=DIRECTION('',(0.0,0.0,1.0));
#426=ORIENTED_EDGE('',*,*,#714,.T.);
#427=ORIENTED_EDGE('',*,*,#723,.F.);
#428=ORIENTED_EDGE('',*,*,#724,.F.);
#429=ORIENTED_EDGE('',*,*,#721,.F.);
#430=CARTESIAN_POINT('',(-20.0,-1.0,0.0));
#431=DIRECTION('',(-1.0,0.0,0.0));
#432=DIRECTION('',(0.0,0.0,1.0));
#433=ORIENTED_EDGE('',*,*,#717,.T.);
#434=ORIENTED_EDGE('',*,*,#720,.F.);
#435=ORIENTED_EDGE('',*,*,#725,.F.);
#436=ORIENTED_EDGE('',*,*,#723,.T.);
#437=CARTESIAN_POINT('',(0.0,0.0,0.0));
#438=DIRECTION('',(0.0,1.0,0.0));
#439=DIRECTION('',(0.0,0.0,1.0));
#440=ORIENTED_EDGE('',*,*,#724,.T.);
#441=ORIENTED_EDGE('',*,*,#725,.T.);
#442=ORIENTED_EDGE('',*,*,#719,.T.);
#443=ORIENTED_EDGE('',*,*,#722,.T.);
#444=CARTESIAN_POINT('',(-1.0,0.0,0.0));
#445=DIRECTION('',(0.0,0.0,-1.0));
#446=DIRECTION('',(-1.0,0.0,0.0));
#447=ORIENTED_EDGE('',*,*,#726,.F.);
#448=ORIENTED_EDGE('',*,*,#727,.F.);
#449=ORIENTED_EDGE('',*,*,#728,.F.);
#450=CARTESIAN_POINT('',(-1.0,35.0,0.0));
#451=DIRECTION('',(0.0,1.0,0.0));
#452=DIRECTION('',(0.0,0.0,1.0));
#453=ORIENTED_EDGE('',*,*,#727,.T.);
#454=ORIENTED_EDGE('',*,*,#729,.F.);
#455=ORIENTED_EDGE('',*,*,#730,.F.);
#456=CARTESIAN_POINT('',(0.0,65.0,0.0));
#457=DIRECTION('',(0.0,0.0,1.0));
#458=DIRECTION('',(1.0,0.0,0.0));
#459=ORIENTED_EDGE('',*,*,#726,.T.);
#460=ORIENTED_EDGE('',*,*,#731,.F.);
#461=ORIENTED_EDGE('',*,*,#729,.T.);
#462=CARTESIAN_POINT('',(0.0,-1.0,0.0));
#463=DIRECTION('',(-1.0,0.0,0.0));
#464=DIRECTION('',(0.0,0.0,1.0));
#465=ORIENTED_EDGE('',*,*,#728,.T.);
#466=ORIENTED_EDGE('',*,*,#730,.T.);
#467=ORIENTED_EDGE('',*,*,#731,.T.);
#468=CARTESIAN_POINT('',(-1.0,0.0,0.0));
#469=DIRECTION('',(0.0,0.0,-1.0));
#470=DIRECTION('',(-1.0,0.0,0.0));
#471=ORIENTED_EDGE('',*,*,#732,.F.);
#472=ORIENTED_EDGE('',*,*,#733,.F.);
#473=ORIENTED_EDGE('',*,*,#734,.F.);
#474=ORIENTED_EDGE('',*,*,#735,.F.);
#475=CARTESIAN_POINT('',(-1.0,0.0,-20.0));
#476=DIRECTION('',(0.0,0.0,-1.0));
#477=DIRECTION('',(-1.0,0.0,0.0));
#478=ORIENTED_EDGE('',*,*,#734,.T.);
#479=ORIENTED_EDGE('',*,*,#736,.T.);
#480=ORIENTED_EDGE('',*,*,#737,.F.);
#481=ORIENTED_EDGE('',*,*,#738,.F.);
#482=CARTESIAN_POINT('',(0.0,-1.0,0.0));
#483=DIRECTION('',(-1.0,0.0,0.0));
#484=DIRECTION('',(0.0,0.0,1.0));
#485=ORIENTED_EDGE('',*,*,#733,.T.);
#486=ORIENTED_EDGE('',*,*,#739,.T.);
#487=ORIENTED_EDGE('',*,*,#740,.F.);
#488=ORIENTED_EDGE('',*,*,#736,.F.);
#489=CARTESIAN_POINT('',(0.0,25.0,0.0));
#490=DIRECTION('',(0.0,-1.0,0.0));
#491=DIRECTION('',(0.0,0.0,-1.0));
#492=ORIENTED_EDGE('',*,*,#732,.T.);
#493=ORIENTED_EDGE('',*,*,#741,.F.);
#494=ORIENTED_EDGE('',*,*,#742,.F.);
#495=ORIENTED_EDGE('',*,*,#739,.F.);
#496=CARTESIAN_POINT('',(-20.0,-1.0,0.0));
#497=DIRECTION('',(-1.0,0.0,0.0));
#498=DIRECTION('',(0.0,0.0,1.0));
#499=ORIENTED_EDGE('',*,*,#742,.T.);
#500=ORIENTED_EDGE('',*,*,#743,.F.);
#501=ORIENTED_EDGE('',*,*,#737,.T.);
#502=ORIENTED_EDGE('',*,*,#740,.T.);
#503=CARTESIAN_POINT('',(-1.0,0.0,0.0));
#504=DIRECTION('',(0.0,0.0,-1.0));
#505=DIRECTION('',(-1.0,0.0,0.0));
#506=ORIENTED_EDGE('',*,*,#735,.T.);
#507=ORIENTED_EDGE('',*,*,#738,.T.);
#508=ORIENTED_EDGE('',*,*,#743,.T.);
#509=ORIENTED_EDGE('',*,*,#741,.T.);
#510=CARTESIAN_POINT('',(-1.0,15.0,0.0));
#511=DIRECTION('',(0.0,1.0,0.0));
#512=DIRECTION('',(0.0,0.0,1.0));
#513=ORIENTED_EDGE('',*,*,#744,.T.);
#514=ORIENTED_EDGE('',*,*,#745,.T.);
#515=ORIENTED_EDGE('',*,*,#746,.T.);
#516=CARTESIAN_POINT('',(-1.0,35.0,0.0));
#517=DIRECTION('',(0.0,1.0,0.0));
#518=DIRECTION('',(0.0,0.0,1.0));
#519=ORIENTED_EDGE('',*,*,#745,.F.);
#520=ORIENTED_EDGE('',*,*,#747,.T.);
#521=ORIENTED_EDGE('',*,*,#748,.T.);
#522=ORIENTED_EDGE('',*,*,#749,.T.);
#523=CARTESIAN_POINT('',(-1.0,0.0,0.0));
#524=DIRECTION('',(0.0,0.0,-1.0));
#525=DIRECTION('',(-1.0,0.0,0.0));
#526=ORIENTED_EDGE('',*,*,#744,.F.);
#527=ORIENTED_EDGE('',*,*,#750,.T.);
#528=ORIENTED_EDGE('',*,*,#751,.T.);
#529=ORIENTED_EDGE('',*,*,#747,.F.);
#530=CARTESIAN_POINT('',(0.0,-1.0,0.0));
#531=DIRECTION('',(-1.0,0.0,0.0));
#532=DIRECTION('',(0.0,0.0,1.0));
#533=ORIENTED_EDGE('',*,*,#748,.F.);
#534=ORIENTED_EDGE('',*,*,#751,.F.);
#535=ORIENTED_EDGE('',*,*,#752,.F.);
#536=CARTESIAN_POINT('',(-1.0,65.0,0.0));
#537=DIRECTION('',(0.0,1.0,0.0));
#538=DIRECTION('',(0.0,0.0,1.0));
#539=ORIENTED_EDGE('',*,*,#746,.F.);
#540=ORIENTED_EDGE('',*,*,#749,.F.);
#541=ORIENTED_EDGE('',*,*,#752,.T.);
#542=ORIENTED_EDGE('',*,*,#750,.F.);
#543=CARTESIAN_POINT('',(0.0,65.0,0.0));
#544=DIRECTION('',(0.0,0.0,1.0));
#545=DIRECTION('',(1.0,0.0,0.0));
#546=ORIENTED_EDGE('',*,*,#753,.T.);
#547=ORIENTED_EDGE('',*,*,#754,.T.);
#548=ORIENTED_EDGE('',*,*,#755,.T.);
#549=ORIENTED_EDGE('',*,*,#756,.T.);
#550=CARTESIAN_POINT('',(-20.0,-1.0,0.0));
#551=DIRECTION('',(-1.0,0.0,0.0));
#552=DIRECTION('',(0.0,0.0,1.0));
#553=ORIENTED_EDGE('',*,*,#754,.F.);
#554=ORIENTED_EDGE('',*,*,#757,.T.);
#555=ORIENTED_EDGE('',*,*,#758,.T.);
#556=ORIENTED_EDGE('',*,*,#759,.T.);
#557=CARTESIAN_POINT('',(-1.0,0.0,0.0));
#558=DIRECTION('',(0.0,0.0,-1.0));
#559=DIRECTION('',(-1.0,0.0,0.0));
#560=ORIENTED_EDGE('',*,*,#753,.F.);
#561=ORIENTED_EDGE('',*,*,#760,.F.);
#562=ORIENTED_EDGE('',*,*,#761,.F.);
#563=ORIENTED_EDGE('',*,*,#757,.F.);
#564=CARTESIAN_POINT('',(-1.0,15.0,0.0));
#565=DIRECTION('',(0.0,1.0,0.0));
#566=DIRECTION('',(0.0,0.0,1.0));
#567=ORIENTED_EDGE('',*,*,#756,.F.);
#568=ORIENTED_EDGE('',*,*,#762,.T.);
#569=ORIENTED_EDGE('',*,*,#763,.T.);
#570=ORIENTED_EDGE('',*,*,#760,.T.);
#571=CARTESIAN_POINT('',(0.0,12.5,-70.0));
#572=DIRECTION('',(0.0,0.0,1.0));
#573=DIRECTION('',(1.0,0.0,0.0));
#574=ORIENTED_EDGE('',*,*,#755,.F.);
#575=ORIENTED_EDGE('',*,*,#759,.F.);
#576=ORIENTED_EDGE('',*,*,#764,.T.);
#577=ORIENTED_EDGE('',*,*,#762,.F.);
#578=CARTESIAN_POINT('',(0.0,0.0,0.0));
#579=DIRECTION('',(0.0,1.0,0.0));
#580=DIRECTION('',(0.0,0.0,1.0));
#581=ORIENTED_EDGE('',*,*,#761,.T.);
#582=ORIENTED_EDGE('',*,*,#763,.F.);
#583=ORIENTED_EDGE('',*,*,#764,.F.);
#584=ORIENTED_EDGE('',*,*,#758,.F.);
#585=CARTESIAN_POINT('',(-70.0,12.5,0.0));
#586=DIRECTION('',(1.0,0.0,0.0));
#587=DIRECTION('',(0.0,0.0,-1.0));
#588=ORIENTED_EDGE('',*,*,#765,.T.);
#589=ORIENTED_EDGE('',*,*,#766,.T.);
#590=ORIENTED_EDGE('',*,*,#767,.T.);
#591=ORIENTED_EDGE('',*,*,#768,.T.);
#592=CARTESIAN_POINT('',(-20.0,-1.0,0.0));
#593=DIRECTION('',(-1.0,0.0,0.0));
#594=DIRECTION('',(0.0,0.0,1.0));
#595=ORIENTED_EDGE('',*,*,#766,.F.);
#596=ORIENTED_EDGE('',*,*,#769,.F.);
#597=ORIENTED_EDGE('',*,*,#770,.T.);
#598=ORIENTED_EDGE('',*,*,#771,.T.);
#599=CARTESIAN_POINT('',(0.0,12.5,-70.0));
#600=DIRECTION('',(0.0,0.0,1.0));
#601=DIRECTION('',(1.0,0.0,0.0));
#602=ORIENTED_EDGE('',*,*,#765,.F.);
#603=ORIENTED_EDGE('',*,*,#772,.T.);
#604=ORIENTED_EDGE('',*,*,#773,.T.);
#605=ORIENTED_EDGE('',*,*,#769,.T.);
#606=CARTESIAN_POINT('',(-1.0,15.0,0.0));
#607=DIRECTION('',(0.0,1.0,0.0));
#608=DIRECTION('',(0.0,0.0,1.0));
#609=ORIENTED_EDGE('',*,*,#773,.F.);
#610=ORIENTED_EDGE('',*,*,#774,.F.);
#611=ORIENTED_EDGE('',*,*,#775,.T.);
#612=ORIENTED_EDGE('',*,*,#770,.F.);
#613=CARTESIAN_POINT('',(-70.0,12.5,0.0));
#614=DIRECTION('',(1.0,0.0,0.0));
#615=DIRECTION('',(0.0,0.0,-1.0));
#616=ORIENTED_EDGE('',*,*,#768,.F.);
#617=ORIENTED_EDGE('',*,*,#776,.T.);
#618=ORIENTED_EDGE('',*,*,#774,.T.);
#619=ORIENTED_EDGE('',*,*,#772,.F.);
#620=CARTESIAN_POINT('',(-1.0,0.0,0.0));
#621=DIRECTION('',(0.0,0.0,-1.0));
#622=DIRECTION('',(-1.0,0.0,0.0));
#623=ORIENTED_EDGE('',*,*,#767,.F.);
#624=ORIENTED_EDGE('',*,*,#771,.F.);
#625=ORIENTED_EDGE('',*,*,#775,.F.);
#626=ORIENTED_EDGE('',*,*,#776,.F.);
#627=CARTESIAN_POINT('',(0.0,25.0,0.0));
#628=DIRECTION('',(0.0,-1.0,0.0));
#629=DIRECTION('',(0.0,0.0,-1.0));
#630=ORIENTED_EDGE('',*,*,#777,.T.);
#631=ORIENTED_EDGE('',*,*,#778,.T.);
#632=ORIENTED_EDGE('',*,*,#779,.T.);
#633=ORIENTED_EDGE('',*,*,#780,.T.);
#634=CARTESIAN_POINT('',(-1.0,0.0,-20.0));
#635=DIRECTION('',(0.0,0.0,-1.0));
#636=DIRECTION('',(-1.0,0.0,0.0));
#637=ORIENTED_EDGE('',*,*,#778,.F.);
#638=ORIENTED_EDGE('',*,*,#781,.T.);
#639=ORIENTED_EDGE('',*,*,#782,.F.);
#640=ORIENTED_EDGE('',*,*,#783,.F.);
#641=CARTESIAN_POINT('',(0.0,0.0,0.0));
#642=DIRECTION('',(0.0,1.0,0.0));
#643=DIRECTION('',(0.0,0.0,1.0));
#644=ORIENTED_EDGE('',*,*,#777,.F.);
#645=ORIENTED_EDGE('',*,*,#784,.F.);
#646=ORIENTED_EDGE('',*,*,#785,.F.);
#647=ORIENTED_EDGE('',*,*,#781,.F.);
#648=CARTESIAN_POINT('',(-20.0,-1.0,0.0));
#649=DIRECTION('',(-1.0,0.0,0.0));
#650=DIRECTION('',(0.0,0.0,1.0));
#651=ORIENTED_EDGE('',*,*,#785,.T.);
#652=ORIENTED_EDGE('',*,*,#786,.T.);
#653=ORIENTED_EDGE('',*,*,#787,.F.);
#654=ORIENTED_EDGE('',*,*,#782,.T.);
#655=CARTESIAN_POINT('',(0.0,12.5,-70.0));
#656=DIRECTION('',(0.0,0.0,1.0));
#657=DIRECTION('',(1.0,0.0,0.0));
#658=ORIENTED_EDGE('',*,*,#780,.F.);
#659=ORIENTED_EDGE('',*,*,#788,.F.);
#660=ORIENTED_EDGE('',*,*,#786,.F.);
#661=ORIENTED_EDGE('',*,*,#784,.T.);
#662=CARTESIAN_POINT('',(-1.0,15.0,0.0));
#663=DIRECTION('',(0.0,1.0,0.0));
#664=DIRECTION('',(0.0,0.0,1.0));
#665=ORIENTED_EDGE('',*,*,#779,.F.);
#666=ORIENTED_EDGE('',*,*,#783,.T.);
#667=ORIENTED_EDGE('',*,*,#787,.T.);
#668=ORIENTED_EDGE('',*,*,#788,.T.);
#669=CARTESIAN_POINT('',(0.0,-1.0,0.0));
#670=DIRECTION('',(-1.0,0.0,0.0));
#671=DIRECTION('',(0.0,0.0,1.0));
#672=ORIENTED_EDGE('',*,*,#789,.T.);
#673=ORIENTED_EDGE('',*,*,#790,.T.);
#674=ORIENTED_EDGE('',*,*,#791,.T.);
#675=ORIENTED_EDGE('',*,*,#792,.T.);
#676=CARTESIAN_POINT('',(-1.0,0.0,-20.0));
#677=DIRECTION('',(0.0,0.0,-1.0));
#678=DIRECTION('',(-1.0,0.0,0.0));
#679=ORIENTED_EDGE('',*,*,#790,.F.);
#680=ORIENTED_EDGE('',*,*,#793,.T.);
#681=ORIENTED_EDGE('',*,*,#794,.T.);
#682=ORIENTED_EDGE('',*,*,#795,.T.);
#683=CARTESIAN_POINT('',(-1.0,15.0,0.0));
#684=DIRECTION('',(0.0,1.0,0.0));
#685=DIRECTION('',(0.0,0.0,1.0));
#686=ORIENTED_EDGE('',*,*,#789,.F.);
#687=ORIENTED_EDGE('',*,*,#796,.F.);
#688=ORIENTED_EDGE('',*,*,#797,.F.);
#689=ORIENTED_EDGE('',*,*,#793,.F.);
#690=CARTESIAN_POINT('',(-20.0,-1.0,0.0));
#691=DIRECTION('',(-1.0,0.0,0.0));
#692=DIRECTION('',(0.0,0.0,1.0));
#693=ORIENTED_EDGE('',*,*,#792,.F.);
#694=ORIENTED_EDGE('',*,*,#798,.F.);
#695=ORIENTED_EDGE('',*,*,#799,.F.);
#696=ORIENTED_EDGE('',*,*,#796,.T.);
#697=CARTESIAN_POINT('',(0.0,25.0,0.0));
#698=DIRECTION('',(0.0,-1.0,0.0));
#699=DIRECTION('',(0.0,0.0,-1.0));
#700=ORIENTED_EDGE('',*,*,#791,.F.);
#701=ORIENTED_EDGE('',*,*,#795,.F.);
#702=ORIENTED_EDGE('',*,*,#800,.T.);
#703=ORIENTED_EDGE('',*,*,#798,.T.);
#704=CARTESIAN_POINT('',(0.0,-1.0,0.0));
#705=DIRECTION('',(-1.0,0.0,0.0));
#706=DIRECTION('',(0.0,0.0,1.0));
#707=ORIENTED_EDGE('',*,*,#797,.T.);
#708=ORIENTED_EDGE('',*,*,#799,.T.);
#709=ORIENTED_EDGE('',*,*,#800,.F.);
#710=ORIENTED_EDGE('',*,*,#794,.F.);
#711=CARTESIAN_POINT('',(0.0,12.5,-70.0));
#712=DIRECTION('',(0.0,0.0,1.0));
#713=DIRECTION('',(1.0,0.0,0.0));
#714=EDGE_CURVE('',#801,#802,#803,.T.);
#715=EDGE_CURVE('',#804,#801,#805,.T.);
#716=EDGE_CURVE('',#806,#804,#807,.T.);
#717=EDGE_CURVE('',#802,#806,#808,.T.);
#718=EDGE_CURVE('',#804,#809,#810,.T.);
#719=EDGE_CURVE('',#811,#809,#812,.T.);
#720=EDGE_CURVE('',#811,#806,#813,.T.);
#721=EDGE_CURVE('',#801,#814,#815,.T.);
#722=EDGE_CURVE('',#809,#814,#816,.T.);
#723=EDGE_CURVE('',#817,#802,#818,.T.);
#724=EDGE_CURVE('',#814,#817,#819,.T.);
#725=EDGE_CURVE('',#817,#811,#820,.T.);
#726=EDGE_CURVE('',#821,#822,#823,.T.);
#727=EDGE_CURVE('',#824,#821,#825,.T.);
#728=EDGE_CURVE('',#822,#824,#826,.T.);
#729=EDGE_CURVE('',#827,#821,#828,.T.);
#730=EDGE_CURVE('',#824,#827,#829,.T.);
#731=EDGE_CURVE('',#827,#822,#830,.T.);
#732=EDGE_CURVE('',#831,#832,#833,.T.);
#733=EDGE_CURVE('',#834,#831,#835,.T.);
#734=EDGE_CURVE('',#836,#834,#837,.T.);
#735=EDGE_CURVE('',#832,#836,#838,.T.);
#736=EDGE_CURVE('',#834,#839,#840,.T.);
#737=EDGE_CURVE('',#841,#839,#842,.T.);
#738=EDGE_CURVE('',#836,#841,#843,.T.);
#739=EDGE_CURVE('',#831,#844,#845,.T.);
#740=EDGE_CURVE('',#839,#844,#846,.T.);
#741=EDGE_CURVE('',#847,#832,#848,.T.);
#742=EDGE_CURVE('',#844,#847,#849,.T.);
#743=EDGE_CURVE('',#841,#847,#850,.T.);
#744=EDGE_CURVE('',#851,#852,#853,.T.);
#745=EDGE_CURVE('',#852,#854,#855,.T.);
#746=EDGE_CURVE('',#854,#851,#856,.T.);
#747=EDGE_CURVE('',#852,#857,#858,.T.);
#748=EDGE_CURVE('',#857,#859,#860,.T.);
#749=EDGE_CURVE('',#859,#854,#861,.T.);
#750=EDGE_CURVE('',#851,#862,#863,.T.);
#751=EDGE_CURVE('',#862,#857,#864,.T.);
#752=EDGE_CURVE('',#859,#862,#865,.T.);
#753=EDGE_CURVE('',#866,#867,#868,.T.);
#754=EDGE_CURVE('',#867,#869,#870,.T.);
#755=EDGE_CURVE('',#869,#871,#872,.T.);
#756=EDGE_CURVE('',#871,#866,#873,.T.);
#757=EDGE_CURVE('',#867,#874,#875,.T.);
#758=EDGE_CURVE('',#874,#876,#877,.T.);
#759=EDGE_CURVE('',#876,#869,#878,.T.);
#760=EDGE_CURVE('',#879,#866,#880,.T.);
#761=EDGE_CURVE('',#874,#879,#881,.T.);
#762=EDGE_CURVE('',#871,#882,#883,.T.);
#763=EDGE_CURVE('',#882,#879,#884,.T.);
#764=EDGE_CURVE('',#876,#882,#885,.T.);
#765=EDGE_CURVE('',#886,#887,#888,.T.);
#766=EDGE_CURVE('',#887,#889,#890,.T.);
#767=EDGE_CURVE('',#889,#891,#892,.T.);
#768=EDGE_CURVE('',#891,#886,#893,.T.);
#769=EDGE_CURVE('',#894,#887,#895,.T.);
#770=EDGE_CURVE('',#894,#896,#897,.T.);
#771=EDGE_CURVE('',#896,#889,#898,.T.);
#772=EDGE_CURVE('',#886,#899,#900,.T.);
#773=EDGE_CURVE('',#899,#894,#901,.T.);
#774=EDGE_CURVE('',#902,#899,#903,.T.);
#775=EDGE_CURVE('',#902,#896,#904,.T.);
#776=EDGE_CURVE('',#891,#902,#905,.T.);
#777=EDGE_CURVE('',#906,#907,#908,.T.);
#778=EDGE_CURVE('',#907,#909,#910,.T.);
#779=EDGE_CURVE('',#909,#911,#912,.T.);
#780=EDGE_CURVE('',#911,#906,#913,.T.);
#781=EDGE_CURVE('',#907,#914,#915,.T.);
#782=EDGE_CURVE('',#916,#914,#917,.T.);
#783=EDGE_CURVE('',#909,#916,#918,.T.);
#784=EDGE_CURVE('',#919,#906,#920,.T.);
#785=EDGE_CURVE('',#914,#919,#921,.T.);
#786=EDGE_CURVE('',#919,#922,#923,.T.);
#787=EDGE_CURVE('',#916,#922,#924,.T.);
#788=EDGE_CURVE('',#922,#911,#925,.T.);
#789=EDGE_CURVE('',#926,#927,#928,.T.);
#790=EDGE_CURVE('',#927,#929,#930,.T.);
#791=EDGE_CURVE('',#929,#931,#932,.T.);
#792=EDGE_CURVE('',#931,#926,#933,.T.);
#793=EDGE_CURVE('',#927,#934,#935,.T.);
#794=EDGE_CURVE('',#934,#936,#937,.T.);
#795=EDGE_CURVE('',#936,#929,#938,.T.);
#796=EDGE_CURVE('',#939,#926,#940,.T.);
#797=EDGE_CURVE('',#934,#939,#941,.T.);
#798=EDGE_CURVE('',#942,#931,#943,.T.);
#799=EDGE_CURVE('',#939,#942,#944,.T.);
#800=EDGE_CURVE('',#936,#942,#945,.T.);
#801=VERTEX_POINT('',#946);
#802=VERTEX_POINT('',#947);
#803=LINE('',#948,#949);
#804=VERTEX_POINT('',#950);
#805=LINE('',#951,#952);
#806=VERTEX_POINT('',#953);
#807=LINE('',#954,#955);
#808=LINE('',#956,#957);
#809=VERTEX_POINT('',#958);
#810=LINE('',#959,#960);
#811=VERTEX_POINT('',#961);
#812=LINE('',#962,#963);
#813=LINE('',#964,#965);
#814=VERTEX_POINT('',#966);
#815=LINE('',#967,#968);
#816=LINE('',#969,#970);
#817=VERTEX_POINT('',#971);
#818=LINE('',#972,#973);
#819=LINE('',#974,#975);
#820=LINE('',#976,#977);
#821=VERTEX_POINT('',#978);
#822=VERTEX_POINT('',#979);
#823=LINE('',#980,#981);
#824=VERTEX_POINT('',#982);
#825=CIRCLE('',#983,26.4575131106459);
#826=LINE('',#984,#985);
#827=VERTEX_POINT('',#986);
#828=CIRCLE('',#987,40.0);
#829=CIRCLE('',#988,40.0);
#830=LINE('',#989,#990);
#831=VERTEX_POINT('',#991);
#832=VERTEX_POINT('',#992);
#833=LINE('',#993,#994);
#834=VERTEX_POINT('',#995);
#835=LINE('',#996,#997);
#836=VERTEX_POINT('',#998);
#837=LINE('',#999,#1000);
#838=LINE('',#1001,#1002);
#839=VERTEX_POINT('',#1003);
#840=LINE('',#1004,#1005);
#841=VERTEX_POINT('',#1006);
#842=LINE('',#1007,#1008);
#843=LINE('',#1009,#1010);
#844=VERTEX_POINT('',#1011);
#845=LINE('',#1012,#1013);
#846=LINE('',#1014,#1015);
#847=VERTEX_POINT('',#1016);
#848=LINE('',#1017,#1018);
#849=LINE('',#1019,#1020);
#850=LINE('',#1021,#1022);
#851=VERTEX_POINT('',#1023);
#852=VERTEX_POINT('',#1024);
#853=LINE('',#1025,#1026);
#854=VERTEX_POINT('',#1027);
#855=LINE('',#1028,#1029);
#856=CIRCLE('',#1030,26.4575131106459);
#857=VERTEX_POINT('',#1031);
#858=LINE('',#1032,#1033);
#859=VERTEX_POINT('',#1034);
#860=LINE('',#1035,#1036);
#861=CIRCLE('',#1037,40.0);
#862=VERTEX_POINT('',#1038);
#863=CIRCLE('',#1039,40.0);
#864=LINE('',#1040,#1041);
#865=CIRCLE('',#1042,40.0);
#866=VERTEX_POINT('',#1043);
#867=VERTEX_POINT('',#1044);
#868=LINE('',#1045,#1046);
#869=VERTEX_POINT('',#1047);
#870=LINE('',#1048,#1049);
#871=VERTEX_POINT('',#1050);
#872=LINE('',#1051,#1052);
#873=LINE('',#1053,#1054);
#874=VERTEX_POINT('',#1055);
#875=LINE('',#1056,#1057);
#876=VERTEX_POINT('',#1058);
#877=LINE('',#1059,#1060);
#878=LINE('',#1061,#1062);
#879=VERTEX_POINT('',#1063);
#880=LINE('',#1064,#1065);
#881=LINE('',#1066,#1067);
#882=VERTEX_POINT('',#1068);
#883=LINE('',#1069,#1070);
#884=LINE('',#1071,#1072);
#885=LINE('',#1073,#1074);
#886=VERTEX_POINT('',#1075);
#887=VERTEX_POINT('',#1076);
#888=LINE('',#1077,#1078);
#889=VERTEX_POINT('',#1079);
#890=LINE('',#1080,#1081);
#891=VERTEX_POINT('',#1082);
#892=LINE('',#1083,#1084);
#893=LINE('',#1085,#1086);
#894=VERTEX_POINT('',#1087);
#895=LINE('',#1088,#1089);
#896=VERTEX_POINT('',#1090);
#897=LINE('',#1091,#1092);
#898=LINE('',#1093,#1094);
#899=VERTEX_POINT('',#1095);
#900=LINE('',#1096,#1097);
#901=LINE('',#1098,#1099);
#902=VERTEX_POINT('',#1100);
#903=LINE('',#1101,#1102);
#904=LINE('',#1103,#1104);
#905=LINE('',#1105,#1106);
#906=VERTEX_POINT('',#1107);
#907=VERTEX_POINT('',#1108);
#908=LINE('',#1109,#1110);
#909=VERTEX_POINT('',#1111);
#910=LINE('',#1112,#1113);
#911=VERTEX_POINT('',#1114);
#912=LINE('',#1115,#1116);
#913=LINE('',#1117,#1118);
#914=VERTEX_POINT('',#1119);
#915=LINE('',#1120,#1121);
#916=VERTEX_POINT('',#1122);
#917=LINE('',#1123,#1124);
#918=LINE('',#1125,#1126);
#919=VERTEX_POINT('',#1127);
#920=LINE('',#1128,#1129);
#921=LINE('',#1130,#1131);
#922=VERTEX_POINT('',#1132);
#923=LINE('',#1133,#1134);
#924=LINE('',#1135,#1136);
#925=LINE('',#1137,#1138);
#926=VERTEX_POINT('',#1139);
#927=VERTEX_POINT('',#1140);
#928=LINE('',#1141,#1142);
#929=VERTEX_POINT('',#1143);
#930=LINE('',#1144,#1145);
#931=VERTEX_POINT('',#1146);
#932=LINE('',#1147,#1148);
#933=LINE('',#1149,#1150);
#934=VERTEX_POINT('',#1151);
#935=LINE('',#1152,#1153);
#936=VERTEX_POINT('',#1154);
#937=LINE('',#1155,#1156);
#938=LINE('',#1157,#1158);
#939=VERTEX_POINT('',#1159);
#940=LINE('',#1160,#1161);
#941=LINE('',#1162,#1163);
#942=VERTEX_POINT('',#1164);
#943=LINE('',#1165,#1166);
#944=LINE('',#1167,#1168);
#945=LINE('',#1169,#1170);
#946=CARTESIAN_POINT('',(-20.0,15.0,-20.0));
#947=CARTESIAN_POINT('',(-20.0,0.0,-20.0));
#948=CARTESIAN_POINT('',(-20.0,-0.5,-20.0));
#949=VECTOR('',#1171,1.0);
#950=CARTESIAN_POINT('',(0.0,15.0,-20.0));
#951=CARTESIAN_POINT('',(-1.0,15.0,-20.0));
#952=VECTOR('',#1172,1.0);
#953=CARTESIAN_POINT('',(0.0,0.0,-20.0));
#954=CARTESIAN_POINT('',(0.0,-0.5,-20.0));
#955=VECTOR('',#1173,1.0);
#956=CARTESIAN_POINT('',(-0.5,0.0,-20.0));
#957=VECTOR('',#1174,1.0);
#958=CARTESIAN_POINT('',(0.0,15.0,0.0));
#959=CARTESIAN_POINT('',(0.0,15.0,0.0));
#960=VECTOR('',#1175,1.0);
#961=CARTESIAN_POINT('',(0.0,0.0,0.0));
#962=CARTESIAN_POINT('',(0.0,-0.5,0.0));
#963=VECTOR('',#1176,1.0);
#964=CARTESIAN_POINT('',(0.0,0.0,0.0));
#965=VECTOR('',#1177,1.0);
#966=CARTESIAN_POINT('',(-20.0,15.0,0.0));
#967=CARTESIAN_POINT('',(-20.0,15.0,0.0));
#968=VECTOR('',#1178,1.0);
#969=CARTESIAN_POINT('',(-1.0,15.0,0.0));
#970=VECTOR('',#1179,1.0);
#971=CARTESIAN_POINT('',(-20.0,0.0,0.0));
#972=CARTESIAN_POINT('',(-20.0,0.0,0.0));
#973=VECTOR('',#1180,1.0);
#974=CARTESIAN_POINT('',(-20.0,-0.5,0.0));
#975=VECTOR('',#1181,1.0);
#976=CARTESIAN_POINT('',(-0.5,0.0,0.0));
#977=VECTOR('',#1182,1.0);
#978=CARTESIAN_POINT('',(0.0,35.0,-26.4575131106459));
#979=CARTESIAN_POINT('',(0.0,35.0,0.0));
#980=CARTESIAN_POINT('',(0.0,35.0,0.0));
#981=VECTOR('',#1183,1.0);
#982=CARTESIAN_POINT('',(-26.4575131106459,35.0,0.0));
#983=AXIS2_PLACEMENT_3D('',#1184,#1185,#1186);
#984=CARTESIAN_POINT('',(-1.0,35.0,0.0));
#985=VECTOR('',#1187,1.0);
#986=CARTESIAN_POINT('',(0.0,25.0,0.0));
#987=AXIS2_PLACEMENT_3D('',#1188,#1189,#1190);
#988=AXIS2_PLACEMENT_3D('',#1191,#1192,#1193);
#989=CARTESIAN_POINT('',(0.0,-0.5,0.0));
#990=VECTOR('',#1194,1.0);
#991=CARTESIAN_POINT('',(-20.0,25.0,-20.0));
#992=CARTESIAN_POINT('',(-20.0,15.0,-20.0));
#993=CARTESIAN_POINT('',(-20.0,-0.5,-20.0));
#994=VECTOR('',#1195,1.0);
#995=CARTESIAN_POINT('',(0.0,25.0,-20.0));
#996=CARTESIAN_POINT('',(-0.5,25.0,-20.0));
#997=VECTOR('',#1196,1.0);
#998=CARTESIAN_POINT('',(0.0,15.0,-20.0));
#999=CARTESIAN_POINT('',(0.0,-0.5,-20.0));
#1000=VECTOR('',#1197,1.0);
#1001=CARTESIAN_POINT('',(-1.0,15.0,-20.0));
#1002=VECTOR('',#1198,1.0);
#1003=CARTESIAN_POINT('',(0.0,25.0,0.0));
#1004=CARTESIAN_POINT('',(0.0,25.0,0.0));
#1005=VECTOR('',#1199,1.0);
#1006=CARTESIAN_POINT('',(0.0,15.0,0.0));
#1007=CARTESIAN_POINT('',(0.0,-0.5,0.0));
#1008=VECTOR('',#1200,1.0);
#1009=CARTESIAN_POINT('',(0.0,15.0,0.0));
#1010=VECTOR('',#1201,1.0);
#1011=CARTESIAN_POINT('',(-20.0,25.0,0.0));
#1012=CARTESIAN_POINT('',(-20.0,25.0,0.0));
#1013=VECTOR('',#1202,1.0);
#1014=CARTESIAN_POINT('',(-0.5,25.0,0.0));
#1015=VECTOR('',#1203,1.0);
#1016=CARTESIAN_POINT('',(-20.0,15.0,0.0));
#1017=CARTESIAN_POINT('',(-20.0,15.0,0.0));
#1018=VECTOR('',#1204,1.0);
#1019=CARTESIAN_POINT('',(-20.0,-0.5,0.0));
#1020=VECTOR('',#1205,1.0);
#1021=CARTESIAN_POINT('',(-1.0,15.0,0.0));
#1022=VECTOR('',#1206,1.0);
#1023=CARTESIAN_POINT('',(0.0,35.0,-26.4575131106459));
#1024=CARTESIAN_POINT('',(0.0,35.0,0.0));
#1025=CARTESIAN_POINT('',(0.0,35.0,0.0));
#1026=VECTOR('',#1207,1.0);
#1027=CARTESIAN_POINT('',(-26.4575131106459,35.0,0.0));
#1028=CARTESIAN_POINT('',(-1.0,35.0,0.0));
#1029=VECTOR('',#1208,1.0);
#1030=AXIS2_PLACEMENT_3D('',#1209,#1210,#1211);
#1031=CARTESIAN_POINT('',(0.0,65.0,0.0));
#1032=CARTESIAN_POINT('',(0.0,-0.5,0.0));
#1033=VECTOR('',#1212,1.0);
#1034=CARTESIAN_POINT('',(-40.0,65.0,0.0));
#1035=CARTESIAN_POINT('',(-1.0,65.0,0.0));
#1036=VECTOR('',#1213,1.0);
#1037=AXIS2_PLACEMENT_3D('',#1214,#1215,#1216);
#1038=CARTESIAN_POINT('',(0.0,65.0,-40.0));
#1039=AXIS2_PLACEMENT_3D('',#1217,#1218,#1219);
#1040=CARTESIAN_POINT('',(0.0,65.0,0.0));
#1041=VECTOR('',#1220,1.0);
#1042=AXIS2_PLACEMENT_3D('',#1221,#1222,#1223);
#1043=CARTESIAN_POINT('',(-20.0,15.0,-70.0));
#1044=CARTESIAN_POINT('',(-20.0,15.0,0.0));
#1045=CARTESIAN_POINT('',(-20.0,15.0,0.0));
#1046=VECTOR('',#1224,1.0);
#1047=CARTESIAN_POINT('',(-20.0,0.0,0.0));
#1048=CARTESIAN_POINT('',(-20.0,-0.5,0.0));
#1049=VECTOR('',#1225,1.0);
#1050=CARTESIAN_POINT('',(-20.0,0.0,-70.0));
#1051=CARTESIAN_POINT('',(-20.0,0.0,0.0));
#1052=VECTOR('',#1226,1.0);
#1053=CARTESIAN_POINT('',(-20.0,5.75,-70.0));
#1054=VECTOR('',#1227,1.0);
#1055=CARTESIAN_POINT('',(-70.0,15.0,0.0));
#1056=CARTESIAN_POINT('',(-1.0,15.0,0.0));
#1057=VECTOR('',#1228,1.0);
#1058=CARTESIAN_POINT('',(-70.0,0.0,0.0));
#1059=CARTESIAN_POINT('',(-70.0,6.25,0.0));
#1060=VECTOR('',#1229,1.0);
#1061=CARTESIAN_POINT('',(-0.5,0.0,0.0));
#1062=VECTOR('',#1230,1.0);
#1063=CARTESIAN_POINT('',(-70.0,15.0,-70.0));
#1064=CARTESIAN_POINT('',(-0.5,15.0,-70.0));
#1065=VECTOR('',#1231,1.0);
#1066=CARTESIAN_POINT('',(-70.0,15.0,0.0));
#1067=VECTOR('',#1232,1.0);
#1068=CARTESIAN_POINT('',(-70.0,0.0,-70.0));
#1069=CARTESIAN_POINT('',(0.0,0.0,-70.0));
#1070=VECTOR('',#1233,1.0);
#1071=CARTESIAN_POINT('',(-70.0,12.5,-70.0));
#1072=VECTOR('',#1234,1.0);
#1073=CARTESIAN_POINT('',(-70.0,0.0,0.0));
#1074=VECTOR('',#1235,1.0);
#1075=CARTESIAN_POINT('',(-20.0,15.0,0.0));
#1076=CARTESIAN_POINT('',(-20.0,15.0,-70.0));
#1077=CARTESIAN_POINT('',(-20.0,15.0,0.0));
#1078=VECTOR('',#1236,1.0);
#1079=CARTESIAN_POINT('',(-20.0,25.0,-70.0));
#1080=CARTESIAN_POINT('',(-20.0,5.75,-70.0));
#1081=VECTOR('',#1237,1.0);
#1082=CARTESIAN_POINT('',(-20.0,25.0,0.0));
#1083=CARTESIAN_POINT('',(-20.0,25.0,0.0));
#1084=VECTOR('',#1238,1.0);
#1085=CARTESIAN_POINT('',(-20.0,-0.5,0.0));
#1086=VECTOR('',#1239,1.0);
#1087=CARTESIAN_POINT('',(-70.0,15.0,-70.0));
#1088=CARTESIAN_POINT('',(-0.5,15.0,-70.0));
#1089=VECTOR('',#1240,1.0);
#1090=CARTESIAN_POINT('',(-70.0,25.0,-70.0));
#1091=CARTESIAN_POINT('',(-70.0,12.5,-70.0));
#1092=VECTOR('',#1241,1.0);
#1093=CARTESIAN_POINT('',(0.0,25.0,-70.0));
#1094=VECTOR('',#1242,1.0);
#1095=CARTESIAN_POINT('',(-70.0,15.0,0.0));
#1096=CARTESIAN_POINT('',(-1.0,15.0,0.0));
#1097=VECTOR('',#1243,1.0);
#1098=CARTESIAN_POINT('',(-70.0,15.0,0.0));
#1099=VECTOR('',#1244,1.0);
#1100=CARTESIAN_POINT('',(-70.0,25.0,0.0));
#1101=CARTESIAN_POINT('',(-70.0,6.25,0.0));
#1102=VECTOR('',#1245,1.0);
#1103=CARTESIAN_POINT('',(-70.0,25.0,0.0));
#1104=VECTOR('',#1246,1.0);
#1105=CARTESIAN_POINT('',(-0.5,25.0,0.0));
#1106=VECTOR('',#1247,1.0);
#1107=CARTESIAN_POINT('',(-20.0,15.0,-20.0));
#1108=CARTESIAN_POINT('',(-20.0,0.0,-20.0));
#1109=CARTESIAN_POINT('',(-20.0,-0.5,-20.0));
#1110=VECTOR('',#1248,1.0);
#1111=CARTESIAN_POINT('',(0.0,0.0,-20.0));
#1112=CARTESIAN_POINT('',(-0.5,0.0,-20.0));
#1113=VECTOR('',#1249,1.0);
#1114=CARTESIAN_POINT('',(0.0,15.0,-20.0));
#1115=CARTESIAN_POINT('',(0.0,-0.5,-20.0));
#1116=VECTOR('',#1250,1.0);
#1117=CARTESIAN_POINT('',(-1.0,15.0,-20.0));
#1118=VECTOR('',#1251,1.0);
#1119=CARTESIAN_POINT('',(-20.0,0.0,-70.0));
#1120=CARTESIAN_POINT('',(-20.0,0.0,0.0));
#1121=VECTOR('',#1252,1.0);
#1122=CARTESIAN_POINT('',(0.0,0.0,-70.0));
#1123=CARTESIAN_POINT('',(0.0,0.0,-70.0));
#1124=VECTOR('',#1253,1.0);
#1125=CARTESIAN_POINT('',(0.0,0.0,0.0));
#1126=VECTOR('',#1254,1.0);
#1127=CARTESIAN_POINT('',(-20.0,15.0,-70.0));
#1128=CARTESIAN_POINT('',(-20.0,15.0,0.0));
#1129=VECTOR('',#1255,1.0);
#1130=CARTESIAN_POINT('',(-20.0,5.75,-70.0));
#1131=VECTOR('',#1256,1.0);
#1132=CARTESIAN_POINT('',(0.0,15.0,-70.0));
#1133=CARTESIAN_POINT('',(-0.5,15.0,-70.0));
#1134=VECTOR('',#1257,1.0);
#1135=CARTESIAN_POINT('',(0.0,5.75,-70.0));
#1136=VECTOR('',#1258,1.0);
#1137=CARTESIAN_POINT('',(0.0,15.0,0.0));
#1138=VECTOR('',#1259,1.0);
#1139=CARTESIAN_POINT('',(-20.0,25.0,-20.0));
#1140=CARTESIAN_POINT('',(-20.0,15.0,-20.0));
#1141=CARTESIAN_POINT('',(-20.0,-0.5,-20.0));
#1142=VECTOR('',#1260,1.0);
#1143=CARTESIAN_POINT('',(0.0,15.0,-20.0));
#1144=CARTESIAN_POINT('',(-1.0,15.0,-20.0));
#1145=VECTOR('',#1261,1.0);
#1146=CARTESIAN_POINT('',(0.0,25.0,-20.0));
#1147=CARTESIAN_POINT('',(0.0,-0.5,-20.0));
#1148=VECTOR('',#1262,1.0);
#1149=CARTESIAN_POINT('',(-0.5,25.0,-20.0));
#1150=VECTOR('',#1263,1.0);
#1151=CARTESIAN_POINT('',(-20.0,15.0,-70.0));
#1152=CARTESIAN_POINT('',(-20.0,15.0,0.0));
#1153=VECTOR('',#1264,1.0);
#1154=CARTESIAN_POINT('',(0.0,15.0,-70.0));
#1155=CARTESIAN_POINT('',(-0.5,15.0,-70.0));
#1156=VECTOR('',#1265,1.0);
#1157=CARTESIAN_POINT('',(0.0,15.0,0.0));
#1158=VECTOR('',#1266,1.0);
#1159=CARTESIAN_POINT('',(-20.0,25.0,-70.0));
#1160=CARTESIAN_POINT('',(-20.0,25.0,0.0));
#1161=VECTOR('',#1267,1.0);
#1162=CARTESIAN_POINT('',(-20.0,5.75,-70.0));
#1163=VECTOR('',#1268,1.0);
#1164=CARTESIAN_POINT('',(0.0,25.0,-70.0));
#1165=CARTESIAN_POINT('',(0.0,25.0,0.0));
#1166=VECTOR('',#1269,1.0);
#1167=CARTESIAN_POINT('',(0.0,25.0,-70.0));
#1168=VECTOR('',#1270,1.0);
#1169=CARTESIAN_POINT('',(0.0,5.75,-70.0));
#1170=VECTOR('',#1271,1.0);
#1171=DIRECTION('',(-0.0,-1.0,0.0));
#1172=DIRECTION('',(-1.0,0.0,-0.0));
#1173=DIRECTION('',(0.0,1.0,0.0));
#1174=DIRECTION('',(1.0,-0.0,0.0));
#1175=DIRECTION('',(-0.0,0.0,1.0));
#1176=DIRECTION('',(0.0,1.0,0.0));
#1177=DIRECTION('',(0.0,0.0,-1.0));
#1178=DIRECTION('',(-0.0,0.0,1.0));
#1179=DIRECTION('',(-1.0,0.0,-0.0));
#1180=DIRECTION('',(0.0,0.0,-1.0));
#1181=DIRECTION('',(-0.0,-1.0,0.0));
#1182=DIRECTION('',(1.0,-0.0,0.0));
#1183=DIRECTION('',(-0.0,0.0,1.0));
#1184=CARTESIAN_POINT('',(0.0,35.0,0.0));
#1185=DIRECTION('',(0.0,-1.0,0.0));
#1186=DIRECTION('',(0.0,0.0,1.0));
#1187=DIRECTION('',(-1.0,0.0,-0.0));
#1188=CARTESIAN_POINT('',(0.0,65.0,0.0));
#1189=DIRECTION('',(1.0,0.0,0.0));
#1190=DIRECTION('',(-0.0,0.0,1.0));
#1191=CARTESIAN_POINT('',(0.0,65.0,0.0));
#1192=DIRECTION('',(0.0,0.0,1.0));
#1193=DIRECTION('',(0.0,1.0,-0.0));
#1194=DIRECTION('',(0.0,1.0,0.0));
#1195=DIRECTION('',(-0.0,-1.0,0.0));
#1196=DIRECTION('',(-1.0,-0.0,0.0));
#1197=DIRECTION('',(0.0,1.0,0.0));
#1198=DIRECTION('',(1.0,-0.0,0.0));
#1199=DIRECTION('',(0.0,0.0,1.0));
#1200=DIRECTION('',(0.0,1.0,0.0));
#1201=DIRECTION('',(-0.0,0.0,1.0));
#1202=DIRECTION('',(0.0,0.0,1.0));
#1203=DIRECTION('',(-1.0,-0.0,0.0));
#1204=DIRECTION('',(0.0,0.0,-1.0));
#1205=DIRECTION('',(-0.0,-1.0,0.0));
#1206=DIRECTION('',(-1.0,0.0,-0.0));
#1207=DIRECTION('',(-0.0,0.0,1.0));
#1208=DIRECTION('',(-1.0,0.0,-0.0));
#1209=CARTESIAN_POINT('',(0.0,35.0,0.0));
#1210=DIRECTION('',(0.0,-1.0,0.0));
#1211=DIRECTION('',(0.0,0.0,1.0));
#1212=DIRECTION('',(0.0,1.0,0.0));
#1213=DIRECTION('',(-1.0,0.0,-0.0));
#1214=CARTESIAN_POINT('',(0.0,65.0,0.0));
#1215=DIRECTION('',(0.0,0.0,1.0));
#1216=DIRECTION('',(0.0,1.0,-0.0));
#1217=CARTESIAN_POINT('',(0.0,65.0,0.0));
#1218=DIRECTION('',(1.0,0.0,0.0));
#1219=DIRECTION('',(-0.0,0.0,1.0));
#1220=DIRECTION('',(-0.0,0.0,1.0));
#1221=CARTESIAN_POINT('',(0.0,65.0,0.0));
#1222=DIRECTION('',(0.0,-1.0,0.0));
#1223=DIRECTION('',(0.0,0.0,1.0));
#1224=DIRECTION('',(-0.0,0.0,1.0));
#1225=DIRECTION('',(-0.0,-1.0,0.0));
#1226=DIRECTION('',(0.0,0.0,-1.0));
#1227=DIRECTION('',(0.0,1.0,-0.0));
#1228=DIRECTION('',(-1.0,0.0,-0.0));
#1229=DIRECTION('',(0.0,-1.0,0.0));
#1230=DIRECTION('',(1.0,-0.0,0.0));
#1231=DIRECTION('',(1.0,0.0,0.0));
#1232=DIRECTION('',(0.0,0.0,-1.0));
#1233=DIRECTION('',(-1.0,0.0,0.0));
#1234=DIRECTION('',(0.0,1.0,0.0));
#1235=DIRECTION('',(0.0,0.0,-1.0));
#1236=DIRECTION('',(0.0,0.0,-1.0));
#1237=DIRECTION('',(0.0,1.0,-0.0));
#1238=DIRECTION('',(0.0,0.0,1.0));
#1239=DIRECTION('',(-0.0,-1.0,0.0));
#1240=DIRECTION('',(1.0,0.0,0.0));
#1241=DIRECTION('',(0.0,1.0,0.0));
#1242=DIRECTION('',(1.0,0.0,0.0));
#1243=DIRECTION('',(-1.0,0.0,-0.0));
#1244=DIRECTION('',(0.0,0.0,-1.0));
#1245=DIRECTION('',(0.0,-1.0,0.0));
#1246=DIRECTION('',(0.0,0.0,-1.0));
#1247=DIRECTION('',(-1.0,-0.0,0.0));
#1248=DIRECTION('',(-0.0,-1.0,0.0));
#1249=DIRECTION('',(1.0,-0.0,0.0));
#1250=DIRECTION('',(0.0,1.0,0.0));
#1251=DIRECTION('',(-1.0,0.0,-0.0));
#1252=DIRECTION('',(0.0,0.0,-1.0));
#1253=DIRECTION('',(-1.0,0.0,0.0));
#1254=DIRECTION('',(0.0,0.0,-1.0));
#1255=DIRECTION('',(-0.0,0.0,1.0));
#1256=DIRECTION('',(0.0,1.0,-0.0));
#1257=DIRECTION('',(1.0,0.0,0.0));
#1258=DIRECTION('',(0.0,1.0,-0.0));
#1259=DIRECTION('',(-0.0,0.0,1.0));
#1260=DIRECTION('',(-0.0,-1.0,0.0));
#1261=DIRECTION('',(1.0,-0.0,0.0));
#1262=DIRECTION('',(0.0,1.0,0.0));
#1263=DIRECTION('',(-1.0,-0.0,0.0));
#1264=DIRECTION('',(0.0,0.0,-1.0));
#1265=DIRECTION('',(1.0,0.0,0.0));
#1266=DIRECTION('',(-0.0,0.0,1.0));
#1267=DIRECTION('',(0.0,0.0,1.0));
#1268=DIRECTION('',(0.0,1.0,-0.0));
#1269=DIRECTION('',(0.0,0.0,1.0));
#1270=DIRECTION('',(1.0,0.0,0.0));
#1271=DIRECTION('',(0.0,1.0,-0.0));
ENDSEC;
END-ISO-10303-21;
