ISO-10303-21;
HEADER;
FILE_DESCRIPTION(('FreeCAD Model'),'2;1');
FILE_NAME('Open CASCADE Shape Model','2025-09-09T10:18:20',(''),(''),
  'Open CASCADE STEP processor 7.8','FreeCAD','Unknown');
FILE_SCHEMA(('AUTOMOTIVE_DESIGN { 1 0 10303 214 1 1 1 1 }'));
ENDSEC;
DATA;
#1 = APPLICATION_PROTOCOL_DEFINITION('international standard',
  'automotive_design',2000,#2);
#2 = APPLICATION_CONTEXT(
  'core data for automotive mechanical design processes');
#3 = SHAPE_DEFINITION_REPRESENTATION(#4,#10);
#4 = PRODUCT_DEFINITION_SHAPE('','',#5);
#5 = PRODUCT_DEFINITION('design','',#6,#9);
#6 = PRODUCT_DEFINITION_FORMATION('','',#7);
#7 = PRODUCT('Body','Body','',(#8));
#8 = PRODUCT_CONTEXT('',#2,'mechanical');
#9 = PRODUCT_DEFINITION_CONTEXT('part definition',#2,'design');
#10 = ADVANCED_BREP_SHAPE_REPRESENTATION('',(#11,#15),#136);
#11 = AXIS2_PLACEMENT_3D('',#12,#13,#14);
#12 = CARTESIAN_POINT('',(0.,0.,0.));
#13 = DIRECTION('',(0.,0.,1.));
#14 = DIRECTION('',(1.,0.,-0.));
#15 = MANIFOLD_SOLID_BREP('',#16);
#16 = CLOSED_SHELL('',(#17,#42,#73,#107,#117));
#17 = ADVANCED_FACE('',(#18),#37,.T.);
#18 = FACE_BOUND('',#19,.F.);
#19 = EDGE_LOOP('',(#20,#30));
#20 = ORIENTED_EDGE('',*,*,#21,.F.);
#21 = EDGE_CURVE('',#22,#24,#26,.T.);
#22 = VERTEX_POINT('',#23);
#23 = CARTESIAN_POINT('',(-6.916391215446,1.068146126314E-15,
    7.222432592617));
#24 = VERTEX_POINT('',#25);
#25 = CARTESIAN_POINT('',(6.916391215446,2.449293598295E-15,
    -7.222432592617));
#26 = LINE('',#27,#28);
#27 = CARTESIAN_POINT('',(-6.916391215446,3.552713678801E-15,
    7.222432592617));
#28 = VECTOR('',#29,1.);
#29 = DIRECTION('',(0.691639121545,-5.551115123126E-17,-0.722243259262)
  );
#30 = ORIENTED_EDGE('',*,*,#31,.F.);
#31 = EDGE_CURVE('',#24,#22,#32,.T.);
#32 = CIRCLE('',#33,10.);
#33 = AXIS2_PLACEMENT_3D('',#34,#35,#36);
#34 = CARTESIAN_POINT('',(-1.2829617533E-15,-2.72803531754E-31,
    -1.228597883953E-15));
#35 = DIRECTION('',(-0.722243259262,-1.535747354941E-16,-0.691639121545)
  );
#36 = DIRECTION('',(-0.691639121545,1.603702191625E-16,0.722243259262));
#37 = PLANE('',#38);
#38 = AXIS2_PLACEMENT_3D('',#39,#40,#41);
#39 = CARTESIAN_POINT('',(0.,0.,0.));
#40 = DIRECTION('',(-0.722243259262,-1.535747354941E-16,-0.691639121545)
  );
#41 = DIRECTION('',(-0.691639121545,1.603702191625E-16,0.722243259262));
#42 = ADVANCED_FACE('',(#43),#68,.T.);
#43 = FACE_BOUND('',#44,.T.);
#44 = EDGE_LOOP('',(#45,#53,#61,#67));
#45 = ORIENTED_EDGE('',*,*,#46,.T.);
#46 = EDGE_CURVE('',#22,#47,#49,.T.);
#47 = VERTEX_POINT('',#48);
#48 = CARTESIAN_POINT('',(-6.915668972187,6.123233988263E-16,
    7.223124231739));
#49 = LINE('',#50,#51);
#50 = CARTESIAN_POINT('',(-6.916391215446,1.603702191625E-15,
    7.222432592617));
#51 = VECTOR('',#52,1.);
#52 = DIRECTION('',(0.722243259262,1.535747354941E-16,0.691639121545));
#53 = ORIENTED_EDGE('',*,*,#54,.T.);
#54 = EDGE_CURVE('',#47,#55,#57,.T.);
#55 = VERTEX_POINT('',#56);
#56 = CARTESIAN_POINT('',(6.917113458706,2.449293598295E-15,
    -7.221740953495));
#57 = LINE('',#58,#59);
#58 = CARTESIAN_POINT('',(-6.915668972187,3.840677775813E-15,
    7.223124231739));
#59 = VECTOR('',#60,1.);
#60 = DIRECTION('',(0.691639121545,-5.551115123126E-17,-0.722243259262)
  );
#61 = ORIENTED_EDGE('',*,*,#62,.F.);
#62 = EDGE_CURVE('',#24,#55,#63,.T.);
#63 = LINE('',#64,#65);
#64 = CARTESIAN_POINT('',(6.916391215446,2.449293598295E-15,
    -7.222432592617));
#65 = VECTOR('',#66,1.);
#66 = DIRECTION('',(0.722243259262,2.465190328816E-32,0.691639121545));
#67 = ORIENTED_EDGE('',*,*,#21,.F.);
#68 = PLANE('',#69);
#69 = AXIS2_PLACEMENT_3D('',#70,#71,#72);
#70 = CARTESIAN_POINT('',(-6.916391215446,2.449293598295E-15,
    7.222432592617));
#71 = DIRECTION('',(0.,1.,-4.930380657631E-32));
#72 = DIRECTION('',(0.691639121545,-2.465190328816E-32,-0.722243259262)
  );
#73 = ADVANCED_FACE('',(#74),#102,.T.);
#74 = FACE_BOUND('',#75,.F.);
#75 = EDGE_LOOP('',(#76,#77,#78,#86,#93,#94,#101));
#76 = ORIENTED_EDGE('',*,*,#31,.T.);
#77 = ORIENTED_EDGE('',*,*,#46,.T.);
#78 = ORIENTED_EDGE('',*,*,#79,.T.);
#79 = EDGE_CURVE('',#47,#80,#82,.T.);
#80 = VERTEX_POINT('',#81);
#81 = CARTESIAN_POINT('',(257.75613712923,5.788254316638E-14,
    260.67979983538));
#82 = LINE('',#83,#84);
#83 = CARTESIAN_POINT('',(-6.916391215446,1.603702191625E-15,
    7.222432592617));
#84 = VECTOR('',#85,1.);
#85 = DIRECTION('',(0.722243259262,1.535747354941E-16,0.691639121545));
#86 = ORIENTED_EDGE('',*,*,#87,.F.);
#87 = EDGE_CURVE('',#80,#80,#88,.T.);
#88 = CIRCLE('',#89,9.99999999999);
#89 = AXIS2_PLACEMENT_3D('',#90,#91,#92);
#90 = CARTESIAN_POINT('',(264.67252834467,5.627884097476E-14,
    253.45736724277));
#91 = DIRECTION('',(-0.722243259262,-1.535747354941E-16,-0.691639121545)
  );
#92 = DIRECTION('',(-0.691639121545,1.603702191625E-16,0.722243259262));
#93 = ORIENTED_EDGE('',*,*,#79,.F.);
#94 = ORIENTED_EDGE('',*,*,#95,.T.);
#95 = EDGE_CURVE('',#47,#55,#96,.T.);
#96 = CIRCLE('',#97,10.);
#97 = AXIS2_PLACEMENT_3D('',#98,#99,#100);
#98 = CARTESIAN_POINT('',(7.222432592617E-04,0.,6.916391215446E-04));
#99 = DIRECTION('',(-0.722243259262,-8.018510958127E-17,-0.691639121545)
  );
#100 = DIRECTION('',(0.691639121545,-5.551115123126E-17,-0.722243259262)
  );
#101 = ORIENTED_EDGE('',*,*,#62,.F.);
#102 = CYLINDRICAL_SURFACE('',#103,10.);
#103 = AXIS2_PLACEMENT_3D('',#104,#105,#106);
#104 = CARTESIAN_POINT('',(-1.2829617533E-15,-2.72803531754E-31,
    -1.228597883953E-15));
#105 = DIRECTION('',(0.722243259262,1.535747354941E-16,0.691639121545));
#106 = DIRECTION('',(-0.691639121545,1.603702191625E-16,0.722243259262)
  );
#107 = ADVANCED_FACE('',(#108),#112,.F.);
#108 = FACE_BOUND('',#109,.T.);
#109 = EDGE_LOOP('',(#110,#111));
#110 = ORIENTED_EDGE('',*,*,#95,.T.);
#111 = ORIENTED_EDGE('',*,*,#54,.F.);
#112 = PLANE('',#113);
#113 = AXIS2_PLACEMENT_3D('',#114,#115,#116);
#114 = CARTESIAN_POINT('',(7.222432592608E-04,3.464101615138,
    6.916391215452E-04));
#115 = DIRECTION('',(0.722243259262,2.465190328816E-32,0.691639121545));
#116 = DIRECTION('',(-0.691639121545,2.465190328816E-32,0.722243259262)
  );
#117 = ADVANCED_FACE('',(#118),#131,.T.);
#118 = FACE_BOUND('',#119,.T.);
#119 = EDGE_LOOP('',(#120,#129,#130));
#120 = ORIENTED_EDGE('',*,*,#121,.T.);
#121 = EDGE_CURVE('',#122,#80,#124,.T.);
#122 = VERTEX_POINT('',#123);
#123 = CARTESIAN_POINT('',(314.17581777883,6.680500993992E-14,
    300.86301787191));
#124 = CIRCLE('',#125,35.);
#125 = AXIS2_PLACEMENT_3D('',#126,#127,#128);
#126 = CARTESIAN_POINT('',(288.89730370467,6.142989419763E-14,
    276.65564861785));
#127 = DIRECTION('',(0.,-1.,2.22044604925E-16));
#128 = DIRECTION('',(1.,0.,0.));
#129 = ORIENTED_EDGE('',*,*,#87,.F.);
#130 = ORIENTED_EDGE('',*,*,#121,.F.);
#131 = SPHERICAL_SURFACE('',#132,35.);
#132 = AXIS2_PLACEMENT_3D('',#133,#134,#135);
#133 = CARTESIAN_POINT('',(288.89730370467,6.142989419763E-14,
    276.65564861785));
#134 = DIRECTION('',(-0.722243259262,-1.535747354941E-16,-0.691639121545
    ));
#135 = DIRECTION('',(-0.691639121545,1.603702191625E-16,0.722243259262)
  );
#136 = ( GEOMETRIC_REPRESENTATION_CONTEXT(3) 
GLOBAL_UNCERTAINTY_ASSIGNED_CONTEXT((#140)) GLOBAL_UNIT_ASSIGNED_CONTEXT
((#137,#138,#139)) REPRESENTATION_CONTEXT('Context #1',
  '3D Context with UNIT and UNCERTAINTY') );
#137 = ( LENGTH_UNIT() NAMED_UNIT(*) SI_UNIT(.MILLI.,.METRE.) );
#138 = ( NAMED_UNIT(*) PLANE_ANGLE_UNIT() SI_UNIT($,.RADIAN.) );
#139 = ( NAMED_UNIT(*) SI_UNIT($,.STERADIAN.) SOLID_ANGLE_UNIT() );
#140 = UNCERTAINTY_MEASURE_WITH_UNIT(LENGTH_MEASURE(1.E-07),#137,
  'distance_accuracy_value','confusion accuracy');
#141 = PRODUCT_RELATED_PRODUCT_CATEGORY('part',$,(#7));
#142 = MECHANICAL_DESIGN_GEOMETRIC_PRESENTATION_REPRESENTATION('',(#143)
  ,#136);
#143 = STYLED_ITEM('color',(#144),#15);
#144 = PRESENTATION_STYLE_ASSIGNMENT((#145,#151));
#145 = SURFACE_STYLE_USAGE(.BOTH.,#146);
#146 = SURFACE_SIDE_STYLE('',(#147));
#147 = SURFACE_STYLE_FILL_AREA(#148);
#148 = FILL_AREA_STYLE('',(#149));
#149 = FILL_AREA_STYLE_COLOUR('',#150);
#150 = COLOUR_RGB('',0.800000010877,0.800000010877,0.90196104065);
#151 = CURVE_STYLE('',#152,POSITIVE_LENGTH_MEASURE(0.1),#153);
#152 = DRAUGHTING_PRE_DEFINED_CURVE_FONT('continuous');
#153 = COLOUR_RGB('',9.803921802644E-02,9.803921802644E-02,
  9.803921802644E-02);
ENDSEC;
END-ISO-10303-21;
