ISO-10303-21;
HEADER;
FILE_DESCRIPTION(('STEP AP214'),'1');
FILE_NAME('Pendulum_R.stp','2025-09-10T06:31:37',('Cubit 2024.3'),(' '),'Spatial InterOp 3D',' ',' ');
FILE_SCHEMA(('AUTOMOTIVE_DESIGN { 1 0 10303 214 1 1 1 1 }'));
ENDSEC;
DATA;
#1=PRODUCT_DEFINITION_CONTEXT('',#9,'design');
#2=APPLICATION_PROTOCOL_DEFINITION('INTERNATIONAL STANDARD','automotive_design',1994,#9);
#3=PRODUCT_CATEGORY_RELATIONSHIP('NONE','NONE',#10,#11);
#4=SHAPE_DEFINITION_REPRESENTATION(#12,#13);
#5= (GEOMETRIC_REPRESENTATION_CONTEXT(3)GLOBAL_UNCERTAINTY_ASSIGNED_CONTEXT((#16))GLOBAL_UNIT_ASSIGNED_CONTEXT((#18,#19,#20))REPRESENTATION_CONTEXT('NONE','WORKSPACE'));
#9=APPLICATION_CONTEXT(' ');
#10=PRODUCT_CATEGORY('part','NONE');
#11=PRODUCT_RELATED_PRODUCT_CATEGORY('detail',' ',(#22));
#12=PRODUCT_DEFINITION_SHAPE('NONE','NONE',#23);
#13=ADVANCED_BREP_SHAPE_REPRESENTATION('1',(#24,#25),#5);
#16=UNCERTAINTY_MEASURE_WITH_UNIT(LENGTH_MEASURE(1.0E-06),#18,'','');
#18= (CONVERSION_BASED_UNIT('MILLIMETRE',#28)LENGTH_UNIT()NAMED_UNIT(#31));
#19= (NAMED_UNIT(#33)PLANE_ANGLE_UNIT()SI_UNIT($,.RADIAN.));
#20= (NAMED_UNIT(#33)SOLID_ANGLE_UNIT()SI_UNIT($,.STERADIAN.));
#22=PRODUCT('1','1','PART-1-DESC',(#39));
#23=PRODUCT_DEFINITION('','NONE',#40,#1);
#24=MANIFOLD_SOLID_BREP('1',#41);
#25=AXIS2_PLACEMENT_3D('',#42,#43,#44);
#28=LENGTH_MEASURE_WITH_UNIT(LENGTH_MEASURE(1.0),#45);
#31=DIMENSIONAL_EXPONENTS(1.0,0.0,0.0,0.0,0.0,0.0,0.0);
#33=DIMENSIONAL_EXPONENTS(0.0,0.0,0.0,0.0,0.0,0.0,0.0);
#39=PRODUCT_CONTEXT('',#9,'mechanical');
#40=PRODUCT_DEFINITION_FORMATION_WITH_SPECIFIED_SOURCE(' ','NONE',#22,.NOT_KNOWN.);
#41=CLOSED_SHELL('',(#46,#47,#48,#49,#50));
#42=CARTESIAN_POINT('',(0.0,0.0,0.0));
#43=DIRECTION('',(0.0,0.0,1.0));
#44=DIRECTION('',(1.0,0.0,0.0));
#45= (NAMED_UNIT(#31)LENGTH_UNIT()SI_UNIT(.MILLI.,.METRE.));
#46=ADVANCED_FACE('',(#52),#53,.T.);
#47=ADVANCED_FACE('',(#54),#55,.F.);
#48=ADVANCED_FACE('',(#56),#57,.T.);
#49=ADVANCED_FACE('',(#58),#59,.T.);
#50=ADVANCED_FACE('',(#60),#61,.T.);
#52=FACE_OUTER_BOUND('',#62,.T.);
#53=SPHERICAL_SURFACE('',#63,0.04);
#54=FACE_OUTER_BOUND('',#64,.T.);
#55=PLANE('',#65);
#56=FACE_OUTER_BOUND('',#66,.T.);
#57=SPHERICAL_SURFACE('',#67,0.04);
#58=FACE_OUTER_BOUND('',#68,.T.);
#59=CYLINDRICAL_SURFACE('',#69,0.01);
#60=FACE_OUTER_BOUND('',#70,.T.);
#61=PLANE('',#71);
#62=EDGE_LOOP('',(#72,#73,#74));
#63=AXIS2_PLACEMENT_3D('',#75,#76,#77);
#64=EDGE_LOOP('',(#78,#79,#80,#81,#82));
#65=AXIS2_PLACEMENT_3D('',#83,#84,#85);
#66=EDGE_LOOP('',(#86,#87,#88));
#67=AXIS2_PLACEMENT_3D('',#89,#90,#91);
#68=EDGE_LOOP('',(#92,#93,#94,#95,#96));
#69=AXIS2_PLACEMENT_3D('',#97,#98,#99);
#70=EDGE_LOOP('',(#100,#101));
#71=AXIS2_PLACEMENT_3D('',#102,#103,#104);
#72=ORIENTED_EDGE('',*,*,#105,.F.);
#73=ORIENTED_EDGE('',*,*,#106,.T.);
#74=ORIENTED_EDGE('',*,*,#107,.F.);
#75=CARTESIAN_POINT('',(0.0,0.282842712474619,-0.282842712474619));
#76=DIRECTION('',(0.0,-0.707106781186548,0.707106781186548));
#77=DIRECTION('',(6.12323399573677E-17,0.707106781186548,0.707106781186548));
#78=ORIENTED_EDGE('',*,*,#108,.T.);
#79=ORIENTED_EDGE('',*,*,#109,.T.);
#80=ORIENTED_EDGE('',*,*,#107,.T.);
#81=ORIENTED_EDGE('',*,*,#110,.T.);
#82=ORIENTED_EDGE('',*,*,#111,.T.);
#83=CARTESIAN_POINT('',(1.0,-4.32978028117747E-17,-4.32978028117747E-17));
#84=DIRECTION('',(-6.12323399573676E-17,-0.707106781186547,-0.707106781186547));
#85=DIRECTION('',(0.0,-0.707106781186548,0.707106781186548));
#86=ORIENTED_EDGE('',*,*,#105,.T.);
#87=ORIENTED_EDGE('',*,*,#109,.F.);
#88=ORIENTED_EDGE('',*,*,#112,.T.);
#89=CARTESIAN_POINT('',(0.0,0.282842712474619,-0.282842712474619));
#90=DIRECTION('',(0.0,-0.707106781186548,0.707106781186548));
#91=DIRECTION('',(6.12323399573677E-17,0.707106781186548,0.707106781186548));
#92=ORIENTED_EDGE('',*,*,#110,.F.);
#93=ORIENTED_EDGE('',*,*,#106,.F.);
#94=ORIENTED_EDGE('',*,*,#112,.F.);
#95=ORIENTED_EDGE('',*,*,#108,.F.);
#96=ORIENTED_EDGE('',*,*,#113,.F.);
#97=CARTESIAN_POINT('',(0.0,0.14142135623731,-0.14142135623731));
#98=DIRECTION('',(0.0,-0.707106781186547,0.707106781186547));
#99=DIRECTION('',(6.12323399573677E-17,0.707106781186548,0.707106781186548));
#100=ORIENTED_EDGE('',*,*,#111,.F.);
#101=ORIENTED_EDGE('',*,*,#113,.T.);
#102=CARTESIAN_POINT('',(0.0,0.0,0.0));
#103=DIRECTION('',(0.0,-0.707106781186547,0.707106781186547));
#104=DIRECTION('',(6.12323399573677E-17,0.707106781186548,0.707106781186548));
#105=EDGE_CURVE('',#114,#115,#116,.T.);
#106=EDGE_CURVE('',#114,#117,#118,.T.);
#107=EDGE_CURVE('',#115,#117,#119,.T.);
#108=EDGE_CURVE('',#120,#121,#122,.T.);
#109=EDGE_CURVE('',#121,#115,#123,.T.);
#110=EDGE_CURVE('',#117,#124,#125,.T.);
#111=EDGE_CURVE('',#124,#120,#126,.T.);
#112=EDGE_CURVE('',#121,#114,#127,.T.);
#113=EDGE_CURVE('',#124,#120,#128,.T.);
#114=VERTEX_POINT('',#129);
#115=VERTEX_POINT('',#130);
#116=CIRCLE('',#131,0.04);
#117=VERTEX_POINT('',#132);
#118=CIRCLE('',#133,0.01);
#119=CIRCLE('',#134,0.04);
#120=VERTEX_POINT('',#135);
#121=VERTEX_POINT('',#136);
#122=LINE('',#137,#138);
#123=CIRCLE('',#139,0.04);
#124=VERTEX_POINT('',#140);
#125=LINE('',#141,#142);
#126=LINE('',#143,#144);
#127=CIRCLE('',#145,0.01);
#128=CIRCLE('',#146,0.01);
#129=CARTESIAN_POINT('',(6.12323399573676E-19,0.248385516787495,-0.262527652411226));
#130=CARTESIAN_POINT('',(1.49975978266186E-34,0.311126983722081,-0.311126983722081));
#131=AXIS2_PLACEMENT_3D('',#147,#148,#149);
#132=CARTESIAN_POINT('',(-0.01,0.255456584599361,-0.255456584599361));
#133=AXIS2_PLACEMENT_3D('',#150,#151,#152);
#134=AXIS2_PLACEMENT_3D('',#153,#154,#155);
#135=CARTESIAN_POINT('',(0.01,-4.32978028117747E-19,-4.32978028117747E-19));
#136=CARTESIAN_POINT('',(0.01,0.255456584599361,-0.255456584599361));
#137=CARTESIAN_POINT('',(0.01,0.14142135623731,-0.14142135623731));
#138=VECTOR('',#156,1.0);
#139=AXIS2_PLACEMENT_3D('',#157,#158,#159);
#140=CARTESIAN_POINT('',(-0.01,4.32978028117747E-19,4.32978028117747E-19));
#141=CARTESIAN_POINT('',(-0.01,0.14142135623731,-0.14142135623731));
#142=VECTOR('',#160,1.0);
#143=CARTESIAN_POINT('',(0.5,-2.16489014058873E-17,-2.16489014058873E-17));
#144=VECTOR('',#161,1.0);
#145=AXIS2_PLACEMENT_3D('',#162,#163,#164);
#146=AXIS2_PLACEMENT_3D('',#165,#166,#167);
#147=CARTESIAN_POINT('',(0.0,0.282842712474619,-0.282842712474619));
#148=DIRECTION('',(1.0,4.32978028117746E-17,4.32978028117746E-17));
#149=DIRECTION('',(6.12323399573676E-17,-0.707106781186548,-0.707106781186548));
#150=CARTESIAN_POINT('',(0.0,0.255456584599361,-0.255456584599361));
#151=DIRECTION('',(0.0,0.707106781186547,-0.707106781186547));
#152=DIRECTION('',(6.12323399573677E-17,0.707106781186548,0.707106781186548));
#153=CARTESIAN_POINT('',(0.0,0.282842712474619,-0.282842712474619));
#154=DIRECTION('',(6.12323399573676E-17,0.707106781186547,0.707106781186547));
#155=DIRECTION('',(0.0,-0.707106781186548,0.707106781186548));
#156=DIRECTION('',(0.0,0.707106781186547,-0.707106781186547));
#157=CARTESIAN_POINT('',(0.0,0.282842712474619,-0.282842712474619));
#158=DIRECTION('',(6.12323399573676E-17,0.707106781186547,0.707106781186547));
#159=DIRECTION('',(0.0,-0.707106781186548,0.707106781186548));
#160=DIRECTION('',(0.0,-0.707106781186547,0.707106781186547));
#161=DIRECTION('',(1.0,-4.32978028117747E-17,-4.32978028117747E-17));
#162=CARTESIAN_POINT('',(0.0,0.255456584599361,-0.255456584599361));
#163=DIRECTION('',(0.0,0.707106781186547,-0.707106781186547));
#164=DIRECTION('',(6.12323399573677E-17,0.707106781186548,0.707106781186548));
#165=CARTESIAN_POINT('',(0.0,0.0,0.0));
#166=DIRECTION('',(0.0,-0.707106781186547,0.707106781186547));
#167=DIRECTION('',(6.12323399573677E-17,0.707106781186548,0.707106781186548));
ENDSEC;
END-ISO-10303-21;
