ISO-10303-21;
HEADER;
FILE_DESCRIPTION(('STEP AP214'),'1');
FILE_NAME('Pendulum_L.stp','2025-09-10T06:31:37',('Cubit 2024.3'),(' '),'Spatial InterOp 3D',' ',' ');
FILE_SCHEMA(('AUTOMOTIVE_DESIGN { 1 0 10303 214 1 1 1 1 }'));
ENDSEC;
DATA;
#1=PRODUCT_DEFINITION_CONTEXT('',#17,'design');
#2=APPLICATION_PROTOCOL_DEFINITION('INTERNATIONAL STANDARD','automotive_design',1994,#17);
#3=PRODUCT_CATEGORY_RELATIONSHIP('NONE','NONE',#18,#19);
#4=SHAPE_DEFINITION_REPRESENTATION(#20,#21);
#5=PRODUCT_DEFINITION_CONTEXT('',#22,'design');
#6=APPLICATION_PROTOCOL_DEFINITION('INTERNATIONAL STANDARD','automotive_design',1994,#22);
#7=PRODUCT_CATEGORY_RELATIONSHIP('NONE','NONE',#23,#24);
#8=SHAPE_DEFINITION_REPRESENTATION(#25,#26);
#9=PRODUCT_DEFINITION_CONTEXT('',#27,'design');
#10=APPLICATION_PROTOCOL_DEFINITION('INTERNATIONAL STANDARD','automotive_design',1994,#27);
#11=PRODUCT_CATEGORY_RELATIONSHIP('NONE','NONE',#28,#29);
#12=SHAPE_DEFINITION_REPRESENTATION(#30,#31);
#13= (GEOMETRIC_REPRESENTATION_CONTEXT(3)GLOBAL_UNCERTAINTY_ASSIGNED_CONTEXT((#34))GLOBAL_UNIT_ASSIGNED_CONTEXT((#36,#37,#38))REPRESENTATION_CONTEXT('NONE','WORKSPACE'));
#17=APPLICATION_CONTEXT(' ');
#18=PRODUCT_CATEGORY('part','NONE');
#19=PRODUCT_RELATED_PRODUCT_CATEGORY('detail',' ',(#40));
#20=PRODUCT_DEFINITION_SHAPE('NONE','NONE',#41);
#21=ADVANCED_BREP_SHAPE_REPRESENTATION('1',(#42,#43),#13);
#22=APPLICATION_CONTEXT(' ');
#23=PRODUCT_CATEGORY('part','NONE');
#24=PRODUCT_RELATED_PRODUCT_CATEGORY('detail',' ',(#44));
#25=PRODUCT_DEFINITION_SHAPE('NONE','NONE',#45);
#26=ADVANCED_BREP_SHAPE_REPRESENTATION('2',(#46,#47),#13);
#27=APPLICATION_CONTEXT(' ');
#28=PRODUCT_CATEGORY('part','NONE');
#29=PRODUCT_RELATED_PRODUCT_CATEGORY('detail',' ',(#48));
#30=PRODUCT_DEFINITION_SHAPE('NONE','NONE',#49);
#31=ADVANCED_BREP_SHAPE_REPRESENTATION('3',(#50,#51),#13);
#34=UNCERTAINTY_MEASURE_WITH_UNIT(LENGTH_MEASURE(1.0E-06),#36,'','');
#36= (CONVERSION_BASED_UNIT('MILLIMETRE',#54)LENGTH_UNIT()NAMED_UNIT(#57));
#37= (NAMED_UNIT(#59)PLANE_ANGLE_UNIT()SI_UNIT($,.RADIAN.));
#38= (NAMED_UNIT(#59)SOLID_ANGLE_UNIT()SI_UNIT($,.STERADIAN.));
#40=PRODUCT('1','1','PART-1-DESC',(#65));
#41=PRODUCT_DEFINITION('','NONE',#66,#1);
#42=MANIFOLD_SOLID_BREP('1',#67);
#43=AXIS2_PLACEMENT_3D('',#68,#69,#70);
#44=PRODUCT('2','2','PART-2-DESC',(#71));
#45=PRODUCT_DEFINITION('','NONE',#72,#5);
#46=MANIFOLD_SOLID_BREP('2',#73);
#47=AXIS2_PLACEMENT_3D('',#74,#75,#76);
#48=PRODUCT('3','3','PART-3-DESC',(#77));
#49=PRODUCT_DEFINITION('','NONE',#78,#9);
#50=MANIFOLD_SOLID_BREP('3',#79);
#51=AXIS2_PLACEMENT_3D('',#80,#81,#82);
#54=LENGTH_MEASURE_WITH_UNIT(LENGTH_MEASURE(1.0),#83);
#57=DIMENSIONAL_EXPONENTS(1.0,0.0,0.0,0.0,0.0,0.0,0.0);
#59=DIMENSIONAL_EXPONENTS(0.0,0.0,0.0,0.0,0.0,0.0,0.0);
#65=PRODUCT_CONTEXT('',#17,'mechanical');
#66=PRODUCT_DEFINITION_FORMATION_WITH_SPECIFIED_SOURCE(' ','NONE',#40,.NOT_KNOWN.);
#67=CLOSED_SHELL('',(#84,#85,#86,#87));
#68=CARTESIAN_POINT('',(0.0,0.0,0.0));
#69=DIRECTION('',(0.0,0.0,1.0));
#70=DIRECTION('',(1.0,0.0,0.0));
#71=PRODUCT_CONTEXT('',#22,'mechanical');
#72=PRODUCT_DEFINITION_FORMATION_WITH_SPECIFIED_SOURCE(' ','NONE',#44,.NOT_KNOWN.);
#73=CLOSED_SHELL('',(#88,#89,#90,#91,#92));
#74=CARTESIAN_POINT('',(0.0,0.0,0.0));
#75=DIRECTION('',(0.0,0.0,1.0));
#76=DIRECTION('',(1.0,0.0,0.0));
#77=PRODUCT_CONTEXT('',#27,'mechanical');
#78=PRODUCT_DEFINITION_FORMATION_WITH_SPECIFIED_SOURCE(' ','NONE',#48,.NOT_KNOWN.);
#79=CLOSED_SHELL('',(#93,#94,#95,#96,#97,#98));
#80=CARTESIAN_POINT('',(0.0,0.0,0.0));
#81=DIRECTION('',(0.0,0.0,1.0));
#82=DIRECTION('',(1.0,0.0,0.0));
#83= (NAMED_UNIT(#57)LENGTH_UNIT()SI_UNIT(.MILLI.,.METRE.));
#84=ADVANCED_FACE('',(#100),#101,.T.);
#85=ADVANCED_FACE('',(#102),#103,.T.);
#86=ADVANCED_FACE('',(#104),#105,.T.);
#87=ADVANCED_FACE('',(#106),#107,.T.);
#88=ADVANCED_FACE('',(#108),#109,.T.);
#89=ADVANCED_FACE('',(#110),#111,.F.);
#90=ADVANCED_FACE('',(#112),#113,.T.);
#91=ADVANCED_FACE('',(#114),#115,.T.);
#92=ADVANCED_FACE('',(#116),#117,.T.);
#93=ADVANCED_FACE('',(#118),#119,.T.);
#94=ADVANCED_FACE('',(#120),#121,.F.);
#95=ADVANCED_FACE('',(#122),#123,.F.);
#96=ADVANCED_FACE('',(#124),#125,.F.);
#97=ADVANCED_FACE('',(#126),#127,.F.);
#98=ADVANCED_FACE('',(#128),#129,.F.);
#100=FACE_OUTER_BOUND('',#130,.T.);
#101=PLANE('',#131);
#102=FACE_OUTER_BOUND('',#132,.T.);
#103=PLANE('',#133);
#104=FACE_OUTER_BOUND('',#134,.T.);
#105=CYLINDRICAL_SURFACE('',#135,0.01);
#106=FACE_OUTER_BOUND('',#136,.T.);
#107=SPHERICAL_SURFACE('',#137,0.04);
#108=FACE_OUTER_BOUND('',#138,.T.);
#109=SPHERICAL_SURFACE('',#139,0.04);
#110=FACE_OUTER_BOUND('',#140,.T.);
#111=PLANE('',#141);
#112=FACE_OUTER_BOUND('',#142,.T.);
#113=SPHERICAL_SURFACE('',#143,0.04);
#114=FACE_OUTER_BOUND('',#144,.T.);
#115=CYLINDRICAL_SURFACE('',#145,0.01);
#116=FACE_OUTER_BOUND('',#146,.T.);
#117=PLANE('',#147);
#118=FACE_OUTER_BOUND('',#148,.T.);
#119=PLANE('',#149);
#120=FACE_OUTER_BOUND('',#150,.T.);
#121=PLANE('',#151);
#122=FACE_OUTER_BOUND('',#152,.T.);
#123=PLANE('',#153);
#124=FACE_OUTER_BOUND('',#154,.T.);
#125=PLANE('',#155);
#126=FACE_OUTER_BOUND('',#156,.T.);
#127=PLANE('',#157);
#128=FACE_OUTER_BOUND('',#158,.T.);
#129=PLANE('',#159);
#130=EDGE_LOOP('',(#160,#161,#162,#163,#164));
#131=AXIS2_PLACEMENT_3D('',#165,#166,#167);
#132=EDGE_LOOP('',(#168,#169));
#133=AXIS2_PLACEMENT_3D('',#170,#171,#172);
#134=EDGE_LOOP('',(#173,#174,#175,#176));
#135=AXIS2_PLACEMENT_3D('',#177,#178,#179);
#136=EDGE_LOOP('',(#180,#181,#182));
#137=AXIS2_PLACEMENT_3D('',#183,#184,#185);
#138=EDGE_LOOP('',(#186,#187,#188));
#139=AXIS2_PLACEMENT_3D('',#189,#190,#191);
#140=EDGE_LOOP('',(#192,#193,#194,#195,#196));
#141=AXIS2_PLACEMENT_3D('',#197,#198,#199);
#142=EDGE_LOOP('',(#200,#201,#202));
#143=AXIS2_PLACEMENT_3D('',#203,#204,#205);
#144=EDGE_LOOP('',(#206,#207,#208,#209,#210));
#145=AXIS2_PLACEMENT_3D('',#211,#212,#213);
#146=EDGE_LOOP('',(#214,#215));
#147=AXIS2_PLACEMENT_3D('',#216,#217,#218);
#148=EDGE_LOOP('',(#219,#220,#221,#222));
#149=AXIS2_PLACEMENT_3D('',#223,#224,#225);
#150=EDGE_LOOP('',(#226,#227,#228,#229));
#151=AXIS2_PLACEMENT_3D('',#230,#231,#232);
#152=EDGE_LOOP('',(#233,#234,#235,#236));
#153=AXIS2_PLACEMENT_3D('',#237,#238,#239);
#154=EDGE_LOOP('',(#240,#241,#242,#243));
#155=AXIS2_PLACEMENT_3D('',#244,#245,#246);
#156=EDGE_LOOP('',(#247,#248,#249,#250));
#157=AXIS2_PLACEMENT_3D('',#251,#252,#253);
#158=EDGE_LOOP('',(#254,#255,#256,#257));
#159=AXIS2_PLACEMENT_3D('',#258,#259,#260);
#160=ORIENTED_EDGE('',*,*,#261,.F.);
#161=ORIENTED_EDGE('',*,*,#262,.F.);
#162=ORIENTED_EDGE('',*,*,#263,.F.);
#163=ORIENTED_EDGE('',*,*,#264,.F.);
#164=ORIENTED_EDGE('',*,*,#265,.F.);
#165=CARTESIAN_POINT('',(1.0,-4.32978028117747E-17,-4.32978028117747E-17));
#166=DIRECTION('',(-6.12323399573676E-17,-0.707106781186547,-0.707106781186547));
#167=DIRECTION('',(0.0,-0.707106781186548,0.707106781186548));
#168=ORIENTED_EDGE('',*,*,#262,.T.);
#169=ORIENTED_EDGE('',*,*,#266,.T.);
#170=CARTESIAN_POINT('',(0.0,0.0,0.0));
#171=DIRECTION('',(0.0,-0.707106781186547,0.707106781186547));
#172=DIRECTION('',(6.12323399573677E-17,0.707106781186548,0.707106781186548));
#173=ORIENTED_EDGE('',*,*,#263,.T.);
#174=ORIENTED_EDGE('',*,*,#266,.F.);
#175=ORIENTED_EDGE('',*,*,#261,.T.);
#176=ORIENTED_EDGE('',*,*,#267,.F.);
#177=CARTESIAN_POINT('',(0.0,0.14142135623731,-0.14142135623731));
#178=DIRECTION('',(0.0,-0.707106781186547,0.707106781186547));
#179=DIRECTION('',(6.12323399573677E-17,0.707106781186548,0.707106781186548));
#180=ORIENTED_EDGE('',*,*,#265,.T.);
#181=ORIENTED_EDGE('',*,*,#264,.T.);
#182=ORIENTED_EDGE('',*,*,#267,.T.);
#183=CARTESIAN_POINT('',(0.0,0.282842712474619,-0.282842712474619));
#184=DIRECTION('',(0.0,-0.707106781186548,0.707106781186548));
#185=DIRECTION('',(6.12323399573677E-17,0.707106781186548,0.707106781186548));
#186=ORIENTED_EDGE('',*,*,#268,.F.);
#187=ORIENTED_EDGE('',*,*,#269,.T.);
#188=ORIENTED_EDGE('',*,*,#270,.F.);
#189=CARTESIAN_POINT('',(0.0,0.282842712474619,-0.282842712474619));
#190=DIRECTION('',(0.0,-0.707106781186548,0.707106781186548));
#191=DIRECTION('',(6.12323399573677E-17,0.707106781186548,0.707106781186548));
#192=ORIENTED_EDGE('',*,*,#271,.T.);
#193=ORIENTED_EDGE('',*,*,#272,.T.);
#194=ORIENTED_EDGE('',*,*,#270,.T.);
#195=ORIENTED_EDGE('',*,*,#273,.T.);
#196=ORIENTED_EDGE('',*,*,#274,.T.);
#197=CARTESIAN_POINT('',(1.0,-4.32978028117747E-17,-4.32978028117747E-17));
#198=DIRECTION('',(-6.12323399573676E-17,-0.707106781186547,-0.707106781186547));
#199=DIRECTION('',(0.0,-0.707106781186548,0.707106781186548));
#200=ORIENTED_EDGE('',*,*,#268,.T.);
#201=ORIENTED_EDGE('',*,*,#272,.F.);
#202=ORIENTED_EDGE('',*,*,#275,.T.);
#203=CARTESIAN_POINT('',(0.0,0.282842712474619,-0.282842712474619));
#204=DIRECTION('',(0.0,-0.707106781186548,0.707106781186548));
#205=DIRECTION('',(6.12323399573677E-17,0.707106781186548,0.707106781186548));
#206=ORIENTED_EDGE('',*,*,#273,.F.);
#207=ORIENTED_EDGE('',*,*,#269,.F.);
#208=ORIENTED_EDGE('',*,*,#275,.F.);
#209=ORIENTED_EDGE('',*,*,#271,.F.);
#210=ORIENTED_EDGE('',*,*,#276,.F.);
#211=CARTESIAN_POINT('',(0.0,0.14142135623731,-0.14142135623731));
#212=DIRECTION('',(0.0,-0.707106781186547,0.707106781186547));
#213=DIRECTION('',(6.12323399573677E-17,0.707106781186548,0.707106781186548));
#214=ORIENTED_EDGE('',*,*,#274,.F.);
#215=ORIENTED_EDGE('',*,*,#276,.T.);
#216=CARTESIAN_POINT('',(0.0,0.0,0.0));
#217=DIRECTION('',(0.0,-0.707106781186547,0.707106781186547));
#218=DIRECTION('',(6.12323399573677E-17,0.707106781186548,0.707106781186548));
#219=ORIENTED_EDGE('',*,*,#277,.T.);
#220=ORIENTED_EDGE('',*,*,#278,.T.);
#221=ORIENTED_EDGE('',*,*,#279,.T.);
#222=ORIENTED_EDGE('',*,*,#280,.T.);
#223=CARTESIAN_POINT('',(0.0,-0.4,0.05));
#224=DIRECTION('',(0.0,0.0,1.0));
#225=DIRECTION('',(1.0,0.0,0.0));
#226=ORIENTED_EDGE('',*,*,#281,.T.);
#227=ORIENTED_EDGE('',*,*,#282,.T.);
#228=ORIENTED_EDGE('',*,*,#283,.T.);
#229=ORIENTED_EDGE('',*,*,#284,.T.);
#230=CARTESIAN_POINT('',(0.0,-0.4,0.04));
#231=DIRECTION('',(0.0,0.0,1.0));
#232=DIRECTION('',(1.0,0.0,0.0));
#233=ORIENTED_EDGE('',*,*,#285,.T.);
#234=ORIENTED_EDGE('',*,*,#282,.F.);
#235=ORIENTED_EDGE('',*,*,#286,.F.);
#236=ORIENTED_EDGE('',*,*,#280,.F.);
#237=CARTESIAN_POINT('',(0.0,-0.5,0.045));
#238=DIRECTION('',(0.0,1.0,0.0));
#239=DIRECTION('',(0.0,0.0,1.0));
#240=ORIENTED_EDGE('',*,*,#287,.T.);
#241=ORIENTED_EDGE('',*,*,#283,.F.);
#242=ORIENTED_EDGE('',*,*,#285,.F.);
#243=ORIENTED_EDGE('',*,*,#279,.F.);
#244=CARTESIAN_POINT('',(-0.1,-0.4,0.045));
#245=DIRECTION('',(1.0,0.0,0.0));
#246=DIRECTION('',(0.0,0.0,-1.0));
#247=ORIENTED_EDGE('',*,*,#288,.T.);
#248=ORIENTED_EDGE('',*,*,#284,.F.);
#249=ORIENTED_EDGE('',*,*,#287,.F.);
#250=ORIENTED_EDGE('',*,*,#278,.F.);
#251=CARTESIAN_POINT('',(0.0,-0.3,0.045));
#252=DIRECTION('',(0.0,-1.0,0.0));
#253=DIRECTION('',(0.0,0.0,-1.0));
#254=ORIENTED_EDGE('',*,*,#286,.T.);
#255=ORIENTED_EDGE('',*,*,#281,.F.);
#256=ORIENTED_EDGE('',*,*,#288,.F.);
#257=ORIENTED_EDGE('',*,*,#277,.F.);
#258=CARTESIAN_POINT('',(0.1,-0.4,0.045));
#259=DIRECTION('',(-1.0,0.0,0.0));
#260=DIRECTION('',(0.0,0.0,1.0));
#261=EDGE_CURVE('',#289,#290,#291,.T.);
#262=EDGE_CURVE('',#292,#289,#293,.T.);
#263=EDGE_CURVE('',#294,#292,#295,.T.);
#264=EDGE_CURVE('',#296,#294,#297,.T.);
#265=EDGE_CURVE('',#290,#296,#298,.T.);
#266=EDGE_CURVE('',#289,#292,#299,.T.);
#267=EDGE_CURVE('',#294,#290,#300,.T.);
#268=EDGE_CURVE('',#301,#302,#303,.T.);
#269=EDGE_CURVE('',#301,#304,#305,.T.);
#270=EDGE_CURVE('',#302,#304,#306,.T.);
#271=EDGE_CURVE('',#307,#308,#309,.T.);
#272=EDGE_CURVE('',#308,#302,#310,.T.);
#273=EDGE_CURVE('',#304,#311,#312,.T.);
#274=EDGE_CURVE('',#311,#307,#313,.T.);
#275=EDGE_CURVE('',#308,#301,#314,.T.);
#276=EDGE_CURVE('',#311,#307,#315,.T.);
#277=EDGE_CURVE('',#316,#317,#318,.T.);
#278=EDGE_CURVE('',#317,#319,#320,.T.);
#279=EDGE_CURVE('',#319,#321,#322,.T.);
#280=EDGE_CURVE('',#321,#316,#323,.T.);
#281=EDGE_CURVE('',#324,#325,#326,.T.);
#282=EDGE_CURVE('',#325,#327,#328,.T.);
#283=EDGE_CURVE('',#327,#329,#330,.T.);
#284=EDGE_CURVE('',#329,#324,#331,.T.);
#285=EDGE_CURVE('',#321,#327,#332,.T.);
#286=EDGE_CURVE('',#316,#325,#333,.T.);
#287=EDGE_CURVE('',#319,#329,#334,.T.);
#288=EDGE_CURVE('',#317,#324,#335,.T.);
#289=VERTEX_POINT('',#336);
#290=VERTEX_POINT('',#337);
#291=LINE('',#338,#339);
#292=VERTEX_POINT('',#340);
#293=LINE('',#341,#342);
#294=VERTEX_POINT('',#343);
#295=LINE('',#344,#345);
#296=VERTEX_POINT('',#346);
#297=CIRCLE('',#347,0.04);
#298=CIRCLE('',#348,0.04);
#299=CIRCLE('',#349,0.01);
#300=CIRCLE('',#350,0.01);
#301=VERTEX_POINT('',#351);
#302=VERTEX_POINT('',#352);
#303=CIRCLE('',#353,0.04);
#304=VERTEX_POINT('',#354);
#305=CIRCLE('',#355,0.01);
#306=CIRCLE('',#356,0.04);
#307=VERTEX_POINT('',#357);
#308=VERTEX_POINT('',#358);
#309=LINE('',#359,#360);
#310=CIRCLE('',#361,0.04);
#311=VERTEX_POINT('',#362);
#312=LINE('',#363,#364);
#313=LINE('',#365,#366);
#314=CIRCLE('',#367,0.01);
#315=CIRCLE('',#368,0.01);
#316=VERTEX_POINT('',#369);
#317=VERTEX_POINT('',#370);
#318=LINE('',#371,#372);
#319=VERTEX_POINT('',#373);
#320=LINE('',#374,#375);
#321=VERTEX_POINT('',#376);
#322=LINE('',#377,#378);
#323=LINE('',#379,#380);
#324=VERTEX_POINT('',#381);
#325=VERTEX_POINT('',#382);
#326=LINE('',#383,#384);
#327=VERTEX_POINT('',#385);
#328=LINE('',#386,#387);
#329=VERTEX_POINT('',#388);
#330=LINE('',#389,#390);
#331=LINE('',#391,#392);
#332=LINE('',#393,#394);
#333=LINE('',#395,#396);
#334=LINE('',#397,#398);
#335=LINE('',#399,#400);
#336=CARTESIAN_POINT('',(0.01,-4.32978028117747E-19,-4.32978028117747E-19));
#337=CARTESIAN_POINT('',(0.01,0.255456584599361,-0.255456584599361));
#338=CARTESIAN_POINT('',(0.01,0.14142135623731,-0.14142135623731));
#339=VECTOR('',#401,1.0);
#340=CARTESIAN_POINT('',(-0.01,4.32978028117747E-19,4.32978028117747E-19));
#341=CARTESIAN_POINT('',(0.5,-2.16489014058873E-17,-2.16489014058873E-17));
#342=VECTOR('',#402,1.0);
#343=CARTESIAN_POINT('',(-0.01,0.255456584599361,-0.255456584599361));
#344=CARTESIAN_POINT('',(-0.01,0.14142135623731,-0.14142135623731));
#345=VECTOR('',#403,1.0);
#346=CARTESIAN_POINT('',(0.0,0.311126983722081,-0.311126983722081));
#347=AXIS2_PLACEMENT_3D('',#404,#405,#406);
#348=AXIS2_PLACEMENT_3D('',#407,#408,#409);
#349=AXIS2_PLACEMENT_3D('',#410,#411,#412);
#350=AXIS2_PLACEMENT_3D('',#413,#414,#415);
#351=CARTESIAN_POINT('',(6.12323399573676E-19,0.248385516787495,-0.262527652411226));
#352=CARTESIAN_POINT('',(1.49975978266186E-34,0.311126983722081,-0.311126983722081));
#353=AXIS2_PLACEMENT_3D('',#416,#417,#418);
#354=CARTESIAN_POINT('',(-0.01,0.255456584599361,-0.255456584599361));
#355=AXIS2_PLACEMENT_3D('',#419,#420,#421);
#356=AXIS2_PLACEMENT_3D('',#422,#423,#424);
#357=CARTESIAN_POINT('',(0.01,-4.32978028117747E-19,-4.32978028117747E-19));
#358=CARTESIAN_POINT('',(0.01,0.255456584599361,-0.255456584599361));
#359=CARTESIAN_POINT('',(0.01,0.14142135623731,-0.14142135623731));
#360=VECTOR('',#425,1.0);
#361=AXIS2_PLACEMENT_3D('',#426,#427,#428);
#362=CARTESIAN_POINT('',(-0.01,4.32978028117747E-19,4.32978028117747E-19));
#363=CARTESIAN_POINT('',(-0.01,0.14142135623731,-0.14142135623731));
#364=VECTOR('',#429,1.0);
#365=CARTESIAN_POINT('',(0.5,-2.16489014058873E-17,-2.16489014058873E-17));
#366=VECTOR('',#430,1.0);
#367=AXIS2_PLACEMENT_3D('',#431,#432,#433);
#368=AXIS2_PLACEMENT_3D('',#434,#435,#436);
#369=CARTESIAN_POINT('',(0.1,-0.5,0.05));
#370=CARTESIAN_POINT('',(0.1,-0.3,0.05));
#371=CARTESIAN_POINT('',(0.1,-0.4,0.05));
#372=VECTOR('',#437,1.0);
#373=CARTESIAN_POINT('',(-0.1,-0.3,0.05));
#374=CARTESIAN_POINT('',(0.0,-0.3,0.05));
#375=VECTOR('',#438,1.0);
#376=CARTESIAN_POINT('',(-0.1,-0.5,0.05));
#377=CARTESIAN_POINT('',(-0.1,-0.4,0.05));
#378=VECTOR('',#439,1.0);
#379=CARTESIAN_POINT('',(0.0,-0.5,0.05));
#380=VECTOR('',#440,1.0);
#381=CARTESIAN_POINT('',(0.1,-0.3,0.04));
#382=CARTESIAN_POINT('',(0.1,-0.5,0.04));
#383=CARTESIAN_POINT('',(0.1,-0.4,0.04));
#384=VECTOR('',#441,1.0);
#385=CARTESIAN_POINT('',(-0.1,-0.5,0.04));
#386=CARTESIAN_POINT('',(0.0,-0.5,0.04));
#387=VECTOR('',#442,1.0);
#388=CARTESIAN_POINT('',(-0.1,-0.3,0.04));
#389=CARTESIAN_POINT('',(-0.1,-0.4,0.04));
#390=VECTOR('',#443,1.0);
#391=CARTESIAN_POINT('',(0.0,-0.3,0.04));
#392=VECTOR('',#444,1.0);
#393=CARTESIAN_POINT('',(-0.1,-0.5,0.045));
#394=VECTOR('',#445,1.0);
#395=CARTESIAN_POINT('',(0.1,-0.5,0.045));
#396=VECTOR('',#446,1.0);
#397=CARTESIAN_POINT('',(-0.1,-0.3,0.045));
#398=VECTOR('',#447,1.0);
#399=CARTESIAN_POINT('',(0.1,-0.3,0.045));
#400=VECTOR('',#448,1.0);
#401=DIRECTION('',(0.0,0.707106781186547,-0.707106781186547));
#402=DIRECTION('',(1.0,-4.32978028117747E-17,-4.32978028117747E-17));
#403=DIRECTION('',(0.0,-0.707106781186547,0.707106781186547));
#404=CARTESIAN_POINT('',(0.0,0.282842712474619,-0.282842712474619));
#405=DIRECTION('',(6.12323399573676E-17,0.707106781186547,0.707106781186547));
#406=DIRECTION('',(0.0,-0.707106781186548,0.707106781186548));
#407=CARTESIAN_POINT('',(0.0,0.282842712474619,-0.282842712474619));
#408=DIRECTION('',(6.12323399573676E-17,0.707106781186547,0.707106781186547));
#409=DIRECTION('',(0.0,-0.707106781186548,0.707106781186548));
#410=CARTESIAN_POINT('',(0.0,0.0,0.0));
#411=DIRECTION('',(0.0,-0.707106781186547,0.707106781186547));
#412=DIRECTION('',(6.12323399573677E-17,0.707106781186548,0.707106781186548));
#413=CARTESIAN_POINT('',(0.0,0.255456584599361,-0.255456584599361));
#414=DIRECTION('',(0.0,0.707106781186547,-0.707106781186547));
#415=DIRECTION('',(6.12323399573677E-17,0.707106781186548,0.707106781186548));
#416=CARTESIAN_POINT('',(0.0,0.282842712474619,-0.282842712474619));
#417=DIRECTION('',(1.0,4.32978028117746E-17,4.32978028117746E-17));
#418=DIRECTION('',(6.12323399573676E-17,-0.707106781186548,-0.707106781186548));
#419=CARTESIAN_POINT('',(0.0,0.255456584599361,-0.255456584599361));
#420=DIRECTION('',(0.0,0.707106781186547,-0.707106781186547));
#421=DIRECTION('',(6.12323399573677E-17,0.707106781186548,0.707106781186548));
#422=CARTESIAN_POINT('',(0.0,0.282842712474619,-0.282842712474619));
#423=DIRECTION('',(6.12323399573676E-17,0.707106781186547,0.707106781186547));
#424=DIRECTION('',(0.0,-0.707106781186548,0.707106781186548));
#425=DIRECTION('',(0.0,0.707106781186547,-0.707106781186547));
#426=CARTESIAN_POINT('',(0.0,0.282842712474619,-0.282842712474619));
#427=DIRECTION('',(6.12323399573676E-17,0.707106781186547,0.707106781186547));
#428=DIRECTION('',(0.0,-0.707106781186548,0.707106781186548));
#429=DIRECTION('',(0.0,-0.707106781186547,0.707106781186547));
#430=DIRECTION('',(1.0,-4.32978028117747E-17,-4.32978028117747E-17));
#431=CARTESIAN_POINT('',(0.0,0.255456584599361,-0.255456584599361));
#432=DIRECTION('',(0.0,0.707106781186547,-0.707106781186547));
#433=DIRECTION('',(6.12323399573677E-17,0.707106781186548,0.707106781186548));
#434=CARTESIAN_POINT('',(0.0,0.0,0.0));
#435=DIRECTION('',(0.0,-0.707106781186547,0.707106781186547));
#436=DIRECTION('',(6.12323399573677E-17,0.707106781186548,0.707106781186548));
#437=DIRECTION('',(0.0,1.0,0.0));
#438=DIRECTION('',(-1.0,0.0,0.0));
#439=DIRECTION('',(0.0,-1.0,0.0));
#440=DIRECTION('',(1.0,0.0,0.0));
#441=DIRECTION('',(0.0,-1.0,0.0));
#442=DIRECTION('',(-1.0,0.0,0.0));
#443=DIRECTION('',(0.0,1.0,0.0));
#444=DIRECTION('',(1.0,0.0,0.0));
#445=DIRECTION('',(0.0,0.0,-1.0));
#446=DIRECTION('',(0.0,0.0,-1.0));
#447=DIRECTION('',(0.0,0.0,-1.0));
#448=DIRECTION('',(0.0,0.0,-1.0));
ENDSEC;
END-ISO-10303-21;
