ISO-10303-21;
HEADER;
FILE_DESCRIPTION(('FreeCAD Model'),'2;1');
FILE_NAME('Open CASCADE Shape Model','2025-09-09T11:20:02',(''),(''),
  'Open CASCADE STEP processor 7.8','FreeCAD','Unknown');
FILE_SCHEMA(('AUTOMOTIVE_DESIGN { 1 0 10303 214 1 1 1 1 }'));
ENDSEC;
DATA;
#1 = APPLICATION_PROTOCOL_DEFINITION('international standard',
  'automotive_design',2000,#2);
#2 = APPLICATION_CONTEXT(
  'core data for automotive mechanical design processes');
#3 = SHAPE_DEFINITION_REPRESENTATION(#4,#10);
#4 = PRODUCT_DEFINITION_SHAPE('','',#5);
#5 = PRODUCT_DEFINITION('design','',#6,#9);
#6 = PRODUCT_DEFINITION_FORMATION('','',#7);
#7 = PRODUCT('Compound','Compound','',(#8));
#8 = PRODUCT_CONTEXT('',#2,'mechanical');
#9 = PRODUCT_DEFINITION_CONTEXT('part definition',#2,'design');
#10 = SHAPE_REPRESENTATION('',(#11,#15,#112),#210);
#11 = AXIS2_PLACEMENT_3D('',#12,#13,#14);
#12 = CARTESIAN_POINT('',(0.,0.,0.));
#13 = DIRECTION('',(0.,0.,1.));
#14 = DIRECTION('',(1.,0.,-0.));
#15 = MANIFOLD_SOLID_BREP('',#16);
#16 = CLOSED_SHELL('',(#17,#42,#74,#99));
#17 = ADVANCED_FACE('',(#18),#37,.T.);
#18 = FACE_BOUND('',#19,.F.);
#19 = EDGE_LOOP('',(#20,#31));
#20 = ORIENTED_EDGE('',*,*,#21,.F.);
#21 = EDGE_CURVE('',#22,#24,#26,.T.);
#22 = VERTEX_POINT('',#23);
#23 = CARTESIAN_POINT('',(-6.916391215446,1.603702191625E-15,
    7.222432592617));
#24 = VERTEX_POINT('',#25);
#25 = CARTESIAN_POINT('',(6.916391215446,-3.79055392478E-16,
    -7.222432592617));
#26 = CIRCLE('',#27,10.);
#27 = AXIS2_PLACEMENT_3D('',#28,#29,#30);
#28 = CARTESIAN_POINT('',(-1.2829617533E-15,-2.72803531754E-31,
    -1.228597883953E-15));
#29 = DIRECTION('',(-0.722243259262,-1.535747354941E-16,-0.691639121545)
  );
#30 = DIRECTION('',(-0.691639121545,1.603702191625E-16,0.722243259262));
#31 = ORIENTED_EDGE('',*,*,#32,.T.);
#32 = EDGE_CURVE('',#22,#24,#33,.T.);
#33 = LINE('',#34,#35);
#34 = CARTESIAN_POINT('',(0.,0.,0.));
#35 = VECTOR('',#36,1.);
#36 = DIRECTION('',(0.691639121545,-3.79055392478E-17,-0.722243259262));
#37 = PLANE('',#38);
#38 = AXIS2_PLACEMENT_3D('',#39,#40,#41);
#39 = CARTESIAN_POINT('',(0.,0.,0.));
#40 = DIRECTION('',(-0.722243259262,-1.535747354941E-16,-0.691639121545)
  );
#41 = DIRECTION('',(-0.691639121545,1.603702191625E-16,0.722243259262));
#42 = ADVANCED_FACE('',(#43),#69,.T.);
#43 = FACE_BOUND('',#44,.F.);
#44 = EDGE_LOOP('',(#45,#46,#54,#63));
#45 = ORIENTED_EDGE('',*,*,#21,.T.);
#46 = ORIENTED_EDGE('',*,*,#47,.T.);
#47 = EDGE_CURVE('',#24,#48,#50,.T.);
#48 = VERTEX_POINT('',#49);
#49 = CARTESIAN_POINT('',(271.58891956011,5.589978558228E-14,
    246.23493465016));
#50 = LINE('',#51,#52);
#51 = CARTESIAN_POINT('',(6.916391215446,-4.036504534758E-16,
    -7.222432592617));
#52 = VECTOR('',#53,1.);
#53 = DIRECTION('',(0.722243259262,1.522994143487E-16,0.691639121545));
#54 = ORIENTED_EDGE('',*,*,#55,.F.);
#55 = EDGE_CURVE('',#56,#48,#58,.T.);
#56 = VERTEX_POINT('',#57);
#57 = CARTESIAN_POINT('',(257.75613712923,5.788254316638E-14,
    260.67979983538));
#58 = CIRCLE('',#59,9.99999999999);
#59 = AXIS2_PLACEMENT_3D('',#60,#61,#62);
#60 = CARTESIAN_POINT('',(264.67252834467,5.627884097476E-14,
    253.45736724277));
#61 = DIRECTION('',(-0.722243259262,-1.535747354941E-16,-0.691639121545)
  );
#62 = DIRECTION('',(-0.691639121545,1.603702191625E-16,0.722243259262));
#63 = ORIENTED_EDGE('',*,*,#64,.F.);
#64 = EDGE_CURVE('',#22,#56,#65,.T.);
#65 = LINE('',#66,#67);
#66 = CARTESIAN_POINT('',(-6.916391215446,1.603702191625E-15,
    7.222432592617));
#67 = VECTOR('',#68,1.);
#68 = DIRECTION('',(0.722243259262,1.535747354941E-16,0.691639121545));
#69 = CYLINDRICAL_SURFACE('',#70,10.);
#70 = AXIS2_PLACEMENT_3D('',#71,#72,#73);
#71 = CARTESIAN_POINT('',(-1.2829617533E-15,-2.72803531754E-31,
    -1.228597883953E-15));
#72 = DIRECTION('',(0.722243259262,1.535747354941E-16,0.691639121545));
#73 = DIRECTION('',(-0.691639121545,1.603702191625E-16,0.722243259262));
#74 = ADVANCED_FACE('',(#75),#94,.T.);
#75 = FACE_BOUND('',#76,.T.);
#76 = EDGE_LOOP('',(#77,#86,#87));
#77 = ORIENTED_EDGE('',*,*,#78,.T.);
#78 = EDGE_CURVE('',#79,#48,#81,.T.);
#79 = VERTEX_POINT('',#80);
#80 = CARTESIAN_POINT('',(314.17581777883,6.680500993992E-14,
    300.86301787191));
#81 = CIRCLE('',#82,35.);
#82 = AXIS2_PLACEMENT_3D('',#83,#84,#85);
#83 = CARTESIAN_POINT('',(288.89730370467,6.142989419763E-14,
    276.65564861785));
#84 = DIRECTION('',(-8.470136363647E-17,1.,-1.33595315359E-16));
#85 = DIRECTION('',(4.327065109792E-02,1.371352713705E-16,0.999063386755
    ));
#86 = ORIENTED_EDGE('',*,*,#55,.F.);
#87 = ORIENTED_EDGE('',*,*,#88,.F.);
#88 = EDGE_CURVE('',#79,#56,#89,.T.);
#89 = CIRCLE('',#90,35.);
#90 = AXIS2_PLACEMENT_3D('',#91,#92,#93);
#91 = CARTESIAN_POINT('',(288.89730370467,6.142989419763E-14,
    276.65564861785));
#92 = DIRECTION('',(0.,-1.,2.22044604925E-16));
#93 = DIRECTION('',(1.,0.,0.));
#94 = SPHERICAL_SURFACE('',#95,35.);
#95 = AXIS2_PLACEMENT_3D('',#96,#97,#98);
#96 = CARTESIAN_POINT('',(288.89730370467,6.142989419763E-14,
    276.65564861785));
#97 = DIRECTION('',(-0.722243259262,-1.535747354941E-16,-0.691639121545)
  );
#98 = DIRECTION('',(-0.691639121545,1.603702191625E-16,0.722243259262));
#99 = ADVANCED_FACE('',(#100),#107,.T.);
#100 = FACE_BOUND('',#101,.T.);
#101 = EDGE_LOOP('',(#102,#103,#104,#105,#106));
#102 = ORIENTED_EDGE('',*,*,#32,.T.);
#103 = ORIENTED_EDGE('',*,*,#47,.T.);
#104 = ORIENTED_EDGE('',*,*,#78,.F.);
#105 = ORIENTED_EDGE('',*,*,#88,.T.);
#106 = ORIENTED_EDGE('',*,*,#64,.F.);
#107 = PLANE('',#108);
#108 = AXIS2_PLACEMENT_3D('',#109,#110,#111);
#109 = CARTESIAN_POINT('',(161.84942800227,3.517268702557E-14,
    154.99126474427));
#110 = DIRECTION('',(0.,-1.,1.783709962169E-16));
#111 = DIRECTION('',(0.,1.783709962169E-16,1.));
#112 = MANIFOLD_SOLID_BREP('',#113);
#113 = CLOSED_SHELL('',(#114,#140,#174,#199));
#114 = ADVANCED_FACE('',(#115),#135,.T.);
#115 = FACE_BOUND('',#116,.T.);
#116 = EDGE_LOOP('',(#117,#128));
#117 = ORIENTED_EDGE('',*,*,#118,.T.);
#118 = EDGE_CURVE('',#119,#121,#123,.T.);
#119 = VERTEX_POINT('',#120);
#120 = CARTESIAN_POINT('',(-6.916391215446,3.944304526105E-31,
    7.222432592617));
#121 = VERTEX_POINT('',#122);
#122 = CARTESIAN_POINT('',(6.916391215446,-1.972152263053E-31,
    -7.222432592617));
#123 = CIRCLE('',#124,10.);
#124 = AXIS2_PLACEMENT_3D('',#125,#126,#127);
#125 = CARTESIAN_POINT('',(-1.2829617533E-15,-2.72803531754E-31,
    -1.228597883953E-15));
#126 = DIRECTION('',(-0.722243259262,-1.535747354941E-16,-0.691639121545
    ));
#127 = DIRECTION('',(-0.691639121545,1.603702191625E-16,0.722243259262)
  );
#128 = ORIENTED_EDGE('',*,*,#129,.F.);
#129 = EDGE_CURVE('',#119,#121,#130,.T.);
#130 = CIRCLE('',#131,10.);
#131 = AXIS2_PLACEMENT_3D('',#132,#133,#134);
#132 = CARTESIAN_POINT('',(-1.2829617533E-15,2.72803531754E-31,
    -1.228597883953E-15));
#133 = DIRECTION('',(0.722243259262,-1.535747354941E-16,0.691639121545)
  );
#134 = DIRECTION('',(-0.691639121545,-1.603702191625E-16,0.722243259262)
  );
#135 = PLANE('',#136);
#136 = AXIS2_PLACEMENT_3D('',#137,#138,#139);
#137 = CARTESIAN_POINT('',(-2.013204417987E-15,3.716412572445E-16,
    -2.250051996574E-15));
#138 = DIRECTION('',(-0.722243259262,3.606008850206E-18,-0.691639121545)
  );
#139 = DIRECTION('',(0.691639121545,1.603702191625E-16,-0.722243259262)
  );
#140 = ADVANCED_FACE('',(#141),#169,.T.);
#141 = FACE_BOUND('',#142,.F.);
#142 = EDGE_LOOP('',(#143,#144,#145,#152,#161,#168));
#143 = ORIENTED_EDGE('',*,*,#118,.T.);
#144 = ORIENTED_EDGE('',*,*,#129,.F.);
#145 = ORIENTED_EDGE('',*,*,#146,.T.);
#146 = EDGE_CURVE('',#119,#147,#149,.T.);
#147 = VERTEX_POINT('',#148);
#148 = CARTESIAN_POINT('',(257.75613712923,1.262177448354E-29,
    260.67979983538));
#149 = B_SPLINE_CURVE_WITH_KNOTS('',1,(#150,#151),.UNSPECIFIED.,.F.,.F.,
  (2,2),(-4.930380657631E-31,366.4589803375),.PIECEWISE_BEZIER_KNOTS.);
#150 = CARTESIAN_POINT('',(-6.916391215446,1.603702191625E-15,
    7.222432592617));
#151 = CARTESIAN_POINT('',(257.75613712922,5.788254316639E-14,
    260.67979983539));
#152 = ORIENTED_EDGE('',*,*,#153,.T.);
#153 = EDGE_CURVE('',#147,#154,#156,.T.);
#154 = VERTEX_POINT('',#155);
#155 = CARTESIAN_POINT('',(271.58891956011,1.262177448354E-29,
    246.23493465016));
#156 = CIRCLE('',#157,9.99999999999);
#157 = AXIS2_PLACEMENT_3D('',#158,#159,#160);
#158 = CARTESIAN_POINT('',(264.67252834467,-5.627884097476E-14,
    253.45736724277));
#159 = DIRECTION('',(0.722243259262,-1.535747354941E-16,0.691639121545)
  );
#160 = DIRECTION('',(-0.691639121545,-1.603702191625E-16,0.722243259262)
  );
#161 = ORIENTED_EDGE('',*,*,#162,.F.);
#162 = EDGE_CURVE('',#147,#154,#163,.T.);
#163 = CIRCLE('',#164,9.99999999999);
#164 = AXIS2_PLACEMENT_3D('',#165,#166,#167);
#165 = CARTESIAN_POINT('',(264.67252834467,5.627884097476E-14,
    253.45736724277));
#166 = DIRECTION('',(-0.722243259262,-1.535747354941E-16,-0.691639121545
    ));
#167 = DIRECTION('',(-0.691639121545,1.603702191625E-16,0.722243259262)
  );
#168 = ORIENTED_EDGE('',*,*,#146,.F.);
#169 = CYLINDRICAL_SURFACE('',#170,10.);
#170 = AXIS2_PLACEMENT_3D('',#171,#172,#173);
#171 = CARTESIAN_POINT('',(-1.2829617533E-15,-2.72803531754E-31,
    -1.228597883953E-15));
#172 = DIRECTION('',(0.722243259262,1.535747354941E-16,0.691639121545));
#173 = DIRECTION('',(-0.691639121545,1.603702191625E-16,0.722243259262)
  );
#174 = ADVANCED_FACE('',(#175),#194,.T.);
#175 = FACE_BOUND('',#176,.T.);
#176 = EDGE_LOOP('',(#177,#186,#187));
#177 = ORIENTED_EDGE('',*,*,#178,.T.);
#178 = EDGE_CURVE('',#179,#154,#181,.T.);
#179 = VERTEX_POINT('',#180);
#180 = CARTESIAN_POINT('',(314.17581777883,1.262177448354E-29,
    300.86301787191));
#181 = CIRCLE('',#182,35.);
#182 = AXIS2_PLACEMENT_3D('',#183,#184,#185);
#183 = CARTESIAN_POINT('',(288.89730370467,6.142989419763E-14,
    276.65564861785));
#184 = DIRECTION('',(-8.470136363647E-17,1.,-1.33595315359E-16));
#185 = DIRECTION('',(4.327065109792E-02,1.371352713705E-16,
    0.999063386755));
#186 = ORIENTED_EDGE('',*,*,#162,.F.);
#187 = ORIENTED_EDGE('',*,*,#188,.F.);
#188 = EDGE_CURVE('',#179,#147,#189,.T.);
#189 = CIRCLE('',#190,35.);
#190 = AXIS2_PLACEMENT_3D('',#191,#192,#193);
#191 = CARTESIAN_POINT('',(288.89730370467,6.142989419763E-14,
    276.65564861785));
#192 = DIRECTION('',(0.,-1.,2.22044604925E-16));
#193 = DIRECTION('',(1.,0.,0.));
#194 = SPHERICAL_SURFACE('',#195,35.);
#195 = AXIS2_PLACEMENT_3D('',#196,#197,#198);
#196 = CARTESIAN_POINT('',(288.89730370467,6.142989419763E-14,
    276.65564861785));
#197 = DIRECTION('',(-0.722243259262,-1.535747354941E-16,-0.691639121545
    ));
#198 = DIRECTION('',(-0.691639121545,1.603702191625E-16,0.722243259262)
  );
#199 = ADVANCED_FACE('',(#200),#205,.T.);
#200 = FACE_BOUND('',#201,.F.);
#201 = EDGE_LOOP('',(#202,#203,#204));
#202 = ORIENTED_EDGE('',*,*,#178,.T.);
#203 = ORIENTED_EDGE('',*,*,#153,.F.);
#204 = ORIENTED_EDGE('',*,*,#188,.F.);
#205 = SPHERICAL_SURFACE('',#206,35.);
#206 = AXIS2_PLACEMENT_3D('',#207,#208,#209);
#207 = CARTESIAN_POINT('',(288.89730370467,-6.142989419763E-14,
    276.65564861785));
#208 = DIRECTION('',(-0.722243259262,1.535747354941E-16,-0.691639121545)
  );
#209 = DIRECTION('',(-0.691639121545,-1.603702191625E-16,0.722243259262)
  );
#210 = ( GEOMETRIC_REPRESENTATION_CONTEXT(3) 
GLOBAL_UNCERTAINTY_ASSIGNED_CONTEXT((#214)) GLOBAL_UNIT_ASSIGNED_CONTEXT
((#211,#212,#213)) REPRESENTATION_CONTEXT('Context #1',
  '3D Context with UNIT and UNCERTAINTY') );
#211 = ( LENGTH_UNIT() NAMED_UNIT(*) SI_UNIT(.MILLI.,.METRE.) );
#212 = ( NAMED_UNIT(*) PLANE_ANGLE_UNIT() SI_UNIT($,.RADIAN.) );
#213 = ( NAMED_UNIT(*) SI_UNIT($,.STERADIAN.) SOLID_ANGLE_UNIT() );
#214 = UNCERTAINTY_MEASURE_WITH_UNIT(LENGTH_MEASURE(2.E-06),#211,
  'distance_accuracy_value','confusion accuracy');
#215 = PRODUCT_RELATED_PRODUCT_CATEGORY('part',$,(#7));
#216 = MECHANICAL_DESIGN_GEOMETRIC_PRESENTATION_REPRESENTATION('',(#217,
    #228),#210);
#217 = STYLED_ITEM('color',(#218),#15);
#218 = PRESENTATION_STYLE_ASSIGNMENT((#219,#225));
#219 = SURFACE_STYLE_USAGE(.BOTH.,#220);
#220 = SURFACE_SIDE_STYLE('',(#221));
#221 = SURFACE_STYLE_FILL_AREA(#222);
#222 = FILL_AREA_STYLE('',(#223));
#223 = FILL_AREA_STYLE_COLOUR('',#224);
#224 = COLOUR_RGB('',0.800000010877,0.800000010877,0.90196104065);
#225 = CURVE_STYLE('',#226,POSITIVE_LENGTH_MEASURE(0.1),#227);
#226 = DRAUGHTING_PRE_DEFINED_CURVE_FONT('continuous');
#227 = COLOUR_RGB('',9.803921802644E-02,9.803921802644E-02,
  9.803921802644E-02);
#228 = STYLED_ITEM('color',(#229),#112);
#229 = PRESENTATION_STYLE_ASSIGNMENT((#230,#235));
#230 = SURFACE_STYLE_USAGE(.BOTH.,#231);
#231 = SURFACE_SIDE_STYLE('',(#232));
#232 = SURFACE_STYLE_FILL_AREA(#233);
#233 = FILL_AREA_STYLE('',(#234));
#234 = FILL_AREA_STYLE_COLOUR('',#224);
#235 = CURVE_STYLE('',#236,POSITIVE_LENGTH_MEASURE(0.1),#227);
#236 = DRAUGHTING_PRE_DEFINED_CURVE_FONT('continuous');
ENDSEC;
END-ISO-10303-21;
