ISO-10303-21;
HEADER;
FILE_DESCRIPTION(('FreeCAD Model'),'2;1');
FILE_NAME('Open CASCADE Shape Model','2023-09-22T19:07:26',(''),(''),
  'Open CASCADE STEP processor 7.6','FreeCAD','Unknown');
FILE_SCHEMA(('AUTOMOTIVE_DESIGN { 1 0 10303 214 1 1 1 1 }'));
ENDSEC;
DATA;
#1 = APPLICATION_PROTOCOL_DEFINITION('international standard',
  'automotive_design',2000,#2);
#2 = APPLICATION_CONTEXT(
  'core data for automotive mechanical design processes');
#3 = SHAPE_DEFINITION_REPRESENTATION(#4,#10);
#4 = PRODUCT_DEFINITION_SHAPE('','',#5);
#5 = PRODUCT_DEFINITION('design','',#6,#9);
#6 = PRODUCT_DEFINITION_FORMATION('','',#7);
#7 = PRODUCT('BooleanFragments','BooleanFragments','',(#8));
#8 = PRODUCT_CONTEXT('',#2,'mechanical');
#9 = PRODUCT_DEFINITION_CONTEXT('part definition',#2,'design');
#10 = SHAPE_REPRESENTATION('',(#11,#15,#113),#121);
#11 = AXIS2_PLACEMENT_3D('',#12,#13,#14);
#12 = CARTESIAN_POINT('',(0.,0.,0.));
#13 = DIRECTION('',(0.,0.,1.));
#14 = DIRECTION('',(1.,0.,-0.));
#15 = MANIFOLD_SOLID_BREP('',#16);
#16 = CLOSED_SHELL('',(#17,#44,#78,#94));
#17 = ADVANCED_FACE('',(#18),#39,.T.);
#18 = FACE_BOUND('',#19,.T.);
#19 = EDGE_LOOP('',(#20,#29,#38));
#20 = ORIENTED_EDGE('',*,*,#21,.T.);
#21 = EDGE_CURVE('',#22,#22,#24,.T.);
#22 = VERTEX_POINT('',#23);
#23 = CARTESIAN_POINT('',(646.836365,0.,632.679688));
#24 = CIRCLE('',#25,10.010282305768);
#25 = AXIS2_PLACEMENT_3D('',#26,#27,#28);
#26 = CARTESIAN_POINT('',(639.7580265,0.,639.7580265));
#27 = DIRECTION('',(0.707106781187,-0.,0.707106781187));
#28 = DIRECTION('',(0.707106781187,0.,-0.707106781187));
#29 = ORIENTED_EDGE('',*,*,#30,.T.);
#30 = EDGE_CURVE('',#22,#31,#33,.T.);
#31 = VERTEX_POINT('',#32);
#32 = CARTESIAN_POINT('',(774.82648019466,0.,774.82648019466));
#33 = CIRCLE('',#34,95.770116777096);
#34 = AXIS2_PLACEMENT_3D('',#35,#36,#37);
#35 = CARTESIAN_POINT('',(707.10678118654,0.,707.10678118654));
#36 = DIRECTION('',(0.,-1.,0.));
#37 = DIRECTION('',(1.,0.,0.));
#38 = ORIENTED_EDGE('',*,*,#30,.F.);
#39 = SPHERICAL_SURFACE('',#40,95.770116777096);
#40 = AXIS2_PLACEMENT_3D('',#41,#42,#43);
#41 = CARTESIAN_POINT('',(707.10678118654,0.,707.10678118654));
#42 = DIRECTION('',(0.707106781187,0.,0.707106781187));
#43 = DIRECTION('',(0.707106781187,0.,-0.707106781187));
#44 = ADVANCED_FACE('',(#45),#73,.F.);
#45 = FACE_BOUND('',#46,.T.);
#46 = EDGE_LOOP('',(#47,#58,#67));
#47 = ORIENTED_EDGE('',*,*,#48,.F.);
#48 = EDGE_CURVE('',#49,#51,#53,.T.);
#49 = VERTEX_POINT('',#50);
#50 = CARTESIAN_POINT('',(7.0783385,0.,-7.0783385));
#51 = VERTEX_POINT('',#52);
#52 = CARTESIAN_POINT('',(0.,10.010282305767,2.E-15));
#53 = CIRCLE('',#54,10.010282305767);
#54 = AXIS2_PLACEMENT_3D('',#55,#56,#57);
#55 = CARTESIAN_POINT('',(0.,0.,0.));
#56 = DIRECTION('',(0.707106781187,-0.,0.707106781187));
#57 = DIRECTION('',(0.707106781187,0.,-0.707106781187));
#58 = ORIENTED_EDGE('',*,*,#59,.F.);
#59 = EDGE_CURVE('',#60,#49,#62,.T.);
#60 = VERTEX_POINT('',#61);
#61 = CARTESIAN_POINT('',(0.,-10.01028230576,-2.E-15));
#62 = CIRCLE('',#63,10.010282305767);
#63 = AXIS2_PLACEMENT_3D('',#64,#65,#66);
#64 = CARTESIAN_POINT('',(0.,0.,0.));
#65 = DIRECTION('',(0.707106781187,-0.,0.707106781187));
#66 = DIRECTION('',(0.707106781187,0.,-0.707106781187));
#67 = ORIENTED_EDGE('',*,*,#68,.F.);
#68 = EDGE_CURVE('',#51,#60,#69,.T.);
#69 = LINE('',#70,#71);
#70 = CARTESIAN_POINT('',(0.,10.010282305767,-0.));
#71 = VECTOR('',#72,1.);
#72 = DIRECTION('',(0.,-1.,0.));
#73 = PLANE('',#74);
#74 = AXIS2_PLACEMENT_3D('',#75,#76,#77);
#75 = CARTESIAN_POINT('',(0.,0.,0.));
#76 = DIRECTION('',(0.707106781187,0.,0.707106781187));
#77 = DIRECTION('',(0.707106781187,0.,-0.707106781187));
#78 = ADVANCED_FACE('',(#79),#89,.F.);
#79 = FACE_BOUND('',#80,.T.);
#80 = EDGE_LOOP('',(#81,#88));
#81 = ORIENTED_EDGE('',*,*,#82,.F.);
#82 = EDGE_CURVE('',#51,#60,#83,.T.);
#83 = CIRCLE('',#84,10.010282305767);
#84 = AXIS2_PLACEMENT_3D('',#85,#86,#87);
#85 = CARTESIAN_POINT('',(0.,0.,0.));
#86 = DIRECTION('',(0.707106781187,-0.,0.707106781187));
#87 = DIRECTION('',(0.707106781187,0.,-0.707106781187));
#88 = ORIENTED_EDGE('',*,*,#68,.T.);
#89 = PLANE('',#90);
#90 = AXIS2_PLACEMENT_3D('',#91,#92,#93);
#91 = CARTESIAN_POINT('',(0.,0.,0.));
#92 = DIRECTION('',(0.707106781187,0.,0.707106781187));
#93 = DIRECTION('',(0.707106781187,0.,-0.707106781187));
#94 = ADVANCED_FACE('',(#95),#108,.T.);
#95 = FACE_BOUND('',#96,.T.);
#96 = EDGE_LOOP('',(#97,#103,#104,#105,#106,#107));
#97 = ORIENTED_EDGE('',*,*,#98,.F.);
#98 = EDGE_CURVE('',#49,#22,#99,.T.);
#99 = LINE('',#100,#101);
#100 = CARTESIAN_POINT('',(7.0783385,0.,-7.0783385));
#101 = VECTOR('',#102,1.);
#102 = DIRECTION('',(0.707106781187,0.,0.707106781187));
#103 = ORIENTED_EDGE('',*,*,#48,.T.);
#104 = ORIENTED_EDGE('',*,*,#82,.T.);
#105 = ORIENTED_EDGE('',*,*,#59,.T.);
#106 = ORIENTED_EDGE('',*,*,#98,.T.);
#107 = ORIENTED_EDGE('',*,*,#21,.F.);
#108 = CYLINDRICAL_SURFACE('',#109,10.010282305767);
#109 = AXIS2_PLACEMENT_3D('',#110,#111,#112);
#110 = CARTESIAN_POINT('',(0.,0.,0.));
#111 = DIRECTION('',(0.707106781187,0.,0.707106781187));
#112 = DIRECTION('',(0.707106781187,0.,-0.707106781187));
#113 = GEOMETRIC_CURVE_SET('',(#114));
#114 = TRIMMED_CURVE('',#115,(#119,PARAMETER_VALUE(0.)),(#120,
    PARAMETER_VALUE(20.020564611535)),.T.,.PARAMETER.);
#115 = LINE('',#116,#117);
#116 = CARTESIAN_POINT('',(0.,10.010282305767,-0.));
#117 = VECTOR('',#118,1.);
#118 = DIRECTION('',(0.,-1.,0.));
#119 = CARTESIAN_POINT('',(0.,10.010282305767,2.E-15));
#120 = CARTESIAN_POINT('',(0.,-10.01028230576,-2.E-15));
#121 = ( GEOMETRIC_REPRESENTATION_CONTEXT(3) 
GLOBAL_UNCERTAINTY_ASSIGNED_CONTEXT((#125)) GLOBAL_UNIT_ASSIGNED_CONTEXT
((#122,#123,#124)) REPRESENTATION_CONTEXT('Context #1',
  '3D Context with UNIT and UNCERTAINTY') );
#122 = ( LENGTH_UNIT() NAMED_UNIT(*) SI_UNIT(.MILLI.,.METRE.) );
#123 = ( NAMED_UNIT(*) PLANE_ANGLE_UNIT() SI_UNIT($,.RADIAN.) );
#124 = ( NAMED_UNIT(*) SI_UNIT($,.STERADIAN.) SOLID_ANGLE_UNIT() );
#125 = UNCERTAINTY_MEASURE_WITH_UNIT(LENGTH_MEASURE(1.E-07),#122,
  'distance_accuracy_value','confusion accuracy');
#126 = PRODUCT_RELATED_PRODUCT_CATEGORY('part',$,(#7));
#127 = MECHANICAL_DESIGN_GEOMETRIC_PRESENTATION_REPRESENTATION('',(#128,
    #139),#121);
#128 = STYLED_ITEM('color',(#129),#113);
#129 = PRESENTATION_STYLE_ASSIGNMENT((#130,#136));
#130 = SURFACE_STYLE_USAGE(.BOTH.,#131);
#131 = SURFACE_SIDE_STYLE('',(#132));
#132 = SURFACE_STYLE_FILL_AREA(#133);
#133 = FILL_AREA_STYLE('',(#134));
#134 = FILL_AREA_STYLE_COLOUR('',#135);
#135 = COLOUR_RGB('',0.800000010877,0.800000010877,0.800000010877);
#136 = CURVE_STYLE('',#137,POSITIVE_LENGTH_MEASURE(0.1),#138);
#137 = DRAUGHTING_PRE_DEFINED_CURVE_FONT('continuous');
#138 = COLOUR_RGB('',9.803921802644E-02,9.803921802644E-02,
  9.803921802644E-02);
#139 = STYLED_ITEM('color',(#140),#15);
#140 = PRESENTATION_STYLE_ASSIGNMENT((#141,#146));
#141 = SURFACE_STYLE_USAGE(.BOTH.,#142);
#142 = SURFACE_SIDE_STYLE('',(#143));
#143 = SURFACE_STYLE_FILL_AREA(#144);
#144 = FILL_AREA_STYLE('',(#145));
#145 = FILL_AREA_STYLE_COLOUR('',#135);
#146 = CURVE_STYLE('',#147,POSITIVE_LENGTH_MEASURE(0.1),#138);
#147 = DRAUGHTING_PRE_DEFINED_CURVE_FONT('continuous');
ENDSEC;
END-ISO-10303-21;
